<svg xmlns="http://www.w3.org/2000/svg" viewBox="0 0 413.55 510.59"><defs><style>.cls-1{font-size:92.17px;fill:#1e1e1e;font-family:HelveticaNeue-Medium, Helvetica Neue;font-weight:500;}.cls-2{fill:#fff;}</style></defs><g id="Layer_2" data-name="Layer 2"><g id="Layer_1-2" data-name="Layer 1"><text class="cls-1" transform="translate(32.67 78.99)">GITHUB</text><path d="M39.1,175.92c-8.91,0-17.82,0-26.73,0-7.7,0-12.32-4.55-12.34-12.13Q0,137,0,110.31C0,102.61,4.57,98,12.15,98q26.73-.06,53.47,0c7.7,0,12.32,4.54,12.34,12.12q.06,26.75,0,53.48c0,7.91-4.58,12.33-12.68,12.35C56.56,175.94,47.83,175.92,39.1,175.92Zm0-11c5.39,0,10.78.08,16.16,0,6.91-.12,11.62-4.8,11.67-11.72q.14-16.15,0-32.32c0-6.94-4.73-11.75-11.57-11.81q-16.43-.15-32.87,0a11.24,11.24,0,0,0-11.39,11.42q-.15,16.44,0,32.88c.06,6.82,4.9,11.45,11.84,11.54C28.31,164.94,33.7,164.89,39.08,164.88Z"/><path d="M373.77,98c8.72,0,17.45,0,26.18,0,8.05,0,12.59,4.47,12.6,12.43q0,26.73,0,53.48c0,7.29-4.64,12-11.85,12q-27,.08-54,0c-7.3,0-12-4.64-12-11.86q-.08-27,0-54c0-7.57,4.66-12,12.42-12.06C356,97.93,364.86,98,373.77,98Zm-.29,66.93c5.39,0,10.77.05,16.16,0,7.18-.09,11.83-4.8,11.87-12.08q.09-15.89,0-31.77c-.05-7.2-4.77-12-11.94-12-10.77-.06-21.55-.09-32.32,0-6.85.06-11.54,4.86-11.59,11.79q-.11,16.17,0,32.33c.05,6.92,4.76,11.61,11.65,11.73C362.7,165,368.09,164.88,373.48,164.89Z"/><path d="M39,510.57c-8.92,0-17.83,0-26.74,0C4.58,510.52.05,506,0,498.32Q0,471.58,0,444.84c0-7.68,4.55-12.21,12.24-12.22q26.73-.06,53.47,0c7.67,0,12.2,4.55,12.22,12.24q.06,26.75,0,53.48c0,7.68-4.55,12.18-12.24,12.22C56.81,510.61,47.9,510.57,39,510.57ZM11.05,471.1c0,5.39,0,10.77,0,16.16.07,7.67,4.6,12.22,12.26,12.26,10.59.05,21.17.07,31.76,0,6.94-.05,11.76-4.72,11.83-11.55q.15-16.44,0-32.88a11.24,11.24,0,0,0-11.39-11.41q-16.44-.15-32.88,0c-6.83.06-11.46,4.88-11.56,11.82C11,460.69,11.05,465.9,11.05,471.1Z"/><path d="M190.46,103.64c-3.18,2-5,4-6.72,3.94-1.45-.08-4.12-3-3.84-4a6.79,6.79,0,0,1,4.4-4.2C185.62,99.12,187.43,101.42,190.46,103.64Z"/><path d="M194.93,109.7c-1.94-2.84-4.19-4.71-3.9-6,.38-1.75,2.74-3.06,4.26-4.57,1.41,1.61,3.68,3.08,4,4.86C199.44,105.28,197.07,107,194.93,109.7Z"/><path d="M206.34,110c-2.1-3.12-4.19-4.88-4.15-6.59,0-1.46,2.52-2.87,3.92-4.3,1.52,1.49,3.89,2.8,4.28,4.55C210.69,105,208.46,106.85,206.34,110Z"/><path d="M223.66,103.73c-2.85,1.92-4.74,4.15-6.06,3.85-1.75-.39-3-2.77-4.54-4.29,1.61-1.4,3.11-3.66,4.89-3.91C219.28,99.19,221,101.57,223.66,103.73Z"/><path d="M250.7,109.7c-1.95-2.84-4.19-4.71-3.91-6,.39-1.75,2.75-3.06,4.26-4.57,1.41,1.61,3.68,3.08,3.95,4.86C255.2,105.28,252.83,107,250.7,109.7Z"/><path d="M273.14,110c-2-3.16-4.1-5-4-6.67.05-1.45,2.92-4.17,3.93-3.91a6.79,6.79,0,0,1,4.27,4.33C277.58,105,275.31,106.89,273.14,110Z"/><path d="M284.35,97c2.08,3.13,4.16,4.9,4.11,6.62,0,1.45-2.54,2.84-3.95,4.26-1.51-1.5-3.87-2.82-4.26-4.57C280,102,282.21,100.09,284.35,97Z"/><path d="M295.57,110c-2.1-3.12-4.2-4.88-4.16-6.59,0-1.46,2.52-2.87,3.92-4.3,1.52,1.49,3.89,2.8,4.29,4.55C299.92,105,297.68,106.85,295.57,110Z"/><path d="M317.76,97c2.17,3.08,4.44,4.93,4.16,6.26a6.8,6.8,0,0,1-4.27,4.32c-1,.26-3.87-2.46-3.93-3.91C313.65,101.93,315.71,100.14,317.76,97Z"/><path d="M168.16,103.59c-3.17,2-5,4.07-6.69,4-1.45-.07-4.14-3-3.88-4A6.74,6.74,0,0,1,162,99.37C163.32,99.13,165.14,101.42,168.16,103.59Z"/><path d="M157,103.37c-3.11,2.12-4.85,4.23-6.56,4.21-1.46,0-2.89-2.5-4.33-3.89,1.48-1.53,2.76-3.91,4.51-4.32C152,99.06,153.87,101.28,157,103.37Z"/><path d="M117.17,108.14c2,3.17,4.08,5,4,6.7-.07,1.45-3,4.14-4,3.88a6.77,6.77,0,0,1-4.24-4.36C112.72,113,115,111.16,117.17,108.14Z"/><path d="M128.16,108.14c2.17,3.08,4.44,4.93,4.16,6.25a6.79,6.79,0,0,1-4.27,4.33c-1,.25-3.87-2.46-3.93-3.92C124.05,113.09,126.11,111.29,128.16,108.14Z"/><path d="M144,114.64c3.13-2.08,4.9-4.16,6.61-4.11,1.46,0,2.85,2.54,4.27,4-1.51,1.51-2.82,3.87-4.58,4.26C149,119,147.14,116.78,144,114.64Z"/><path d="M161.66,108.13c2.08,3.13,4.17,4.91,4.12,6.62,0,1.46-2.54,2.85-3.95,4.27-1.51-1.51-3.88-2.83-4.26-4.58C157.28,113.12,159.53,111.25,161.66,108.13Z"/><path d="M195.07,108.14c2.17,3.08,4.44,4.93,4.17,6.25a6.78,6.78,0,0,1-4.28,4.33c-1,.25-3.87-2.46-3.93-3.92C191,113.09,193,111.29,195.07,108.14Z"/><path d="M235.07,114.84c-3.2,2-5,4-6.75,3.89-1.45-.09-4.09-3-3.81-4a6.75,6.75,0,0,1,4.43-4.17C230.27,110.29,232.06,112.6,235.07,114.84Z"/><path d="M246.23,114.84c-3.2,2-5,4-6.76,3.89-1.45-.09-4.09-3-3.81-4a6.77,6.77,0,0,1,4.43-4.17C241.42,110.29,243.21,112.6,246.23,114.84Z"/><path d="M302,114.46c-3.1,2.16-4.82,4.28-6.53,4.27-1.47,0-2.92-2.46-4.37-3.84,1.47-1.55,2.74-4,4.46-4.36C297,110.22,298.89,112.43,302,114.46Z"/><path d="M313.12,115.18c-3.3,1.8-5.25,3.74-7,3.54-1.44-.16-3.92-3.25-3.58-4.25a6.77,6.77,0,0,1,4.66-3.93C308.58,110.37,310.24,112.79,313.12,115.18Z"/><path d="M145.86,103.41c-3.08,2.18-4.93,4.44-6.25,4.17a6.77,6.77,0,0,1-4.32-4.28c-.26-1,2.47-3.89,3.91-3.92C140.94,99.33,142.74,101.39,145.86,103.41Z"/><path d="M134.69,103.74c-3.21,2-5.08,4-6.79,3.84-1.45-.11-4.06-3.07-3.77-4.08a6.79,6.79,0,0,1,4.47-4.13C129.93,99.14,131.7,101.48,134.69,103.74Z"/><path d="M134.44,126c-2.86,1.92-4.75,4.15-6.07,3.85-1.75-.39-3-2.77-4.54-4.29,1.62-1.4,3.11-3.66,4.89-3.91C130.06,121.5,131.76,123.88,134.44,126Z"/><path d="M145.86,125.85c-3.15,2-5,4.11-6.66,4-1.46-.06-4.17-2.92-3.91-3.94a6.77,6.77,0,0,1,4.33-4.27C140.94,121.41,142.78,123.68,145.86,125.85Z"/><path d="M223.92,126c-3.2,2-5,4-6.76,3.89-1.44-.09-4.08-3-3.8-4a6.77,6.77,0,0,1,4.43-4.17C219.11,121.44,220.91,123.76,223.92,126Z"/><path d="M235.08,125.85c-3.15,2-5,4.11-6.66,4-1.46-.06-4.17-2.92-3.91-3.94a6.79,6.79,0,0,1,4.33-4.27C230.16,121.41,232,123.68,235.08,125.85Z"/><path d="M246.2,126.27c-3.28,1.84-5.21,3.79-6.92,3.61-1.44-.15-3.95-3.21-3.62-4.22a6.78,6.78,0,0,1,4.62-4C241.64,121.52,243.32,123.92,246.2,126.27Z"/><path d="M268.54,125.85c-3.15,2-5,4.11-6.66,4-1.46-.06-4.17-2.92-3.91-3.94a6.77,6.77,0,0,1,4.33-4.27C263.62,121.41,265.47,123.68,268.54,125.85Z"/><path d="M295.76,119.57c1.93,2.85,4.16,4.74,3.86,6.06-.4,1.75-2.77,3.05-4.29,4.54-1.4-1.62-3.66-3.11-3.92-4.89C291.22,123.94,293.61,122.24,295.76,119.57Z"/><path d="M101.25,137c-3.14,2.06-4.92,4.14-6.63,4.08-1.46,0-4.19-2.88-3.94-3.9A6.79,6.79,0,0,1,95,132.83C96.29,132.55,98.15,134.81,101.25,137Z"/><path d="M112.13,137.14c-2.83,2-4.71,4.2-6,3.91-1.75-.39-3.07-2.75-4.57-4.26,1.6-1.41,3.08-3.68,4.85-3.95C107.72,132.64,109.44,135,112.13,137.14Z"/><path d="M157,137.21c-3.22,1.94-5.08,3.95-6.79,3.83-1.45-.1-4.06-3.06-3.77-4.07a6.77,6.77,0,0,1,4.47-4.13C152.24,132.61,154,134.94,157,137.21Z"/><path d="M179.05,137.14c-2.84,2-4.71,4.2-6,3.91-1.75-.39-3.07-2.75-4.57-4.26,1.6-1.41,3.07-3.68,4.85-3.95C174.63,132.64,176.36,135,179.05,137.14Z"/><path d="M195.15,130.44c2.07,3.15,4.14,4.93,4.09,6.64-.05,1.46-2.89,4.19-3.9,3.94a6.77,6.77,0,0,1-4.31-4.29C190.75,135.41,193,133.55,195.15,130.44Z"/><path d="M206.23,130.45c2.17,3.08,4.44,4.93,4.16,6.25a6.79,6.79,0,0,1-4.27,4.33c-1,.25-3.89-2.48-3.93-3.91C202.14,135.37,204.21,133.57,206.23,130.45Z"/><path d="M224,136.84c-3.11,2.12-4.85,4.23-6.56,4.2-1.47,0-2.89-2.49-4.33-3.88,1.48-1.54,2.76-3.92,4.51-4.33C218.88,132.52,220.79,134.74,224,136.84Z"/><path d="M262.11,143.44c-2.1-3.12-4.2-4.88-4.16-6.59,0-1.46,2.52-2.86,3.92-4.29,1.52,1.49,3.9,2.79,4.29,4.54C266.46,138.42,264.22,140.31,262.11,143.44Z"/><path d="M279.69,137.15c-3.2,2-5.05,4-6.76,3.89-1.45-.09-4.09-3-3.81-4a6.72,6.72,0,0,1,4.43-4.17C274.92,132.61,276.7,134.93,279.69,137.15Z"/><path d="M284.09,143.41c-1.94-3.21-3.95-5.07-3.83-6.79.1-1.44,3.06-4.06,4.07-3.77a6.74,6.74,0,0,1,4.13,4.47C288.68,138.68,286.34,140.45,284.09,143.41Z"/><path d="M302,137.11c-3.18,2-5,4-6.72,3.93-1.45-.08-4.12-3-3.84-4a6.75,6.75,0,0,1,4.4-4.2C297.15,132.59,299,134.89,302,137.11Z"/><path d="M324.27,137.49c-3.3,1.8-5.25,3.74-7,3.54-1.44-.16-3.92-3.25-3.58-4.25a6.77,6.77,0,0,1,4.66-3.93C319.73,132.68,321.4,135.1,324.27,137.49Z"/><path d="M94.69,154.59c-2-3.16-4.1-5-4-6.67.06-1.45,2.92-4.17,3.93-3.91a6.71,6.71,0,0,1,4.27,4.32C99.11,149.71,96.84,151.55,94.69,154.59Z"/><path d="M105.85,154.59c-2-3.16-4.11-5-4-6.67.06-1.45,2.92-4.17,3.94-3.91a6.72,6.72,0,0,1,4.26,4.32C110.27,149.71,108,151.55,105.85,154.59Z"/><path d="M145.85,148.26c-3.18,2-5,4-6.72,3.94-1.46-.08-4.12-3-3.84-4a6.77,6.77,0,0,1,4.4-4.2C141,143.74,142.82,146,145.85,148.26Z"/><path d="M190.43,148.64c-3.29,1.81-5.25,3.74-7,3.55-1.43-.17-3.91-3.25-3.58-4.26a6.81,6.81,0,0,1,4.67-3.93C185.9,143.84,187.56,146.25,190.43,148.64Z"/><path d="M212.78,148c-3.08,2.18-4.93,4.44-6.25,4.17a6.78,6.78,0,0,1-4.33-4.28c-.25-1,2.48-3.89,3.91-3.93C207.86,144,209.66,146,212.78,148Z"/><path d="M223.94,148.11c-3.15,2.07-4.93,4.14-6.64,4.09-1.46,0-4.19-2.89-3.94-3.9a6.77,6.77,0,0,1,4.29-4.31C219,143.71,220.84,146,223.94,148.11Z"/><path d="M228.7,141.61c2,3.17,4.08,5,4,6.69-.07,1.46-3,4.14-4,3.88a6.79,6.79,0,0,1-4.24-4.36C224.23,146.5,226.51,144.67,228.7,141.61Z"/><path d="M239.26,154.55c-1.83-3.28-3.79-5.21-3.61-6.92.16-1.44,3.21-3.95,4.22-3.62a6.74,6.74,0,0,1,4,4.62C244,150,241.61,151.67,239.26,154.55Z"/><path d="M262,141.6c2.08,3.13,4.16,4.9,4.11,6.62,0,1.45-2.54,2.84-3.95,4.26-1.51-1.5-3.91-2.83-4.25-4.57C257.68,146.54,259.94,144.67,262,141.6Z"/><path d="M284.25,141.59c2.13,3.1,4.24,4.85,4.21,6.56,0,1.46-2.49,2.89-3.88,4.33-1.54-1.48-3.92-2.76-4.33-4.51C279.94,146.65,282.16,144.74,284.25,141.59Z"/><path d="M295.35,154.58c-2-3.19-4-5-3.94-6.73.08-1.45,3-4.11,4-3.84a6.73,6.73,0,0,1,4.19,4.4C299.85,149.78,297.54,151.58,295.35,154.58Z"/><path d="M306.68,141.6c2.07,3.14,4.14,4.92,4.09,6.64,0,1.45-2.89,4.19-3.9,3.94a6.77,6.77,0,0,1-4.31-4.29C302.28,146.56,304.53,144.7,306.68,141.6Z"/><path d="M318.07,141.88c1.92,2.85,4.15,4.74,3.85,6.06-.39,1.75-2.77,3.05-4.29,4.54-1.4-1.62-3.67-3.12-3.91-4.89C313.54,146.23,315.93,144.53,318.07,141.88Z"/><path d="M95,152.77c2,3.2,4,5,3.89,6.76-.09,1.45-3,4.09-4,3.81a6.77,6.77,0,0,1-4.16-4.43C90.41,157.58,92.73,155.79,95,152.77Z"/><path d="M106,165.75c-2.1-3.12-4.2-4.88-4.16-6.59,0-1.46,2.52-2.86,3.92-4.29,1.52,1.49,3.89,2.79,4.29,4.54C110.32,160.73,108.08,162.62,106,165.75Z"/><path d="M134.44,159.45c-2.84,2-4.71,4.2-6,3.91-1.75-.39-3.07-2.75-4.58-4.26,1.61-1.41,3.08-3.68,4.86-3.95C130,155,131.75,157.32,134.44,159.45Z"/><path d="M150.77,153c1.93,2.85,4.16,4.75,3.86,6.07-.4,1.74-2.77,3-4.29,4.54-1.4-1.62-3.66-3.11-3.91-4.89C146.24,157.41,148.62,155.71,150.77,153Z"/><path d="M168.13,159.8c-3.3,1.8-5.25,3.74-7,3.54-1.44-.16-3.92-3.25-3.58-4.25a6.77,6.77,0,0,1,4.66-3.93C163.59,155,165.26,157.41,168.13,159.8Z"/><path d="M172.88,165.75c-2.09-3.12-4.19-4.88-4.15-6.59,0-1.46,2.52-2.86,3.92-4.29,1.52,1.49,3.89,2.79,4.29,4.54C177.23,160.73,175,162.62,172.88,165.75Z"/><path d="M212.8,159.08c-3.09,2.16-4.81,4.28-6.53,4.27-1.46,0-2.91-2.46-4.37-3.84,1.47-1.55,2.74-4,4.47-4.36C207.74,154.84,209.67,157.05,212.8,159.08Z"/><path d="M217.61,165.77c-2.16-3.1-4.28-4.82-4.27-6.53,0-1.47,2.47-2.92,3.84-4.37,1.55,1.46,3.94,2.72,4.37,4.46C221.87,160.65,219.68,162.58,217.61,165.77Z"/><path d="M235.08,159.42c-3.19,2-5,4-6.73,3.93-1.45-.08-4.11-3-3.84-4a6.77,6.77,0,0,1,4.4-4.2C230.24,154.9,232,157.2,235.08,159.42Z"/><path d="M233.25,159.26c3.13-2.08,4.91-4.16,6.62-4.11,1.46,0,2.84,2.54,4.26,3.95-1.5,1.51-2.82,3.87-4.57,4.26C238.24,163.65,236.36,161.4,233.25,159.26Z"/><path d="M257.12,159.5c-2.85,1.93-4.75,4.16-6.07,3.86-1.74-.4-3-2.77-4.53-4.3,1.61-1.39,3.11-3.67,4.88-3.91C252.76,155,254.46,157.36,257.12,159.5Z"/><path d="M290.84,159.42c-3.18,2-5,4-6.73,3.93-1.45-.08-4.11-3-3.84-4a6.79,6.79,0,0,1,4.4-4.2C286,154.9,287.81,157.2,290.84,159.42Z"/><path d="M302,159.42c-3.18,2-5,4-6.72,3.93-1.45-.08-4.12-3-3.84-4a6.75,6.75,0,0,1,4.4-4.2C297.15,154.9,299,157.2,302,159.42Z"/><path d="M101.25,170.42c-3.14,2.07-4.92,4.14-6.63,4.09-1.46,0-4.19-2.89-3.94-3.9A6.77,6.77,0,0,1,95,166.3C96.29,166,98.15,168.27,101.25,170.42Z"/><path d="M123.58,170.24c-3.09,2.15-4.82,4.28-6.53,4.27-1.46,0-2.91-2.47-4.37-3.84,1.47-1.55,2.74-4,4.46-4.37C118.51,166,120.44,168.2,123.58,170.24Z"/><path d="M145.87,170.35c-3.12,2.1-4.88,4.2-6.59,4.16-1.46,0-2.86-2.52-4.29-3.92,1.49-1.52,2.79-3.9,4.54-4.29C140.85,166,142.74,168.23,145.87,170.35Z"/><path d="M168.15,170.67c-3.22,2-5.08,4-6.79,3.84-1.45-.11-4.06-3.07-3.77-4.08a6.79,6.79,0,0,1,4.47-4.13C163.39,166.07,165.16,168.41,168.15,170.67Z"/><path d="M190.48,170.39c-3.13,2.08-4.91,4.17-6.62,4.12-1.46,0-2.84-2.54-4.26-4,1.5-1.51,2.83-3.91,4.57-4.25C185.54,166,187.41,168.29,190.48,170.39Z"/><path d="M205.8,176.86c-1.83-3.28-3.78-5.21-3.6-6.92.15-1.44,3.21-3.95,4.21-3.62a6.74,6.74,0,0,1,4,4.62C210.55,172.3,208.15,174,205.8,176.86Z"/><path d="M235.08,170.34c-3.08,2.17-4.92,4.44-6.25,4.17a6.79,6.79,0,0,1-4.32-4.28c-.25-1,2.47-3.89,3.91-3.93C230.16,166.26,232,168.32,235.08,170.34Z"/><path d="M257.41,170.3c-3.11,2.12-4.85,4.23-6.56,4.21-1.47,0-2.89-2.5-4.33-3.89,1.48-1.53,2.76-3.91,4.5-4.32C252.34,166,254.25,168.21,257.41,170.3Z"/><path d="M273.22,163.91c2.07,3.14,4.14,4.92,4.09,6.64-.05,1.45-2.89,4.19-3.9,3.94a6.77,6.77,0,0,1-4.31-4.29C268.82,168.87,271.07,167,273.22,163.91Z"/><path d="M301.73,170.61c-2.83,1.94-4.71,4.19-6,3.9-1.75-.38-3.07-2.74-4.57-4.26,1.6-1.41,3.08-3.68,4.85-3.95C297.32,166.1,299,168.47,301.73,170.61Z"/><path d="M317.33,176.86c-1.83-3.28-3.79-5.21-3.6-6.92.15-1.44,3.21-3.95,4.21-3.62a6.74,6.74,0,0,1,4,4.62C322.08,172.3,319.68,174,317.33,176.86Z"/><path d="M94.78,175.06c2.06,3.15,4.14,4.93,4.08,6.64,0,1.46-2.89,4.19-3.9,3.94a6.79,6.79,0,0,1-4.31-4.29C90.37,180,92.63,178.17,94.78,175.06Z"/><path d="M168.16,181.73c-3.19,2-5,4-6.73,3.93-1.45-.08-4.11-3-3.84-4a6.77,6.77,0,0,1,4.4-4.2C163.32,177.21,165.13,179.51,168.16,181.73Z"/><path d="M201.64,181.45c-3.1,2.13-4.85,4.24-6.56,4.21-1.46,0-2.89-2.49-4.33-3.88,1.48-1.54,2.77-3.92,4.51-4.33C196.58,177.14,198.49,179.36,201.64,181.45Z"/><path d="M206.28,175.06c2.07,3.13,4.16,4.91,4.11,6.62,0,1.46-2.54,2.85-3.95,4.27-1.51-1.51-3.88-2.83-4.26-4.58C201.89,180.05,204.14,178.18,206.28,175.06Z"/><path d="M217.38,188.05c-2-3.15-4.11-5-4-6.66.06-1.46,2.92-4.17,3.93-3.91a6.69,6.69,0,0,1,4.27,4.32C221.8,183.17,219.52,185,217.38,188.05Z"/><path d="M257.39,181.62c-3.15,2-4.95,4.11-6.66,4-1.46-.06-4.17-2.92-3.91-3.93a6.77,6.77,0,0,1,4.32-4.28C252.47,177.18,254.31,179.45,257.39,181.62Z"/><path d="M262.11,188.06c-2.1-3.12-4.2-4.88-4.16-6.59,0-1.46,2.52-2.86,3.92-4.29,1.52,1.49,3.9,2.79,4.29,4.54C266.46,183,264.22,184.93,262.11,188.06Z"/><path d="M301.73,181.73c-2.82,2-4.69,4.22-6,3.94-1.75-.38-3.08-2.73-4.59-4.24,1.6-1.42,3.06-3.69,4.83-4C297.3,177.25,299,179.61,301.73,181.73Z"/><path d="M11.75,193c-2.85,1.93-4.74,4.16-6.06,3.86-1.75-.39-3.05-2.77-4.54-4.29,1.62-1.4,3.11-3.66,4.89-3.91C7.38,188.43,9.08,190.81,11.75,193Z"/><path d="M50.2,199.22c-2.1-3.12-4.19-4.88-4.15-6.59,0-1.46,2.51-2.87,3.91-4.3,1.53,1.49,3.9,2.8,4.29,4.54C54.55,194.19,52.32,196.08,50.2,199.22Z"/><path d="M72,199.17c-1.84-3.28-3.79-5.21-3.61-6.92.15-1.44,3.21-3.95,4.22-3.62a6.79,6.79,0,0,1,4,4.62C76.73,194.59,74.33,196.28,72,199.17Z"/><path d="M90.11,192.61c-3.1,2.12-4.85,4.23-6.56,4.21-1.46,0-2.89-2.5-4.33-3.89,1.48-1.53,2.77-3.91,4.51-4.32C85.05,188.3,87,190.52,90.11,192.61Z"/><path d="M101,192.89c-2.83,2-4.69,4.21-6,3.93-1.75-.37-3.08-2.73-4.6-4.23,1.6-1.42,3.06-3.7,4.84-4C96.54,188.4,98.28,190.77,101,192.89Z"/><path d="M112.37,193.2c-3.28,1.84-5.22,3.79-6.93,3.61-1.44-.15-3.94-3.21-3.62-4.22a6.8,6.8,0,0,1,4.63-4C107.79,188.44,109.47,190.84,112.37,193.2Z"/><path d="M123.56,192.66c-3.11,2.1-4.87,4.2-6.58,4.16-1.46,0-2.87-2.52-4.3-3.92,1.49-1.52,2.8-3.9,4.54-4.29C118.54,188.31,120.43,190.54,123.56,192.66Z"/><path d="M150,199.17c-1.84-3.28-3.79-5.21-3.61-6.92.15-1.44,3.21-3.95,4.22-3.62a6.79,6.79,0,0,1,4,4.62C154.8,194.59,152.4,196.28,150,199.17Z"/><path d="M168.13,193.26c-3.3,1.81-5.25,3.74-7,3.55-1.44-.17-3.92-3.25-3.58-4.26a6.79,6.79,0,0,1,4.66-3.93C163.59,188.46,165.26,190.87,168.13,193.26Z"/><path d="M206.09,198.93c-2-2.83-4.2-4.7-3.91-6,.38-1.75,2.75-3.07,4.26-4.57,1.41,1.6,3.68,3.08,3.95,4.86C210.59,194.52,208.22,196.24,206.09,198.93Z"/><path d="M223.92,192.88c-3.18,2-5,4-6.72,3.94-1.46-.08-4.12-3-3.84-4a6.75,6.75,0,0,1,4.4-4.2C219.08,188.36,220.89,190.66,223.92,192.88Z"/><path d="M250.89,186.22c2.08,3.13,4.16,4.9,4.11,6.62,0,1.45-2.54,2.84-3.95,4.26-1.51-1.5-3.87-2.82-4.26-4.57C246.51,191.2,248.75,189.33,250.89,186.22Z"/><path d="M279.43,192.89c-2.83,2-4.69,4.21-6,3.93-1.76-.37-3.09-2.73-4.6-4.23,1.6-1.42,3.06-3.7,4.84-4C275,188.4,276.72,190.77,279.43,192.89Z"/><path d="M284.35,186.22c2.08,3.13,4.16,4.9,4.11,6.62,0,1.45-2.54,2.84-3.95,4.26-1.51-1.5-3.87-2.82-4.26-4.57C280,191.2,282.21,189.33,284.35,186.22Z"/><path d="M295.68,199.23c-2.16-3.09-4.28-4.82-4.27-6.53,0-1.46,2.47-2.91,3.84-4.37,1.55,1.47,3.94,2.73,4.37,4.47C299.94,194.12,297.75,196.05,295.68,199.23Z"/><path d="M306.72,199.22c-2.1-3.12-4.2-4.88-4.16-6.59,0-1.46,2.52-2.87,3.92-4.3,1.52,1.49,3.94,2.81,4.29,4.54C311.05,194.25,308.8,196.13,306.72,199.22Z"/><path d="M318,186.23c2,3.2,4,5.05,3.89,6.76-.09,1.45-3,4.09-4,3.81a6.77,6.77,0,0,1-4.17-4.43C313.47,191,315.79,189.25,318,186.23Z"/><path d="M328.91,186.22c2.17,3.08,4.44,4.93,4.17,6.26a6.84,6.84,0,0,1-4.28,4.32c-1,.26-3.87-2.46-3.93-3.91C324.8,191.17,326.87,189.38,328.91,186.22Z"/><path d="M340.14,186.22c2.07,3.14,4.14,4.92,4.09,6.64-.05,1.45-2.89,4.19-3.9,3.94a6.77,6.77,0,0,1-4.31-4.29C335.74,191.18,338,189.32,340.14,186.22Z"/><path d="M357.75,193c-3.21,2-5.08,4-6.79,3.84-1.45-.11-4.06-3.07-3.77-4.08a6.79,6.79,0,0,1,4.47-4.13C353,188.38,354.76,190.72,357.75,193Z"/><path d="M362.48,199.22c-2.09-3.12-4.19-4.88-4.15-6.59,0-1.46,2.52-2.87,3.92-4.3,1.52,1.49,3.93,2.81,4.28,4.54C366.81,194.25,364.57,196.13,362.48,199.22Z"/><path d="M380.09,192.61c-3.11,2.12-4.85,4.23-6.56,4.21-1.46,0-2.89-2.5-4.33-3.89,1.48-1.53,2.76-3.91,4.51-4.32C375,188.3,376.93,190.52,380.09,192.61Z"/><path d="M413.53,192.78c-3.15,2-4.95,4.11-6.66,4-1.46-.06-4.17-2.92-3.91-3.94a6.77,6.77,0,0,1,4.33-4.27C408.61,188.34,410.45,190.61,413.53,192.78Z"/><path d="M16.49,210.09c-1.95-2.84-4.2-4.71-3.91-6,.38-1.75,2.75-3.07,4.26-4.57,1.41,1.6,3.68,3.07,3.95,4.85C21,205.68,18.62,207.4,16.49,210.09Z"/><path d="M21.34,203.88c3.14-2.08,4.91-4.16,6.62-4.11,1.46,0,2.85,2.54,4.27,3.95-1.51,1.51-2.84,3.91-4.57,4.25C26.28,208.24,24.41,206,21.34,203.88Z"/><path d="M39.54,197.42c1.81,3.3,3.74,5.25,3.54,7-.16,1.44-3.24,3.92-4.25,3.58a6.81,6.81,0,0,1-3.93-4.66C34.73,202,37.15,200.29,39.54,197.42Z"/><path d="M56.65,203.76c-3.1,2.13-4.85,4.24-6.56,4.21-1.46,0-2.89-2.49-4.33-3.88,1.48-1.54,2.77-3.92,4.51-4.33C51.59,199.45,53.5,201.67,56.65,203.76Z"/><path d="M67.75,204.36c-3.27,1.83-5.21,3.78-6.92,3.6-1.44-.15-3.94-3.21-3.62-4.21a6.73,6.73,0,0,1,4.62-4C63.19,199.6,64.88,202,67.75,204.36Z"/><path d="M83.72,197.38c2,3.17,4.07,5,4,6.7-.07,1.45-2.95,4.14-4,3.88a6.81,6.81,0,0,1-4.24-4.36C79.24,202.27,81.52,200.44,83.72,197.38Z"/><path d="M145.86,203.93c-3.15,2-5,4.11-6.66,4-1.46-.06-4.17-2.92-3.91-3.93a6.76,6.76,0,0,1,4.33-4.28C140.94,199.49,142.78,201.76,145.86,203.93Z"/><path d="M161.89,197.39c2,3.2,4,5.05,3.89,6.76-.09,1.45-3,4.09-4,3.81a6.73,6.73,0,0,1-4.16-4.43C157.35,202.16,159.67,200.37,161.89,197.39Z"/><path d="M190.44,204.36c-3.28,1.83-5.21,3.78-6.92,3.6-1.45-.15-4-3.21-3.63-4.21a6.82,6.82,0,0,1,4.63-4C185.86,199.59,187.54,202,190.44,204.36Z"/><path d="M223.91,204.14c-3.21,1.94-5.07,4-6.79,3.83-1.44-.1-4.05-3.06-3.76-4.07a6.72,6.72,0,0,1,4.47-4.13C219.18,199.55,221,201.89,223.91,204.14Z"/><path d="M228.11,210.33c-1.84-3.28-3.79-5.22-3.61-6.93.15-1.44,3.21-4,4.22-3.62a6.78,6.78,0,0,1,4,4.63C232.87,205.74,230.47,207.43,228.11,210.33Z"/><path d="M240,197.65c1.92,2.85,4.15,4.75,3.85,6.07-.39,1.74-2.77,3-4.29,4.54-1.4-1.62-3.66-3.11-3.91-4.89C235.46,202,237.85,200.33,240,197.65Z"/><path d="M328.77,210.09c-1.95-2.84-4.19-4.71-3.9-6,.38-1.75,2.74-3.07,4.25-4.57,1.41,1.6,3.68,3.07,3.95,4.85C333.27,205.68,330.9,207.4,328.77,210.09Z"/><path d="M346.61,204c-3.19,2-5,4-6.73,3.93-1.45-.08-4.11-3-3.84-4a6.77,6.77,0,0,1,4.4-4.2C341.77,199.52,343.57,201.82,346.61,204Z"/><path d="M351.29,197.37c2.07,3.15,4.14,4.93,4.09,6.64-.05,1.46-2.89,4.19-3.9,3.94a6.77,6.77,0,0,1-4.31-4.29C346.89,202.34,349.14,200.48,351.29,197.37Z"/><path d="M368.65,204.07c-2.84,2-4.71,4.19-6,3.91-1.75-.39-3.07-2.75-4.57-4.26,1.6-1.41,3.07-3.68,4.85-3.95C364.23,199.57,366,201.94,368.65,204.07Z"/><path d="M395.83,197.38c2.17,3.08,4.44,4.93,4.16,6.25a6.79,6.79,0,0,1-4.27,4.33c-1,.25-3.87-2.46-3.93-3.92C391.72,202.33,393.78,200.53,395.83,197.38Z"/><path d="M22.91,215.2c-2.83,2-4.69,4.21-6,3.93-1.75-.37-3.08-2.73-4.6-4.23,1.6-1.42,3.07-3.72,4.84-4C18.49,210.73,20.23,213.09,22.91,215.2Z"/><path d="M34.32,215.19c-3.18,2-5,4-6.72,3.94-1.46-.08-4.12-3-3.84-4a6.75,6.75,0,0,1,4.4-4.2C29.48,210.67,31.29,213,34.32,215.19Z"/><path d="M67.79,215c-3.14,2.07-4.92,4.14-6.63,4.09-1.46,0-4.19-2.89-3.94-3.9a6.77,6.77,0,0,1,4.29-4.31C62.83,210.64,64.69,212.89,67.79,215Z"/><path d="M72.66,208.54c2,3.2,4,5.05,3.89,6.76-.09,1.45-3,4.09-4,3.81a6.72,6.72,0,0,1-4.17-4.43C68.13,213.32,70.45,211.53,72.66,208.54Z"/><path d="M90.1,215c-3.08,2.17-4.93,4.44-6.25,4.17a6.78,6.78,0,0,1-4.33-4.28c-.25-1,2.47-3.89,3.91-3.93C85.18,210.88,87,212.94,90.1,215Z"/><path d="M88.26,215c3.13-2.08,4.91-4.17,6.62-4.12,1.46.05,2.84,2.54,4.26,4-1.5,1.51-2.82,3.87-4.57,4.25C93.25,219.42,91.37,217.17,88.26,215Z"/><path d="M105.75,221.51c-2-3.19-4-5-3.94-6.73.08-1.45,3-4.11,4-3.84a6.81,6.81,0,0,1,4.2,4.4C110.27,216.67,108,218.47,105.75,221.51Z"/><path d="M123.55,215.19c-3.19,2-5,4-6.73,3.94-1.45-.08-4.11-3-3.84-4a6.77,6.77,0,0,1,4.4-4.2C118.71,210.67,120.51,213,123.55,215.19Z"/><path d="M134.69,215.29c-3.21,2-5.08,4-6.79,3.84-1.45-.11-4.06-3.07-3.77-4.08a6.77,6.77,0,0,1,4.47-4.13C130,210.71,131.73,213,134.69,215.29Z"/><path d="M139.48,208.54c2,3.17,4.07,5,4,6.69-.07,1.46-2.95,4.14-4,3.88a6.73,6.73,0,0,1-4.24-4.35C135,213.38,137.31,211.56,139.48,208.54Z"/><path d="M157,215c-3.08,2.17-4.92,4.44-6.25,4.17a6.79,6.79,0,0,1-4.32-4.28c-.26-1,2.46-3.87,3.91-3.93C152.06,210.86,153.86,212.92,157,215Z"/><path d="M161.48,221.24c-1.95-2.83-4.2-4.7-3.91-6,.38-1.75,2.75-3.07,4.26-4.57,1.41,1.6,3.7,3.09,3.95,4.85C166,216.85,163.59,218.57,161.48,221.24Z"/><path d="M183.5,221.48c-1.84-3.28-3.79-5.21-3.61-6.92.15-1.44,3.21-3.95,4.22-3.62a6.79,6.79,0,0,1,4,4.62C188.26,216.9,185.86,218.59,183.5,221.48Z"/><path d="M194.93,221.24c-1.94-2.83-4.19-4.7-3.9-6,.38-1.75,2.74-3.07,4.26-4.57,1.41,1.6,3.7,3.09,4,4.85C199.43,216.85,197.05,218.57,194.93,221.24Z"/><path d="M228.11,221.48c-1.84-3.28-3.79-5.21-3.61-6.92.15-1.44,3.21-3.95,4.22-3.62a6.79,6.79,0,0,1,4,4.62C232.87,216.9,230.47,218.59,228.11,221.48Z"/><path d="M239.92,221.54c-2.16-3.09-4.29-4.82-4.27-6.53,0-1.46,2.46-2.91,3.84-4.37,1.54,1.47,4,2.74,4.36,4.46C244.16,216.47,242,218.4,239.92,221.54Z"/><path d="M250.84,208.53c2.17,3.08,4.44,4.93,4.17,6.26a6.84,6.84,0,0,1-4.28,4.32c-1,.26-3.87-2.46-3.93-3.91C246.73,213.48,248.8,211.69,250.84,208.53Z"/><path d="M284.35,208.53c2.08,3.13,4.16,4.9,4.11,6.61,0,1.46-2.54,2.85-3.95,4.27-1.51-1.5-3.87-2.82-4.26-4.57C280,213.51,282.21,211.64,284.35,208.53Z"/><path d="M302,215c-3.13,2.08-4.91,4.17-6.62,4.12-1.46,0-2.84-2.54-4.26-4,1.5-1.51,2.82-3.87,4.57-4.25C297,210.63,298.9,212.88,302,215Z"/><path d="M312.89,215.2c-2.83,2-4.69,4.21-6,3.93-1.76-.37-3.09-2.73-4.6-4.23,1.6-1.42,3.07-3.72,4.83-4C308.47,210.73,310.2,213.09,312.89,215.2Z"/><path d="M351.53,208.81c1.92,2.85,4.15,4.74,3.85,6.06-.39,1.75-2.77,3-4.29,4.54-1.4-1.62-3.67-3.12-3.91-4.89C347,213.16,349.39,211.46,351.53,208.81Z"/><path d="M391.23,215.09c-3.16,2-5,4.11-6.67,4-1.45-.06-4.16-2.93-3.91-3.94a6.79,6.79,0,0,1,4.33-4.27C386.3,210.65,388.15,212.92,391.23,215.09Z"/><path d="M49.88,232.65c-1.94-3.21-4-5.08-3.83-6.79.1-1.44,3.06-4.06,4.07-3.77a6.78,6.78,0,0,1,4.13,4.48C54.48,227.9,52.15,229.67,49.88,232.65Z"/><path d="M67.81,226.07c-3.11,2.13-4.85,4.24-6.56,4.21-1.47,0-2.89-2.49-4.33-3.88,1.48-1.54,2.76-3.92,4.5-4.33C62.74,221.76,64.65,224,67.81,226.07Z"/><path d="M90.1,226.24c-3.16,2-5,4.11-6.67,4-1.45-.06-4.16-2.92-3.91-3.93a6.72,6.72,0,0,1,4.33-4.27C85.22,221.82,87.06,224.1,90.1,226.24Z"/><path d="M134.69,226.45c-3.21,1.94-5.08,4-6.79,3.83-1.45-.1-4.06-3.06-3.77-4.07a6.74,6.74,0,0,1,4.47-4.13C130,221.86,131.73,224.2,134.69,226.45Z"/><path d="M145.59,226.35c-2.82,2-4.69,4.22-6,3.94-1.75-.38-3.08-2.73-4.59-4.24,1.59-1.42,3.06-3.7,4.83-4C141.15,221.87,142.89,224.23,145.59,226.35Z"/><path d="M157,226.2c-3.14,2.06-4.93,4.14-6.64,4.08-1.45-.05-4.19-2.88-3.94-3.9a6.79,6.79,0,0,1,4.29-4.31C152.06,221.79,153.92,224.05,157,226.2Z"/><path d="M194.87,232.65c-1.94-3.21-4-5.08-3.83-6.79.1-1.44,3.06-4.06,4.07-3.77a6.77,6.77,0,0,1,4.13,4.47C199.45,227.92,197.12,229.69,194.87,232.65Z"/><path d="M206.12,232.66c-2-3.18-4-5-3.93-6.73.08-1.45,3-4.11,4-3.84a6.78,6.78,0,0,1,4.2,4.41C210.64,227.82,208.34,229.63,206.12,232.66Z"/><path d="M239.26,232.63c-1.83-3.27-3.79-5.21-3.61-6.92.16-1.44,3.21-4,4.22-3.62a6.76,6.76,0,0,1,4,4.62C244,228.07,241.61,229.76,239.26,232.63Z"/><path d="M251,232.68c-2.09-3.12-4.19-4.88-4.15-6.59,0-1.46,2.52-2.86,3.92-4.29,1.52,1.49,3.89,2.79,4.29,4.54C255.3,227.66,253.07,229.55,251,232.68Z"/><path d="M273.46,220c1.92,2.85,4.15,4.75,3.85,6.07-.39,1.74-2.77,3-4.29,4.53-1.4-1.61-3.67-3.11-3.91-4.88C268.93,224.32,271.32,222.62,273.46,220Z"/><path d="M295.72,219.7c2,3.2,4,5.05,3.89,6.76-.09,1.45-3,4.09-4,3.81a6.81,6.81,0,0,1-4.17-4.43C291.17,224.51,293.48,222.72,295.72,219.7Z"/><path d="M313.12,226.73c-3.3,1.8-5.25,3.74-7,3.54-1.44-.16-3.92-3.25-3.58-4.25a6.77,6.77,0,0,1,4.66-3.93C308.58,221.92,310.24,224.34,313.12,226.73Z"/><path d="M317.75,232.67c-2-3.15-4.1-4.95-4-6.66.06-1.46,2.92-4.17,3.93-3.91a6.75,6.75,0,0,1,4.27,4.32C322.19,227.75,319.93,229.59,317.75,232.67Z"/><path d="M346.34,226.43c-2.85,1.92-4.74,4.16-6.06,3.86-1.75-.4-3-2.77-4.54-4.3,1.62-1.4,3.11-3.65,4.89-3.91C342,221.89,343.67,224.28,346.34,226.43Z"/><path d="M373.57,219.68c2.08,3.13,4.16,4.91,4.11,6.62,0,1.46-2.54,2.85-3.95,4.26-1.51-1.5-3.87-2.82-4.25-4.57C369.19,224.67,371.43,222.8,373.57,219.68Z"/><path d="M384.25,232.63c-1.84-3.27-3.79-5.21-3.61-6.92.15-1.44,3.21-4,4.22-3.62a6.78,6.78,0,0,1,4,4.62C389,228.07,386.6,229.76,384.25,232.63Z"/><path d="M402.36,226.45c-3.21,1.94-5.08,4-6.79,3.83-1.45-.1-4.06-3.06-3.77-4.07a6.78,6.78,0,0,1,4.48-4.13C397.6,221.85,399.37,224.18,402.36,226.45Z"/><path d="M11.75,237.58c-2.85,1.93-4.74,4.16-6.06,3.86-1.75-.39-3.05-2.77-4.54-4.29,1.62-1.4,3.11-3.66,4.89-3.91C7.38,233.05,9.08,235.43,11.75,237.58Z"/><path d="M78.67,237.58c-2.85,1.93-4.74,4.16-6.06,3.86-1.75-.39-3-2.77-4.54-4.29,1.62-1.4,3.11-3.66,4.89-3.91C74.29,233.05,76,235.43,78.67,237.58Z"/><path d="M90.08,237.6c-3.22,2-5.08,4-6.79,3.84-1.45-.11-4.06-3.07-3.77-4.08A6.79,6.79,0,0,1,84,233.23C85.32,233,87.09,235.34,90.08,237.6Z"/><path d="M94.81,243.84c-2.1-3.12-4.19-4.88-4.15-6.59,0-1.46,2.52-2.87,3.92-4.3,1.52,1.49,3.89,2.8,4.29,4.54C99.16,238.81,96.93,240.7,94.81,243.84Z"/><path d="M112.39,237.5c-3.18,2-5,4-6.72,3.94-1.46-.09-4.12-3-3.84-4a6.75,6.75,0,0,1,4.4-4.2C107.55,233,109.36,235.28,112.39,237.5Z"/><path d="M116.86,243.55c-1.94-2.83-4.19-4.7-3.9-6,.38-1.75,2.74-3.07,4.26-4.57,1.41,1.6,3.69,3.09,3.94,4.85C121.36,239.16,119,240.88,116.86,243.55Z"/><path d="M134.72,237.23c-3.1,2.12-4.85,4.23-6.56,4.21-1.46,0-2.88-2.5-4.33-3.89,1.48-1.53,2.77-3.91,4.51-4.32C129.66,232.92,131.57,235.14,134.72,237.23Z"/><path d="M139.42,243.84c-2.09-3.12-4.19-4.88-4.15-6.59,0-1.46,2.52-2.87,3.92-4.3,1.52,1.49,3.89,2.8,4.29,4.54C143.77,238.81,141.54,240.7,139.42,243.84Z"/><path d="M179.32,237.27c-3.08,2.17-4.93,4.44-6.25,4.17a6.75,6.75,0,0,1-4.32-4.28c-.26-1,2.45-3.87,3.91-3.93C174.37,233.17,176.17,235.23,179.32,237.27Z"/><path d="M183.82,243.82c-2-3.19-4-5-3.94-6.73.08-1.45,3-4.11,4-3.84a6.81,6.81,0,0,1,4.2,4.4C188.34,239,186,240.78,183.82,243.82Z"/><path d="M212.8,237.17c-3.09,2.15-4.81,4.28-6.53,4.27-1.46,0-2.91-2.47-4.37-3.84,1.47-1.55,2.73-3.95,4.47-4.37C207.69,232.91,209.62,235.1,212.8,237.17Z"/><path d="M217.61,243.85c-2.16-3.09-4.28-4.82-4.27-6.53,0-1.46,2.47-2.91,3.84-4.37,1.55,1.47,3.94,2.73,4.37,4.47C221.87,238.74,219.68,240.67,217.61,243.85Z"/><path d="M239.74,230.84c2.07,3.13,4.16,4.9,4.11,6.61,0,1.46-2.54,2.85-3.95,4.27-1.51-1.5-3.88-2.82-4.26-4.57C235.35,235.82,237.6,234,239.74,230.84Z"/><path d="M251.15,231.12c1.92,2.85,4.16,4.74,3.86,6.06-.4,1.75-2.77,3-4.3,4.54-1.39-1.62-3.67-3.12-3.91-4.89C246.62,235.47,249,233.77,251.15,231.12Z"/><path d="M268.55,237.28c-3.11,2.1-4.87,4.2-6.59,4.16-1.46,0-2.86-2.52-4.29-3.92,1.49-1.52,2.79-3.9,4.54-4.29C263.53,232.93,265.42,235.16,268.55,237.28Z"/><path d="M266.71,237.35c3.13-2.08,4.9-4.17,6.62-4.12,1.45.05,2.84,2.54,4.26,4-1.5,1.51-2.82,3.87-4.57,4.25C271.7,241.73,269.82,239.48,266.71,237.35Z"/><path d="M335.19,237.58c-2.85,1.93-4.75,4.16-6.07,3.86-1.74-.39-3-2.77-4.53-4.29,1.61-1.4,3.11-3.66,4.89-3.91C330.81,233.05,332.52,235.43,335.19,237.58Z"/><path d="M339.64,243.79c-1.84-3.28-3.79-5.21-3.61-6.92.15-1.44,3.21-4,4.22-3.62a6.76,6.76,0,0,1,4,4.62C344.39,239.23,342,240.91,339.64,243.79Z"/><path d="M357.78,237.23c-3.1,2.12-4.85,4.23-6.56,4.21-1.46,0-2.89-2.5-4.33-3.89,1.48-1.53,2.77-3.91,4.51-4.32C352.72,232.92,354.63,235.14,357.78,237.23Z"/><path d="M380.08,237.35c-3.14,2.07-4.93,4.14-6.64,4.09-1.46-.05-4.19-2.89-3.94-3.9a6.73,6.73,0,0,1,4.29-4.31C375.16,233,377,235.23,380.08,237.35Z"/><path d="M395.88,230.84c2.07,3.13,4.16,4.9,4.11,6.61,0,1.46-2.54,2.85-3.95,4.27-1.51-1.5-3.87-2.82-4.26-4.57C391.49,235.82,393.74,234,395.88,230.84Z"/><path d="M413.26,237.54c-2.83,1.94-4.71,4.19-6,3.9-1.75-.38-3.07-2.74-4.57-4.26,1.6-1.41,3.08-3.68,4.85-4C408.85,233,410.57,235.4,413.26,237.54Z"/><path d="M5.79,242.27c1.92,2.85,4.15,4.75,3.85,6.07-.39,1.74-2.77,3-4.29,4.53C4,251.26,1.69,249.76,1.44,248,1.25,246.65,3.63,245,5.79,242.27Z"/><path d="M23.18,248.51c-3.14,2.06-4.92,4.14-6.63,4.08-1.46-.05-4.19-2.89-4-3.9a6.73,6.73,0,0,1,4.29-4.3C18.27,244.12,20.13,246.39,23.18,248.51Z"/><path d="M56.64,248.43c-3.08,2.17-4.93,4.44-6.25,4.17a6.83,6.83,0,0,1-4.33-4.28c-.25-1,2.48-3.89,3.91-3.93C51.72,244.34,53.52,246.41,56.64,248.43Z"/><path d="M83.12,254.94c-1.83-3.27-3.79-5.21-3.61-6.92.16-1.44,3.21-4,4.22-3.62a6.78,6.78,0,0,1,4,4.63C87.88,250.36,85.48,252.05,83.12,254.94Z"/><path d="M105.9,242c2.08,3.13,4.16,4.91,4.11,6.62,0,1.46-2.54,2.85-4,4.26-1.51-1.5-3.91-2.83-4.25-4.56C101.54,246.93,103.79,245.06,105.9,242Z"/><path d="M134.72,248.44c-3.12,2.1-4.88,4.19-6.59,4.15-1.46,0-2.87-2.52-4.3-3.92,1.5-1.52,2.8-3.89,4.55-4.29C129.7,244.09,131.59,246.32,134.72,248.44Z"/><path d="M145.86,248.43c-3.08,2.17-4.93,4.44-6.25,4.17a6.81,6.81,0,0,1-4.32-4.28c-.26-1,2.45-3.87,3.91-3.93C140.91,244.32,142.71,246.39,145.86,248.43Z"/><path d="M261.79,255c-2-3.21-4-5.08-3.84-6.79.11-1.44,3.06-4.06,4.08-3.77a6.81,6.81,0,0,1,4.13,4.48C266.38,250.21,264.05,252,261.79,255Z"/><path d="M295.72,242c2,3.2,4,5.05,3.89,6.76-.09,1.45-3,4.09-4,3.81a6.81,6.81,0,0,1-4.17-4.43C291.17,246.82,293.48,245,295.72,242Z"/><path d="M312.88,248.69c-2.83,1.95-4.7,4.19-6,3.91-1.75-.39-3.06-2.75-4.57-4.26,1.61-1.41,3.08-3.68,4.86-4C308.47,244.19,310.19,246.56,312.88,248.69Z"/><path d="M368.65,248.66c-2.83,2-4.69,4.22-6,3.94-1.75-.38-3.08-2.73-4.59-4.24,1.59-1.42,3.06-3.71,4.83-4C364.24,244.19,366,246.56,368.65,248.66Z"/><path d="M380,249c-3.29,1.8-5.25,3.74-6.95,3.54-1.44-.17-3.92-3.25-3.59-4.25a6.78,6.78,0,0,1,4.67-3.93C375.5,244.23,377.16,246.65,380,249Z"/><path d="M407,242c2.17,3.08,4.44,4.93,4.17,6.25a6.79,6.79,0,0,1-4.28,4.32c-1,.26-3.87-2.45-3.93-3.91C402.87,247,404.94,245.15,407,242Z"/><path d="M23.19,259.59c-3.12,2.1-4.88,4.2-6.59,4.16-1.46,0-2.87-2.52-4.3-3.92,1.5-1.53,2.8-3.9,4.55-4.29C18.17,255.24,20.06,257.47,23.19,259.59Z"/><path d="M49.88,266.12c-1.94-3.22-4-5.08-3.83-6.79.1-1.45,3.06-4.06,4.07-3.77A6.77,6.77,0,0,1,54.25,260C54.48,261.36,52.15,263.13,49.88,266.12Z"/><path d="M61.47,266.16c-2.16-3.09-4.28-4.82-4.27-6.53,0-1.46,2.46-2.91,3.84-4.37,1.55,1.47,4,2.74,4.36,4.46C65.71,261.09,63.5,263,61.47,266.16Z"/><path d="M72.51,266.15c-2.1-3.12-4.2-4.88-4.16-6.59,0-1.46,2.52-2.87,3.92-4.3,1.52,1.49,3.89,2.8,4.29,4.54C76.86,261.12,74.62,263,72.51,266.15Z"/><path d="M95,253.43c1.92,2.85,4.15,4.74,3.86,6.06-.4,1.75-2.77,3.05-4.3,4.54-1.4-1.62-3.66-3.11-3.91-4.89C90.47,257.8,92.86,256.1,95,253.43Z"/><path d="M150.58,266.15c-2.1-3.12-4.2-4.88-4.16-6.59,0-1.46,2.52-2.87,3.92-4.3,1.52,1.49,3.9,2.8,4.29,4.54C154.93,261.12,152.69,263,150.58,266.15Z"/><path d="M268.54,259.81c-3.19,2-5,4-6.73,3.94-1.45-.09-4.11-3-3.84-4a6.77,6.77,0,0,1,4.4-4.2C263.7,255.29,265.5,257.59,268.54,259.81Z"/><path d="M290.58,259.89c-2.85,1.93-4.75,4.16-6.07,3.86-1.74-.39-3-2.77-4.53-4.29,1.61-1.4,3.1-3.66,4.88-3.91C286.2,255.36,287.9,257.74,290.58,259.89Z"/><path d="M301.73,259.82c-2.82,2-4.69,4.21-6,3.93-1.75-.37-3.08-2.73-4.59-4.23,1.6-1.42,3.06-3.72,4.83-4C297.32,255.35,299.05,257.71,301.73,259.82Z"/><path d="M306.72,266.15c-2.1-3.12-4.2-4.88-4.16-6.59,0-1.46,2.52-2.87,3.92-4.3,1.52,1.49,3.9,2.8,4.29,4.54C311.07,261.12,308.84,263,306.72,266.15Z"/><path d="M317.76,253.15c2.17,3.08,4.44,4.93,4.16,6.25a6.79,6.79,0,0,1-4.27,4.33c-1,.26-3.87-2.46-3.93-3.91C313.65,258.1,315.71,256.31,317.76,253.15Z"/><path d="M346.6,259.91c-3.22,1.95-5.08,4-6.79,3.84-1.45-.11-4.06-3.07-3.77-4.08a6.79,6.79,0,0,1,4.47-4.13C341.84,255.31,343.61,257.65,346.6,259.91Z"/><path d="M351.49,253.16c2,3.2,4,5,3.89,6.76-.09,1.45-3,4.09-4,3.81a6.77,6.77,0,0,1-4.17-4.43C346.93,258,349.25,256.18,351.49,253.16Z"/><path d="M368.93,259.59c-3.12,2.1-4.88,4.2-6.59,4.16-1.46,0-2.86-2.52-4.29-3.92,1.49-1.53,2.79-3.9,4.54-4.29C363.91,255.24,365.8,257.47,368.93,259.59Z"/><path d="M373.38,265.86c-1.94-2.83-4.19-4.7-3.9-6,.38-1.75,2.74-3.07,4.25-4.57,1.41,1.6,3.69,3.08,3.95,4.86C377.89,261.45,375.51,263.17,373.38,265.86Z"/><path d="M391.23,259.63c-3.13,2.08-4.9,4.17-6.61,4.12-1.46-.05-2.85-2.54-4.27-4,1.51-1.51,2.82-3.87,4.57-4.25C386.25,255.25,388.12,257.5,391.23,259.63Z"/><path d="M413.26,259.89c-2.85,1.93-4.74,4.16-6.06,3.86-1.75-.39-3.05-2.77-4.54-4.29,1.61-1.4,3.11-3.66,4.89-3.91C408.88,255.36,410.59,257.74,413.26,259.89Z"/><path d="M12,271.35c-3.3,1.8-5.25,3.74-7,3.54-1.44-.17-3.92-3.25-3.58-4.25a6.74,6.74,0,0,1,4.66-3.93C7.47,266.55,9.13,269,12,271.35Z"/><path d="M16.9,264.32c2,3.2,4,5,3.89,6.76-.09,1.45-3,4.09-4,3.81a6.81,6.81,0,0,1-4.17-4.43C12.34,269.13,14.66,267.34,16.9,264.32Z"/><path d="M45.48,270.91c-3.17,2-5,4.07-6.69,4-1.46-.07-4.14-2.95-3.88-4a6.81,6.81,0,0,1,4.36-4.25C40.59,266.43,42.42,268.72,45.48,270.91Z"/><path d="M50,277c-2-2.84-4.2-4.71-3.91-6,.38-1.75,2.75-3.07,4.26-4.58,1.41,1.61,3.68,3.08,4,4.86C54.45,272.6,52.08,274.33,50,277Z"/><path d="M90.12,270.63c-3.09,2.16-4.82,4.28-6.53,4.27-1.46,0-2.91-2.46-4.37-3.84,1.47-1.55,2.73-3.94,4.47-4.37C85,266.37,86.94,268.57,90.12,270.63Z"/><path d="M101.24,271c-3.2,2-5,4-6.76,3.89-1.45-.09-4.09-3-3.81-4a6.74,6.74,0,0,1,4.43-4.17C96.47,266.47,98.26,268.79,101.24,271Z"/><path d="M106,277.3c-2.1-3.12-4.2-4.88-4.16-6.59,0-1.46,2.52-2.87,3.92-4.3,1.52,1.5,3.89,2.8,4.29,4.55C110.32,272.28,108.08,274.17,106,277.3Z"/><path d="M123.55,271c-3.19,2-5,4-6.73,3.93-1.45-.08-4.11-3-3.84-4a6.8,6.8,0,0,1,4.4-4.21C118.71,266.44,120.51,268.75,123.55,271Z"/><path d="M134.72,270.75c-3.12,2.09-4.88,4.19-6.59,4.15-1.46,0-2.87-2.52-4.3-3.92,1.5-1.52,2.8-3.89,4.55-4.29C129.7,266.4,131.59,268.63,134.72,270.75Z"/><path d="M145.87,270.79c-3.13,2.08-4.91,4.16-6.62,4.11-1.46,0-2.84-2.54-4.26-3.95,1.5-1.51,2.83-3.91,4.56-4.25C140.93,266.43,142.8,268.68,145.87,270.79Z"/><path d="M284.41,277.3c-2.1-3.12-4.19-4.88-4.15-6.59,0-1.46,2.52-2.87,3.92-4.3,1.52,1.5,3.89,2.8,4.29,4.55C288.76,272.28,286.53,274.17,284.41,277.3Z"/><path d="M324.27,271.35c-3.3,1.8-5.25,3.74-7,3.54-1.44-.17-3.92-3.25-3.58-4.25a6.77,6.77,0,0,1,4.66-3.93C319.73,266.54,321.4,269,324.27,271.35Z"/><path d="M335.19,271.05c-2.85,1.92-4.75,4.16-6.07,3.86-1.74-.4-3-2.77-4.53-4.3,1.61-1.4,3.11-3.65,4.89-3.91C330.81,266.51,332.52,268.9,335.19,271.05Z"/><path d="M346.61,271c-3.19,2-5,4-6.73,3.93-1.45-.08-4.11-3-3.84-4a6.8,6.8,0,0,1,4.4-4.21C341.77,266.44,343.57,268.75,346.61,271Z"/><path d="M351.21,277.29c-2-3.15-4.1-5-4-6.67.06-1.45,2.92-4.16,3.93-3.91a6.81,6.81,0,0,1,4.27,4.33C355.65,272.37,353.38,274.21,351.21,277.29Z"/><path d="M368.93,270.75c-3.12,2.09-4.88,4.19-6.59,4.15-1.46,0-2.86-2.52-4.29-3.92,1.49-1.52,2.79-3.89,4.54-4.29C363.91,266.4,365.8,268.63,368.93,270.75Z"/><path d="M384.25,277.25c-1.84-3.27-3.79-5.21-3.61-6.92.15-1.44,3.21-3.95,4.22-3.62a6.78,6.78,0,0,1,4,4.62C389,272.69,386.6,274.38,384.25,277.25Z"/><path d="M402.11,271c-2.83,2-4.69,4.22-6,3.94-1.75-.38-3.08-2.73-4.6-4.24,1.6-1.42,3.07-3.71,4.84-4C397.69,266.5,399.43,268.87,402.11,271Z"/><path d="M407,264.31c2.17,3.08,4.44,4.93,4.17,6.25a6.79,6.79,0,0,1-4.28,4.32c-1,.26-3.87-2.45-3.93-3.91C402.87,269.26,404.94,267.46,407,264.31Z"/><path d="M27.64,288.17c-1.95-2.83-4.19-4.7-3.9-6,.38-1.75,2.74-3.07,4.25-4.57,1.41,1.6,3.7,3.09,4,4.85C32.13,283.78,29.76,285.5,27.64,288.17Z"/><path d="M32.5,282c3.13-2.08,4.9-4.17,6.61-4.12,1.46,0,2.85,2.54,4.27,4-1.51,1.51-2.82,3.87-4.57,4.25C37.48,286.35,35.61,284.1,32.5,282Z"/><path d="M60.81,288.41c-1.83-3.28-3.78-5.21-3.6-6.92.15-1.44,3.21-3.95,4.21-3.62a6.8,6.8,0,0,1,4,4.62C65.58,283.83,63.18,285.52,60.81,288.41Z"/><path d="M79,281.94c-3.13,2.08-4.91,4.17-6.62,4.12-1.46-.05-2.84-2.54-4.26-4,1.5-1.51,2.82-3.87,4.57-4.25C74,277.56,75.84,279.81,79,281.94Z"/><path d="M83.59,275.46c2.08,3.13,4.17,4.9,4.12,6.61,0,1.46-2.54,2.85-3.95,4.27-1.52-1.5-3.92-2.83-4.26-4.57C79.24,280.4,81.49,278.52,83.59,275.46Z"/><path d="M94.93,288.47c-2.16-3.09-4.28-4.82-4.27-6.53,0-1.46,2.46-2.91,3.84-4.37,1.55,1.47,3.94,2.73,4.37,4.47C99.19,283.36,97,285.29,94.93,288.47Z"/><path d="M105.9,275.46c2.08,3.13,4.16,4.9,4.11,6.61,0,1.46-2.54,2.85-4,4.27-1.51-1.5-3.91-2.83-4.25-4.57C101.54,280.4,103.79,278.52,105.9,275.46Z"/><path d="M117,275.45c2.12,3.1,4.23,4.85,4.21,6.56,0,1.46-2.5,2.89-3.89,4.33-1.53-1.48-3.91-2.76-4.32-4.51C112.65,280.51,114.87,278.6,117,275.45Z"/><path d="M134.44,282.2c-2.86,1.93-4.75,4.16-6.07,3.86-1.75-.39-3-2.77-4.54-4.29,1.62-1.4,3.11-3.66,4.89-3.91C130.06,277.67,131.76,280.05,134.44,282.2Z"/><path d="M145.84,282.22c-3.21,1.95-5.07,4-6.79,3.84C137.61,286,135,283,135.28,282a6.77,6.77,0,0,1,4.47-4.13C141.11,277.64,142.88,280,145.84,282.22Z"/><path d="M150.69,288.47c-2.15-3.09-4.28-4.82-4.27-6.53,0-1.46,2.47-2.91,3.84-4.37,1.55,1.47,4,2.73,4.37,4.47C155,283.36,152.76,285.29,150.69,288.47Z"/><path d="M284.29,288.45c-2-3.16-4.1-5-4-6.67.06-1.46,2.92-4.17,3.93-3.91a6.77,6.77,0,0,1,4.27,4.33C288.74,283.52,286.47,285.37,284.29,288.45Z"/><path d="M328.48,288.41c-1.83-3.28-3.78-5.21-3.6-6.92.15-1.44,3.21-3.95,4.22-3.62a6.72,6.72,0,0,1,4,4.62C333.24,283.85,330.83,285.53,328.48,288.41Z"/><path d="M351.39,275.47c2,3.17,4.07,5,4,6.69-.07,1.45-2.95,4.14-4,3.88a6.79,6.79,0,0,1-4.24-4.36C346.91,280.35,349.19,278.53,351.39,275.47Z"/><path d="M368.65,282.16c-2.84,1.94-4.71,4.19-6,3.9-1.75-.38-3.07-2.74-4.57-4.26,1.6-1.41,3.07-3.68,4.85-3.95C364.23,277.65,366,280,368.65,282.16Z"/><path d="M380.07,282c-3.15,2-4.95,4.11-6.66,4-1.46-.06-4.17-2.93-3.91-3.94a6.77,6.77,0,0,1,4.33-4.27C375.15,277.58,377,279.85,380.07,282Z"/><path d="M391.21,282.22c-3.22,1.95-5.08,4-6.79,3.84C383,286,380.36,283,380.65,282a6.79,6.79,0,0,1,4.47-4.13C386.45,277.62,388.22,280,391.21,282.22Z"/><path d="M389.39,282c3.13-2.08,4.91-4.17,6.62-4.12,1.46,0,2.84,2.54,4.26,4-1.5,1.51-2.82,3.87-4.57,4.25C394.38,286.35,392.5,284.1,389.39,282Z"/><path d="M17.24,286.66c1.8,3.29,3.73,5.25,3.54,7-.17,1.44-3.25,3.92-4.26,3.58a6.79,6.79,0,0,1-3.92-4.67C12.43,291.19,14.84,289.53,17.24,286.66Z"/><path d="M27.89,299.61c-2.09-3.12-4.19-4.88-4.15-6.59,0-1.46,2.52-2.87,3.92-4.3,1.52,1.5,3.89,2.8,4.29,4.55C32.24,294.59,30,296.48,27.89,299.61Z"/><path d="M84.15,286.66c1.81,3.29,3.74,5.25,3.55,7-.17,1.44-3.25,3.92-4.26,3.58a6.83,6.83,0,0,1-3.93-4.67C79.35,291.19,81.76,289.53,84.15,286.66Z"/><path d="M112.42,293c-3.11,2.13-4.85,4.24-6.56,4.21-1.47,0-2.89-2.49-4.33-3.88,1.48-1.54,2.76-3.92,4.51-4.33C107.35,288.69,109.26,290.91,112.42,293Z"/><path d="M279.68,293.38c-3.22,1.94-5.08,3.95-6.79,3.83-1.45-.1-4.06-3.06-3.77-4.07a6.77,6.77,0,0,1,4.47-4.13C274.92,288.78,276.69,291.11,279.68,293.38Z"/><path d="M302,293c-3.11,2.13-4.85,4.24-6.56,4.21-1.47,0-2.89-2.49-4.33-3.88,1.48-1.54,2.76-3.92,4.51-4.33C297,288.69,298.86,290.91,302,293Z"/><path d="M324.27,293.66c-3.3,1.8-5.25,3.74-7,3.54-1.44-.17-3.92-3.25-3.58-4.25a6.77,6.77,0,0,1,4.66-3.93C319.73,288.85,321.4,291.27,324.27,293.66Z"/><path d="M340.11,286.61c2.08,3.13,4.16,4.91,4.12,6.62-.05,1.46-2.54,2.85-4,4.26-1.51-1.5-3.87-2.82-4.25-4.57C335.73,291.6,338,289.72,340.11,286.61Z"/><path d="M373.64,299.61c-2.1-3.12-4.2-4.88-4.16-6.59,0-1.46,2.52-2.87,3.92-4.3,1.52,1.5,3.89,2.8,4.29,4.55C378,294.59,375.75,296.48,373.64,299.61Z"/><path d="M385.28,286.66c1.81,3.29,3.74,5.25,3.55,7-.17,1.44-3.25,3.92-4.26,3.58a6.83,6.83,0,0,1-3.93-4.67C380.48,291.19,382.89,289.53,385.28,286.66Z"/><path d="M395.78,286.6c2.13,3.11,4.24,4.85,4.21,6.56,0,1.47-2.49,2.89-3.88,4.33-1.54-1.48-3.92-2.76-4.33-4.5C391.47,291.67,393.69,289.76,395.78,286.6Z"/><path d="M6.08,297.81c1.81,3.3,3.74,5.25,3.54,7-.16,1.44-3.24,3.92-4.25,3.59a6.81,6.81,0,0,1-3.93-4.67C1.28,302.35,3.69,300.69,6.08,297.81Z"/><path d="M45.47,304.53c-3.22,2-5.08,4-6.79,3.84-1.45-.11-4.06-3.07-3.77-4.08a6.79,6.79,0,0,1,4.47-4.13C40.71,299.93,42.48,302.27,45.47,304.53Z"/><path d="M78.93,304.47c-3.2,2-5,4-6.75,3.9-1.45-.1-4.09-3-3.81-4a6.77,6.77,0,0,1,4.43-4.17C74.13,299.92,75.92,302.23,78.93,304.47Z"/><path d="M101.25,304.37c-3.17,2-5,4.08-6.7,4-1.45-.07-4.14-3-3.88-4A6.74,6.74,0,0,1,95,300.16C96.4,299.92,98.23,302.21,101.25,304.37Z"/><path d="M105.75,310.75c-2-3.19-4-5-3.94-6.73.08-1.45,3-4.11,4-3.84a6.81,6.81,0,0,1,4.2,4.4C110.27,305.91,108,307.71,105.75,310.75Z"/><path d="M116.58,310.72c-1.84-3.28-3.79-5.21-3.61-6.92.15-1.44,3.21-3.95,4.22-3.63a6.82,6.82,0,0,1,4,4.63C121.34,306.14,118.94,307.83,116.58,310.72Z"/><path d="M134.7,304.47c-3.2,2-5,4-6.76,3.9-1.45-.1-4.09-3-3.81-4a6.74,6.74,0,0,1,4.43-4.17C129.93,299.94,131.71,302.26,134.7,304.47Z"/><path d="M138.88,310.72c-1.83-3.28-3.78-5.21-3.6-6.92.15-1.44,3.21-3.95,4.22-3.63a6.85,6.85,0,0,1,4,4.63C143.65,306.14,141.25,307.83,138.88,310.72Z"/><path d="M150.63,297.78c2,3.17,4.08,5,4,6.69-.06,1.45-3,4.14-4,3.88a6.73,6.73,0,0,1-4.24-4.35C146.18,302.62,148.47,300.8,150.63,297.78Z"/><path d="M261.89,310.75c-2-3.19-4-5-3.94-6.73.08-1.45,3-4.11,4-3.84a6.79,6.79,0,0,1,4.2,4.4C266.41,305.91,264.11,307.71,261.89,310.75Z"/><path d="M279.7,304.33c-3.16,2-5,4.11-6.67,4-1.45-.06-4.16-2.93-3.91-3.94a6.79,6.79,0,0,1,4.33-4.27C274.77,299.89,276.62,302.16,279.7,304.33Z"/><path d="M301.73,304.51c-2.85,1.93-4.74,4.16-6.06,3.86-1.75-.39-3.05-2.77-4.54-4.29,1.61-1.4,3.11-3.66,4.89-3.91C297.35,300,299.06,302.36,301.73,304.51Z"/><path d="M317.87,310.77c-2.1-3.12-4.19-4.88-4.15-6.59,0-1.47,2.52-2.87,3.92-4.3,1.52,1.49,3.89,2.8,4.28,4.54C322.22,305.74,320,307.63,317.87,310.77Z"/><path d="M328.87,297.76c2.12,3.1,4.23,4.85,4.2,6.56,0,1.46-2.49,2.89-3.88,4.33-1.53-1.48-3.92-2.76-4.33-4.51C324.56,302.82,326.77,300.91,328.87,297.76Z"/><path d="M340.23,297.78c2,3.17,4.08,5,4,6.69-.06,1.45-3,4.14-4,3.88A6.79,6.79,0,0,1,336,304C335.76,302.66,338,300.84,340.23,297.78Z"/><path d="M361.94,310.72c-1.83-3.28-3.78-5.21-3.6-6.92.15-1.44,3.21-3.95,4.21-3.63a6.75,6.75,0,0,1,4,4.63C366.7,306.16,364.29,307.84,361.94,310.72Z"/><path d="M373.64,310.77c-2.1-3.12-4.2-4.88-4.16-6.59,0-1.47,2.52-2.87,3.92-4.3,1.52,1.49,3.89,2.8,4.29,4.54C378,305.74,375.75,307.63,373.64,310.77Z"/><path d="M12,315.48c-3.16,2-5,4.11-6.67,4-1.45-.06-4.16-2.92-3.91-3.93a6.78,6.78,0,0,1,4.33-4.28C7.1,311,9,313.31,12,315.48Z"/><path d="M23.14,316c-3.3,1.8-5.25,3.74-7,3.54-1.44-.17-3.92-3.25-3.58-4.25a6.76,6.76,0,0,1,4.66-3.93C18.62,311.17,20.28,313.59,23.14,316Z"/><path d="M45.21,315.67c-2.85,1.92-4.74,4.16-6.06,3.86-1.75-.4-3-2.77-4.54-4.3,1.62-1.4,3.11-3.66,4.89-3.91C40.83,311.13,42.54,313.52,45.21,315.67Z"/><path d="M123.54,315.69c-3.22,1.94-5.08,3.95-6.79,3.83-1.45-.1-4.06-3.06-3.77-4.07a6.74,6.74,0,0,1,4.47-4.13C118.81,311.1,120.57,313.44,123.54,315.69Z"/><path d="M150.26,321.89c-1.95-3.21-4-5.08-3.84-6.79.11-1.44,3.07-4.06,4.08-3.77a6.73,6.73,0,0,1,4.12,4.47C154.84,317.16,152.5,318.93,150.26,321.89Z"/><path d="M268.54,315.36c-3.08,2.17-4.92,4.44-6.25,4.17a6.84,6.84,0,0,1-4.32-4.28c-.26-1,2.47-3.89,3.91-3.93C263.62,311.27,265.42,313.34,268.54,315.36Z"/><path d="M295.45,308.93c2.17,3.08,4.44,4.93,4.17,6.25a6.75,6.75,0,0,1-4.28,4.32c-1,.26-3.87-2.45-3.93-3.91C291.34,313.88,293.41,312.08,295.45,308.93Z"/><path d="M357.73,316c-3.3,1.8-5.25,3.74-7,3.54-1.44-.17-3.92-3.25-3.58-4.25a6.77,6.77,0,0,1,4.66-3.93C353.19,311.16,354.86,313.58,357.73,316Z"/><path d="M362.45,308.92c2.06,3.15,4.14,4.93,4.08,6.64,0,1.46-2.89,4.19-3.9,3.94a6.79,6.79,0,0,1-4.31-4.29C358,313.89,360.3,312,362.45,308.92Z"/><path d="M389.39,315.43c3.13-2.08,4.91-4.16,6.62-4.11,1.46,0,2.84,2.54,4.26,3.95-1.5,1.51-2.82,3.87-4.57,4.26C394.38,319.81,392.5,317.57,389.39,315.43Z"/><path d="M16.58,320.07c2.13,3.1,4.24,4.85,4.21,6.56,0,1.46-2.49,2.89-3.88,4.33-1.54-1.48-3.92-2.76-4.33-4.51C12.27,325.13,14.49,323.22,16.58,320.07Z"/><path d="M34.3,327.06c-3.28,1.84-5.22,3.79-6.93,3.61-1.44-.15-3.94-3.21-3.62-4.22a6.8,6.8,0,0,1,4.63-4C29.71,322.3,31.4,324.7,34.3,327.06Z"/><path d="M61.85,320.12c1.8,3.3,3.74,5.25,3.54,7-.17,1.44-3.25,3.92-4.25,3.59A6.8,6.8,0,0,1,57.21,326C57,324.66,59.46,323,61.85,320.12Z"/><path d="M72.62,333.09c-2.16-3.09-4.28-4.82-4.27-6.53,0-1.46,2.47-2.91,3.84-4.37,1.55,1.47,4,2.74,4.37,4.46C76.86,328,74.66,330,72.62,333.09Z"/><path d="M123.54,326.78c-3.2,2-5,4-6.75,3.9-1.45-.1-4.09-3-3.81-4a6.72,6.72,0,0,1,4.43-4.17C118.77,322.25,120.56,324.57,123.54,326.78Z"/><path d="M128.05,333.06c-2-3.19-4-5-3.93-6.73.08-1.45,3-4.11,4-3.84a6.77,6.77,0,0,1,4.2,4.4C132.57,328.22,130.27,330,128.05,333.06Z"/><path d="M145.86,326.51c-3.08,2.17-4.93,4.44-6.25,4.17a6.77,6.77,0,0,1-4.32-4.28c-.26-1,2.45-3.87,3.91-3.93C140.91,322.4,142.71,324.47,145.86,326.51Z"/><path d="M301.73,326.78c-2.83,1.94-4.71,4.19-6,3.9-1.75-.38-3.07-2.74-4.57-4.26,1.6-1.41,3.08-3.68,4.85-3.95C297.32,322.27,299,324.64,301.73,326.78Z"/><path d="M306.72,333.08c-2.1-3.12-4.2-4.88-4.16-6.59,0-1.47,2.52-2.87,3.92-4.3,1.52,1.49,3.9,2.8,4.29,4.54C311.07,328.05,308.84,329.94,306.72,333.08Z"/><path d="M335.46,326.64c-3.15,2-4.95,4.11-6.66,4-1.46-.06-4.17-2.93-3.91-3.94a6.77,6.77,0,0,1,4.33-4.27C330.54,322.2,332.38,324.47,335.46,326.64Z"/><path d="M346.61,326.68c-3.17,2-5,4.08-6.69,4-1.46-.07-4.14-3-3.88-4a6.79,6.79,0,0,1,4.36-4.24C341.72,322.21,343.55,324.49,346.61,326.68Z"/><path d="M351,333.05c-1.94-3.22-4-5.08-3.83-6.79.1-1.45,3.06-4.06,4.07-3.77a6.77,6.77,0,0,1,4.13,4.47C355.61,328.29,353.28,330.06,351,333.05Z"/><path d="M50,344c-2-2.84-4.2-4.71-3.91-6,.38-1.75,2.75-3.07,4.26-4.58,1.41,1.61,3.7,3.09,4,4.86C54.44,339.56,52.06,341.28,50,344Z"/><path d="M61.51,331.25c2,3.2,4,5,3.89,6.76-.09,1.45-3,4.09-4,3.81a6.78,6.78,0,0,1-4.17-4.44C57,336.06,59.27,334.26,61.51,331.25Z"/><path d="M90.06,338.28c-3.3,1.8-5.25,3.74-7,3.54-1.44-.17-3.92-3.25-3.58-4.26a6.75,6.75,0,0,1,4.66-3.92C85.54,333.48,87.2,335.9,90.06,338.28Z"/><path d="M123.56,337.68c-3.11,2.09-4.87,4.19-6.58,4.15-1.46,0-2.87-2.52-4.3-3.92,1.49-1.52,2.8-3.89,4.54-4.29C118.54,333.33,120.43,335.56,123.56,337.68Z"/><path d="M139.36,331.23c2.08,3.13,4.16,4.91,4.11,6.62,0,1.46-2.54,2.85-3.95,4.26-1.51-1.5-3.87-2.82-4.25-4.57C135,336.22,137.22,334.34,139.36,331.23Z"/><path d="M262.22,344.25c-2.15-3.1-4.28-4.82-4.27-6.53,0-1.47,2.47-2.92,3.84-4.38,1.55,1.47,4,2.74,4.37,4.47C266.46,339.18,264.26,341.11,262.22,344.25Z"/><path d="M284.19,344.21c-2-3.18-4-5-3.93-6.73.08-1.45,3-4.11,4-3.84a6.74,6.74,0,0,1,4.2,4.4C288.69,339.41,286.39,341.21,284.19,344.21Z"/><path d="M302,337.9c-3.18,2-5,4-6.72,3.93-1.45-.08-4.12-3-3.84-4a6.71,6.71,0,0,1,4.39-4.2C297.19,333.39,299,335.7,302,337.9Z"/><path d="M306.18,344.18c-1.84-3.27-3.79-5.21-3.61-6.92.15-1.44,3.21-3.95,4.22-3.62a6.78,6.78,0,0,1,4,4.63C310.94,339.6,308.54,341.29,306.18,344.18Z"/><path d="M324,338c-2.86,1.92-4.75,4.16-6.07,3.86-1.75-.4-3-2.77-4.54-4.3,1.62-1.4,3.11-3.66,4.89-3.91C319.66,333.44,321.36,335.83,324,338Z"/><path d="M329.08,331.24c2,3.17,4.07,5,4,6.7-.07,1.45-2.95,4.14-4,3.87a6.75,6.75,0,0,1-4.24-4.35C324.6,336.13,326.89,334.3,329.08,331.24Z"/><path d="M357.76,337.9c-3.19,2-5,4-6.73,3.93-1.45-.08-4.11-3-3.84-4a6.72,6.72,0,0,1,4.4-4.2C353,333.39,354.76,335.7,357.76,337.9Z"/><path d="M368.65,337.93c-2.84,1.95-4.71,4.19-6,3.91-1.75-.39-3.07-2.75-4.57-4.26,1.6-1.41,3.07-3.68,4.85-3.95C364.23,333.43,366,335.8,368.65,337.93Z"/><path d="M402.11,338c-2.86,1.92-4.75,4.16-6.07,3.86-1.74-.4-3-2.77-4.54-4.3,1.62-1.4,3.11-3.66,4.89-3.91C397.73,333.44,399.43,335.83,402.11,338Z"/><path d="M413.51,338c-3.21,1.94-5.07,3.95-6.78,3.83-1.45-.1-4.06-3.06-3.77-4.07a6.77,6.77,0,0,1,4.47-4.13C408.76,333.4,410.53,335.73,413.51,338Z"/><path d="M5.65,342.4c2,3.17,4.07,5,4,6.69-.07,1.45-2.95,4.14-4,3.88a6.75,6.75,0,0,1-4.24-4.35C1.19,347.24,3.48,345.42,5.65,342.4Z"/><path d="M34.29,349.43c-3.29,1.81-5.25,3.74-7,3.54-1.44-.16-3.91-3.24-3.58-4.25a6.78,6.78,0,0,1,4.66-3.93C29.77,344.63,31.43,347.05,34.29,349.43Z"/><path d="M67.82,348.72C64.72,350.87,63,353,61.29,353c-1.47,0-2.92-2.47-4.37-3.84,1.46-1.55,2.72-3.95,4.46-4.37C62.7,344.45,64.63,346.65,67.82,348.72Z"/><path d="M78.94,349c-3.15,2-5,4.11-6.66,4-1.46-.06-4.17-2.93-3.91-3.94a6.71,6.71,0,0,1,4.32-4.27C74.07,344.53,75.91,346.81,78.94,349Z"/><path d="M105.9,342.39c2.08,3.13,4.16,4.9,4.11,6.61,0,1.46-2.54,2.85-4,4.27-1.51-1.51-3.87-2.82-4.25-4.57C101.52,347.37,103.76,345.5,105.9,342.39Z"/><path d="M117.23,355.4c-2.15-3.09-4.28-4.82-4.27-6.53,0-1.46,2.47-2.91,3.84-4.37,1.55,1.47,4,2.73,4.37,4.47C121.49,350.29,119.3,352.22,117.23,355.4Z"/><path d="M268.27,349.06c-2.82,2-4.68,4.21-6,3.93-1.75-.37-3.08-2.73-4.59-4.23,1.6-1.42,3.06-3.7,4.83-4C263.84,344.57,265.57,346.94,268.27,349.06Z"/><path d="M273.42,342.4c2,3.2,4,5.05,3.89,6.76-.09,1.45-3,4.09-4,3.81a6.77,6.77,0,0,1-4.17-4.43C268.86,347.21,271.18,345.42,273.42,342.4Z"/><path d="M306.78,342.4c2,3.17,4.07,5,4,6.69-.07,1.45-2.95,4.14-4,3.88a6.75,6.75,0,0,1-4.24-4.35C302.32,347.24,304.61,345.42,306.78,342.4Z"/><path d="M329,355.39c-2.09-3.12-4.19-4.88-4.15-6.59,0-1.47,2.52-2.87,3.92-4.3,1.52,1.49,3.89,2.8,4.29,4.54C333.37,350.36,331.14,352.25,329,355.39Z"/><path d="M351.33,355.39c-2.1-3.12-4.19-4.88-4.15-6.59,0-1.47,2.51-2.87,3.91-4.3,1.53,1.49,3.9,2.8,4.29,4.54C355.68,350.36,353.45,352.25,351.33,355.39Z"/><path d="M363,342.43c1.8,3.3,3.74,5.25,3.54,7-.17,1.44-3.25,3.92-4.25,3.58a6.77,6.77,0,0,1-3.93-4.66C358.17,347,360.59,345.31,363,342.43Z"/><path d="M380.06,349.15c-3.22,2-5.08,4-6.79,3.84-1.45-.11-4.06-3.07-3.77-4.08a6.77,6.77,0,0,1,4.47-4.13C375.3,344.55,377.07,346.89,380.06,349.15Z"/><path d="M384.47,355.36c-1.94-3.22-4-5.08-3.83-6.79.1-1.45,3.06-4.06,4.07-3.77a6.79,6.79,0,0,1,4.13,4.47C389.07,350.6,386.73,352.37,384.47,355.36Z"/><path d="M402.34,349.37c-3.27,1.84-5.21,3.79-6.92,3.61-1.44-.15-3.95-3.21-3.62-4.22a6.78,6.78,0,0,1,4.62-4C397.78,344.62,399.47,347,402.34,349.37Z"/><path d="M23.17,360.21c-3.19,2-5,4-6.73,3.93-1.45-.08-4.11-3-3.84-4a6.74,6.74,0,0,1,4.4-4.2C18.37,355.7,20.17,358,23.17,360.21Z"/><path d="M34.06,360.21c-2.82,2-4.69,4.22-6,3.94-1.75-.38-3.08-2.73-4.59-4.24,1.59-1.42,3.06-3.7,4.83-4C29.62,355.73,31.36,358.09,34.06,360.21Z"/><path d="M67.79,360.15c-3.17,2-5,4.07-6.7,4-1.45-.07-4.14-2.95-3.87-4a6.69,6.69,0,0,1,4.35-4.24C62.94,355.69,64.77,358,67.79,360.15Z"/><path d="M83.66,366.54c-2.1-3.12-4.19-4.88-4.16-6.59,0-1.46,2.52-2.87,3.92-4.3,1.53,1.5,3.9,2.8,4.29,4.55C88,361.52,85.78,363.41,83.66,366.54Z"/><path d="M139.54,366.56c-2.16-3.1-4.28-4.82-4.27-6.53,0-1.47,2.46-2.92,3.84-4.38,1.55,1.47,3.94,2.73,4.37,4.47C143.8,361.44,141.6,363.37,139.54,366.56Z"/><path d="M157,360.31c-3.22,1.94-5.08,3.95-6.79,3.83-1.45-.1-4.06-3.06-3.77-4.07a6.77,6.77,0,0,1,4.47-4.13C152.24,355.71,154,358,157,360.31Z"/><path d="M295.72,353.56c2,3.2,4,5,3.89,6.76-.09,1.45-3,4.09-4,3.81a6.81,6.81,0,0,1-4.17-4.44C291.17,358.37,293.48,356.57,295.72,353.56Z"/><path d="M306.6,353.55c2.17,3.08,4.44,4.93,4.17,6.25a6.75,6.75,0,0,1-4.28,4.32c-1,.26-3.87-2.45-3.93-3.91C302.5,358.5,304.56,356.7,306.6,353.55Z"/><path d="M357.77,360.06c-3.14,2.06-4.92,4.14-6.63,4.08-1.46-.05-4.19-2.89-3.95-3.9a6.81,6.81,0,0,1,4.3-4.31C352.81,355.65,354.67,357.91,357.77,360.06Z"/><path d="M368.88,360.59c-3.3,1.8-5.25,3.74-7,3.54-1.44-.17-3.92-3.25-3.58-4.26A6.8,6.8,0,0,1,363,356C364.34,355.78,366,358.2,368.88,360.59Z"/><path d="M391.22,360.15c-3.17,2-5,4.07-6.69,4-1.45-.07-4.14-2.95-3.88-4a6.7,6.7,0,0,1,4.36-4.24C386.38,355.69,388.2,358,391.22,360.15Z"/><path d="M16.63,364.7c2.17,3.08,4.44,4.93,4.16,6.25a6.79,6.79,0,0,1-4.27,4.33c-1,.25-3.87-2.46-3.93-3.91C12.52,369.65,14.58,367.86,16.63,364.7Z"/><path d="M27.57,377.67c-1.94-3.22-3.95-5.08-3.83-6.79.1-1.45,3.06-4.06,4.08-3.77a6.78,6.78,0,0,1,4.12,4.47C32.17,372.91,29.84,374.68,27.57,377.67Z"/><path d="M78.93,371.4c-3.2,2-5,4-6.75,3.9-1.45-.1-4.09-3-3.81-4a6.77,6.77,0,0,1,4.43-4.17C74.13,366.85,75.92,369.16,78.93,371.4Z"/><path d="M83.72,364.71c2,3.17,4.07,5,4,6.69-.07,1.45-2.95,4.14-4,3.88a6.79,6.79,0,0,1-4.24-4.36C79.24,369.59,81.52,367.77,83.72,364.71Z"/><path d="M94.65,364.69c2.13,3.1,4.24,4.85,4.21,6.56,0,1.46-2.49,2.89-3.88,4.33-1.54-1.48-3.92-2.76-4.33-4.51C90.34,369.75,92.56,367.84,94.65,364.69Z"/><path d="M145.85,371.4c-3.2,2-5,4-6.76,3.9-1.45-.1-4.08-3-3.8-4a6.77,6.77,0,0,1,4.43-4.17C141,366.85,142.83,369.16,145.85,371.4Z"/><path d="M167.9,371.44c-2.86,1.93-4.75,4.16-6.07,3.86-1.75-.39-3.05-2.77-4.54-4.29,1.62-1.4,3.12-3.68,4.89-3.91C163.54,366.92,165.24,369.31,167.9,371.44Z"/><path d="M179.34,371.09c-3.11,2.12-4.85,4.23-6.57,4.21-1.46,0-2.88-2.5-4.32-3.89,1.48-1.53,2.76-3.92,4.5-4.32C174.27,366.78,176.18,369,179.34,371.09Z"/><path d="M206.12,377.68c-2-3.19-4-5-3.93-6.73.08-1.45,3-4.11,4-3.84a6.77,6.77,0,0,1,4.2,4.4C210.64,372.84,208.34,374.64,206.12,377.68Z"/><path d="M217.49,377.7c-2.09-3.12-4.19-4.88-4.15-6.59,0-1.47,2.52-2.87,3.92-4.3,1.52,1.49,3.89,2.8,4.29,4.54C221.85,372.67,219.61,374.56,217.49,377.7Z"/><path d="M250.41,377.65c-1.83-3.28-3.78-5.21-3.6-6.92.15-1.44,3.21-4,4.21-3.63a6.75,6.75,0,0,1,4,4.63C255.17,373.09,252.76,374.77,250.41,377.65Z"/><path d="M279.43,371.37c-2.83,2-4.69,4.21-6,3.93-1.76-.37-3.09-2.73-4.6-4.23,1.6-1.42,3.06-3.7,4.84-4C275,366.88,276.72,369.25,279.43,371.37Z"/><path d="M284.09,377.67c-1.94-3.22-3.95-5.08-3.83-6.79.1-1.45,3.06-4.06,4.07-3.77a6.77,6.77,0,0,1,4.13,4.47C288.69,372.91,286.36,374.68,284.09,377.67Z"/><path d="M295.68,377.71c-2.16-3.09-4.28-4.82-4.27-6.53,0-1.46,2.47-2.91,3.84-4.37,1.55,1.47,4,2.74,4.37,4.46C299.92,372.64,297.72,374.57,295.68,377.71Z"/><path d="M318,377.71c-2.16-3.09-4.28-4.82-4.27-6.53,0-1.46,2.46-2.91,3.84-4.37,1.54,1.47,4,2.74,4.36,4.46C322.23,372.64,320,374.57,318,377.71Z"/><path d="M339.64,377.65c-1.84-3.28-3.79-5.21-3.61-6.92.15-1.44,3.21-4,4.22-3.63a6.78,6.78,0,0,1,4,4.63C344.39,373.09,342,374.77,339.64,377.65Z"/><path d="M362.64,364.71c2,3.2,4,5.05,3.89,6.76-.09,1.45-3,4.09-4,3.81a6.75,6.75,0,0,1-4.17-4.43C358.09,369.52,360.4,367.73,362.64,364.71Z"/><path d="M380.08,371.14c-3.12,2.1-4.88,4.2-6.59,4.16-1.46,0-2.86-2.52-4.29-3.92,1.49-1.53,2.79-3.9,4.54-4.29C375.06,366.79,377,369,380.08,371.14Z"/><path d="M391.22,371.3c-3.17,2-5,4.08-6.69,4-1.45-.07-4.14-3-3.88-4a6.72,6.72,0,0,1,4.36-4.24C386.38,366.85,388.2,369.14,391.22,371.3Z"/><path d="M413.54,371.14c-3.12,2.1-4.88,4.2-6.59,4.16-1.46,0-2.86-2.52-4.29-3.92,1.49-1.53,2.79-3.9,4.54-4.29C408.52,366.79,410.41,369,413.54,371.14Z"/><path d="M12,382.24c-3.1,2.13-4.85,4.24-6.56,4.21-1.46,0-2.89-2.49-4.33-3.88,1.48-1.54,2.78-4,4.5-4.32C7,378,8.93,380.18,12,382.24Z"/><path d="M83.41,388.57c-2-2.84-4.2-4.71-3.91-6,.38-1.75,2.75-3.07,4.26-4.58,1.41,1.61,3.68,3.08,3.95,4.86C87.91,384.15,85.54,385.88,83.41,388.57Z"/><path d="M94.49,388.82c-1.94-3.21-3.95-5.08-3.83-6.79.1-1.45,3.06-4.06,4.07-3.77a6.78,6.78,0,0,1,4.13,4.48C99.09,384.07,96.76,385.84,94.49,388.82Z"/><path d="M128.27,388.85c-2.1-3.12-4.19-4.88-4.15-6.59,0-1.46,2.51-2.87,3.92-4.3,1.52,1.5,3.89,2.8,4.28,4.55C132.62,383.83,130.39,385.72,128.27,388.85Z"/><path d="M161.85,388.87c-2.16-3.1-4.29-4.82-4.27-6.53,0-1.47,2.46-2.92,3.83-4.38,1.55,1.47,4,2.73,4.37,4.47C166.11,383.75,163.91,385.68,161.85,388.87Z"/><path d="M184,375.85c2.08,3.13,4.16,4.91,4.11,6.62,0,1.46-2.54,2.85-4,4.26-1.51-1.5-3.87-2.82-4.25-4.57C179.59,380.84,181.83,379,184,375.85Z"/><path d="M223.93,382.41c-3.15,2-5,4.11-6.66,4-1.46-.06-4.17-2.92-3.91-3.93a6.76,6.76,0,0,1,4.33-4.28C219,378,220.85,380.24,223.93,382.41Z"/><path d="M228.76,388.87c-2.15-3.1-4.28-4.82-4.27-6.53,0-1.47,2.47-2.92,3.84-4.38,1.55,1.47,3.95,2.73,4.37,4.47C233,383.75,230.83,385.68,228.76,388.87Z"/><path d="M329.18,375.87c2,3.2,4,5,3.89,6.76-.09,1.45-3,4.09-4,3.81a6.78,6.78,0,0,1-4.17-4.44C324.63,380.68,326.94,378.88,329.18,375.87Z"/><path d="M346.6,382.56c-3.2,2-5,4-6.75,3.89-1.45-.09-4.09-3-3.81-4a6.77,6.77,0,0,1,4.43-4.17C341.8,378,343.59,380.32,346.6,382.56Z"/><path d="M357.5,382.6c-2.86,1.92-4.75,4.16-6.07,3.86-1.75-.4-3.05-2.77-4.54-4.3,1.62-1.4,3.11-3.66,4.89-3.91C353.12,378.06,354.82,380.45,357.5,382.6Z"/><path d="M368.88,382.9c-3.3,1.8-5.25,3.74-7,3.54-1.44-.17-3.92-3.25-3.58-4.26a6.8,6.8,0,0,1,4.66-3.92C364.34,378.09,366,380.51,368.88,382.9Z"/><path d="M50,400c-2-3.19-4-5-3.93-6.73.08-1.45,3-4.11,4-3.84a6.77,6.77,0,0,1,4.2,4.4C54.5,395.15,52.2,397,50,400Z"/><path d="M67.52,393.68c-2.82,2-4.69,4.21-6,3.93-1.75-.37-3.08-2.73-4.59-4.23,1.59-1.42,3.06-3.7,4.83-4C63.08,389.19,64.82,391.56,67.52,393.68Z"/><path d="M72.66,387c2,3.2,4,5.05,3.89,6.76-.09,1.45-3,4.09-4,3.81a6.72,6.72,0,0,1-4.17-4.43C68.13,391.79,70.45,390,72.66,387Z"/><path d="M157,393.67c-3.19,2-5,4-6.73,3.94-1.45-.09-4.11-3-3.84-4a6.77,6.77,0,0,1,4.4-4.2C152.17,389.15,154,391.45,157,393.67Z"/><path d="M168.17,393.52c-3.14,2.07-4.92,4.14-6.63,4.09-1.46-.05-4.19-2.89-3.95-3.9a6.78,6.78,0,0,1,4.3-4.31C163.21,389.12,165.07,391.37,168.17,393.52Z"/><path d="M183.92,400c-2-3.16-4.11-5-4-6.67.06-1.46,2.92-4.17,3.94-3.91a6.79,6.79,0,0,1,4.27,4.33C188.36,395.07,186.09,396.92,183.92,400Z"/><path d="M201.62,393.67c-3.19,2-5,4-6.73,3.94-1.45-.09-4.11-3-3.84-4a6.77,6.77,0,0,1,4.4-4.2C196.78,389.15,198.58,391.45,201.62,393.67Z"/><path d="M235.08,393.57c-3.15,2-5,4.11-6.66,4-1.46-.06-4.17-2.93-3.91-3.94a6.79,6.79,0,0,1,4.33-4.27C230.16,389.13,232,391.4,235.08,393.57Z"/><path d="M257.12,393.68c-2.82,2-4.69,4.21-6,3.93-1.75-.37-3.08-2.73-4.59-4.23,1.59-1.42,3.06-3.7,4.83-4C252.68,389.19,254.42,391.56,257.12,393.68Z"/><path d="M284.09,400c-1.94-3.22-3.95-5.08-3.83-6.79.1-1.45,3.06-4.06,4.07-3.77a6.77,6.77,0,0,1,4.13,4.47C288.69,395.22,286.36,397,284.09,400Z"/><path d="M295.41,387c2.12,3.1,4.23,4.85,4.2,6.56,0,1.46-2.49,2.89-3.88,4.33-1.53-1.48-3.92-2.76-4.32-4.51C291.1,392.06,293.31,390.15,295.41,387Z"/><path d="M306.78,387c2,3.17,4.07,5,4,6.69-.07,1.45-2.95,4.14-4,3.88a6.74,6.74,0,0,1-4.24-4.36C302.32,391.86,304.61,390,306.78,387Z"/><path d="M344.78,393.52c3.13-2.08,4.91-4.17,6.62-4.12,1.46,0,2.84,2.54,4.26,4-1.5,1.52-2.82,3.88-4.57,4.26C349.77,397.9,347.89,395.65,344.78,393.52Z"/><path d="M385.28,387.05c1.81,3.3,3.74,5.25,3.55,7-.17,1.44-3.25,3.92-4.26,3.58a6.81,6.81,0,0,1-3.93-4.66C380.48,391.59,382.89,389.92,385.28,387.05Z"/><path d="M27.35,411.11c-1.83-3.27-3.78-5.21-3.6-6.92.15-1.44,3.21-3.95,4.22-3.62a6.8,6.8,0,0,1,4,4.63C32.12,406.53,29.72,408.22,27.35,411.11Z"/><path d="M45.49,404.61c-3.11,2.09-4.87,4.19-6.58,4.15-1.47,0-2.87-2.52-4.3-3.92,1.49-1.52,2.8-3.89,4.54-4.29C40.47,400.25,42.36,402.49,45.49,404.61Z"/><path d="M50,410.88c-2-2.84-4.2-4.71-3.91-6,.38-1.75,2.75-3.07,4.26-4.58,1.41,1.61,3.68,3.08,4,4.86C54.45,406.46,52.08,408.19,50,410.88Z"/><path d="M83.82,398.18c2,3.2,4,5,3.89,6.76-.09,1.45-3,4.09-4,3.81a6.73,6.73,0,0,1-4.16-4.43C79.28,403,81.6,401.16,83.82,398.18Z"/><path d="M105.42,411.11c-1.83-3.27-3.78-5.21-3.6-6.92.15-1.44,3.21-3.95,4.22-3.62a6.78,6.78,0,0,1,4,4.63C110.19,406.53,107.79,408.22,105.42,411.11Z"/><path d="M117.31,398.44c1.93,2.85,4.16,4.75,3.86,6.07-.39,1.74-2.77,3-4.29,4.53-1.4-1.61-3.66-3.11-3.91-4.89C112.78,402.82,115.16,401.11,117.31,398.44Z"/><path d="M128.24,398.16c2.06,3.15,4.14,4.93,4.08,6.64,0,1.46-2.89,4.19-3.9,3.94a6.7,6.7,0,0,1-4.3-4.28C123.85,403.08,126.12,401.22,128.24,398.16Z"/><path d="M195.12,398.16c2.08,3.13,4.17,4.91,4.12,6.62-.05,1.46-2.54,2.85-4,4.26-1.52-1.5-3.88-2.82-4.26-4.57C190.74,403.15,193,401.27,195.12,398.16Z"/><path d="M206.18,398.15c2.13,3.11,4.24,4.85,4.21,6.56,0,1.47-2.49,2.89-3.88,4.33-1.54-1.48-3.92-2.76-4.33-4.5C201.87,403.22,204.09,401.31,206.18,398.15Z"/><path d="M246.23,404.77c-3.16,2-5,4.07-6.69,4-1.45-.07-4.14-2.95-3.88-4a6.7,6.7,0,0,1,4.36-4.24C241.39,400.31,243.21,402.6,246.23,404.77Z"/><path d="M279.7,404.6c-3.08,2.17-4.93,4.44-6.25,4.16a6.79,6.79,0,0,1-4.33-4.27c-.25-1,2.46-3.87,3.92-3.93C274.75,400.49,276.54,402.55,279.7,404.6Z"/><path d="M295.25,411.13c-1.95-3.21-4-5.08-3.84-6.79.11-1.45,3.06-4.06,4.08-3.77a6.83,6.83,0,0,1,4.13,4.48C299.84,406.38,297.51,408.15,295.25,411.13Z"/><path d="M313.16,404.72c-3.16,2-5,4.11-6.67,4-1.45-.06-4.16-2.92-3.91-3.93a6.71,6.71,0,0,1,4.32-4.27C308.28,400.3,310.12,402.58,313.16,404.72Z"/><path d="M324.31,404.72c-3.16,2-5,4.11-6.67,4-1.45-.06-4.16-2.92-3.91-3.93a6.72,6.72,0,0,1,4.33-4.27C319.43,400.3,321.27,402.58,324.31,404.72Z"/><path d="M335.47,404.65c-3.13,2.08-4.91,4.16-6.62,4.11-1.46,0-2.84-2.54-4.26-3.95,1.5-1.51,2.82-3.88,4.57-4.26C330.48,400.26,332.36,402.51,335.47,404.65Z"/><path d="M374.13,398.21c1.8,3.29,3.74,5.25,3.54,7-.16,1.44-3.25,3.92-4.25,3.58a6.81,6.81,0,0,1-3.93-4.67C369.32,402.74,371.74,401.08,374.13,398.21Z"/><path d="M391.21,404.93c-3.22,1.94-5.08,3.95-6.79,3.83-1.45-.1-4.06-3.06-3.77-4.07a6.77,6.77,0,0,1,4.47-4.13C386.45,400.33,388.22,402.66,391.21,404.93Z"/><path d="M5.43,409.31c2.12,3.1,4.23,4.85,4.21,6.56,0,1.46-2.5,2.89-3.89,4.33-1.53-1.48-3.95-2.78-4.32-4.5C1.14,414.32,3.37,412.41,5.43,409.31Z"/><path d="M22.91,416c-2.84,1.95-4.71,4.2-6,3.91-1.75-.38-3.07-2.74-4.58-4.26,1.61-1.41,3.08-3.68,4.86-4C18.49,411.51,20.22,413.88,22.91,416Z"/><path d="M45.49,415.8c-3.13,2.08-4.9,4.17-6.62,4.12-1.45-.05-2.84-2.54-4.26-4,1.5-1.51,2.83-3.91,4.57-4.25C40.55,411.44,42.42,413.7,45.49,415.8Z"/><path d="M78.93,416c-3.18,2-5,4-6.72,3.94-1.45-.09-4.11-3-3.84-4a6.73,6.73,0,0,1,4.39-4.2C74.13,411.48,75.94,413.79,78.93,416Z"/><path d="M90.09,415.92c-3.17,2-5,4.08-6.69,4-1.45-.07-4.14-3-3.88-4a6.72,6.72,0,0,1,4.36-4.24C85.25,411.47,87.07,413.76,90.09,415.92Z"/><path d="M95.31,409.36c1.8,3.3,3.73,5.25,3.54,7-.17,1.44-3.25,3.92-4.26,3.58a6.78,6.78,0,0,1-3.92-4.66C90.5,413.9,92.92,412.23,95.31,409.36Z"/><path d="M112.39,416c-3.18,2-5,4-6.72,3.94-1.46-.09-4.12-3-3.84-4a6.75,6.75,0,0,1,4.4-4.2C107.55,411.46,109.36,413.76,112.39,416Z"/><path d="M117.12,422.31c-2.1-3.11-4.2-4.87-4.16-6.58,0-1.47,2.52-2.87,3.92-4.3,1.52,1.49,3.9,2.8,4.29,4.54C121.47,417.29,119.24,419.18,117.12,422.31Z"/><path d="M139.92,409.36c1.8,3.3,3.74,5.25,3.54,7-.16,1.44-3.25,3.92-4.25,3.58a6.77,6.77,0,0,1-3.93-4.66C135.11,413.9,137.53,412.23,139.92,409.36Z"/><path d="M161.48,422c-1.95-2.83-4.2-4.71-3.91-6,.38-1.75,2.75-3.07,4.26-4.57,1.41,1.6,3.68,3.08,3.95,4.86C166,417.62,163.61,419.34,161.48,422Z"/><path d="M173,409.33c2,3.2,4,5.05,3.89,6.76-.09,1.45-3,4.09-4,3.81a6.77,6.77,0,0,1-4.17-4.43C168.49,414.14,170.8,412.35,173,409.33Z"/><path d="M190.47,415.88c-3.15,2-4.95,4.11-6.66,4-1.46-.06-4.17-2.93-3.91-3.94a6.77,6.77,0,0,1,4.33-4.27C185.55,411.44,187.4,413.71,190.47,415.88Z"/><path d="M212.74,416.3c-3.27,1.84-5.21,3.79-6.92,3.61-1.44-.15-3.95-3.21-3.62-4.22a6.78,6.78,0,0,1,4.62-4C208.18,411.55,209.87,414,212.74,416.3Z"/><path d="M217,422.27c-1.83-3.28-3.78-5.21-3.6-6.92.15-1.44,3.21-4,4.22-3.63a6.8,6.8,0,0,1,4,4.63C221.72,417.69,219.32,419.37,217,422.27Z"/><path d="M246,416c-2.84,1.95-4.71,4.2-6,3.91-1.75-.38-3.07-2.74-4.58-4.26,1.61-1.41,3.09-3.7,4.86-4C241.57,411.52,243.29,413.9,246,416Z"/><path d="M250.7,422c-1.95-2.83-4.19-4.71-3.91-6,.39-1.75,2.75-3.07,4.26-4.57,1.41,1.6,3.68,3.08,3.95,4.86C255.2,417.62,252.83,419.34,250.7,422Z"/><path d="M261.85,422c-1.94-2.83-4.19-4.71-3.9-6,.38-1.75,2.74-3.07,4.25-4.57,1.42,1.6,3.69,3.08,4,4.86C266.36,417.62,264,419.34,261.85,422Z"/><path d="M272.72,422.27c-1.83-3.28-3.79-5.21-3.61-6.92.16-1.44,3.21-4,4.22-3.63a6.78,6.78,0,0,1,4,4.63C277.47,417.71,275.07,419.39,272.72,422.27Z"/><path d="M324.31,415.88c-3.16,2-5,4.11-6.67,4-1.45-.06-4.16-2.93-3.91-3.94a6.74,6.74,0,0,1,4.33-4.27C319.43,411.46,321.27,413.74,324.31,415.88Z"/><path d="M328.87,409.31c2.12,3.1,4.23,4.85,4.2,6.56,0,1.46-2.49,2.89-3.88,4.33-1.53-1.48-3.92-2.77-4.33-4.51C324.56,414.37,326.77,412.46,328.87,409.31Z"/><path d="M339.92,422c-1.94-2.83-4.19-4.71-3.9-6,.38-1.75,2.74-3.07,4.25-4.57,1.42,1.6,3.69,3.08,4,4.86C344.43,417.62,342.05,419.34,339.92,422Z"/><path d="M357.73,416.36c-3.3,1.81-5.25,3.74-7,3.54-1.44-.16-3.92-3.24-3.58-4.25a6.79,6.79,0,0,1,4.66-3.93C353.19,411.55,354.86,414,357.73,416.36Z"/><path d="M361.94,422.27c-1.83-3.28-3.78-5.21-3.6-6.92.15-1.44,3.21-4,4.21-3.63a6.73,6.73,0,0,1,4,4.63C366.7,417.71,364.29,419.39,361.94,422.27Z"/><path d="M374.13,409.36c1.8,3.3,3.74,5.25,3.54,7-.16,1.44-3.25,3.92-4.25,3.58a6.79,6.79,0,0,1-3.93-4.66C369.32,413.9,371.74,412.23,374.13,409.36Z"/><path d="M413.55,415.71c-3.11,2.12-4.85,4.23-6.56,4.21-1.47,0-2.89-2.5-4.33-3.89,1.48-1.53,2.76-3.92,4.51-4.32C408.48,411.4,410.39,413.61,413.55,415.71Z"/><path d="M101.24,427.13c-3.18,2-5,4-6.73,3.94-1.45-.08-4.11-3-3.84-4a6.83,6.83,0,0,1,4.4-4.21C96.4,422.61,98.21,424.92,101.24,427.13Z"/><path d="M106,433.47c-2.1-3.12-4.2-4.88-4.16-6.59,0-1.46,2.52-2.87,3.92-4.3,1.52,1.5,3.89,2.8,4.29,4.55C110.32,428.45,108.08,430.34,106,433.47Z"/><path d="M128.21,420.47c2.07,3.13,4.16,4.91,4.11,6.62,0,1.46-2.54,2.85-3.95,4.26-1.51-1.5-3.88-2.82-4.26-4.57C123.82,425.46,126.07,423.58,128.21,420.47Z"/><path d="M157,427.46c-3.28,1.83-5.21,3.78-6.92,3.6-1.44-.15-3.95-3.21-3.63-4.22a6.8,6.8,0,0,1,4.63-4C152.42,422.7,154.1,425.11,157,427.46Z"/><path d="M161.73,433.47c-2.1-3.12-4.19-4.88-4.15-6.59,0-1.46,2.51-2.87,3.91-4.3,1.53,1.5,3.9,2.8,4.29,4.55C166.08,428.45,163.85,430.34,161.73,433.47Z"/><path d="M195,433.45c-2-3.18-4-5-3.93-6.73.08-1.45,3-4.11,4-3.84a6.79,6.79,0,0,1,4.2,4.4C199.49,428.61,197.19,430.42,195,433.45Z"/><path d="M268.27,427.17c-2.83,1.95-4.71,4.19-6,3.91-1.75-.39-3.07-2.75-4.57-4.26,1.6-1.41,3.08-3.68,4.85-3.95C263.86,422.66,265.58,425,268.27,427.17Z"/><path d="M302,426.92c-3.12,2.09-4.88,4.19-6.59,4.15-1.46,0-2.86-2.52-4.29-3.92,1.49-1.52,2.79-3.89,4.54-4.29C297,422.56,298.88,424.8,302,426.92Z"/><path d="M306.56,420.46c2.12,3.11,4.23,4.85,4.21,6.56,0,1.47-2.5,2.89-3.89,4.33-1.53-1.48-3.91-2.76-4.32-4.5C302.25,425.53,304.47,423.62,306.56,420.46Z"/><path d="M324.31,427c-3.16,2.05-5,4.11-6.67,4-1.45-.06-4.16-2.92-3.91-3.93a6.72,6.72,0,0,1,4.33-4.27C319.43,422.61,321.27,424.89,324.31,427Z"/><path d="M368.65,427.14c-2.83,2-4.69,4.22-6,3.94-1.75-.38-3.08-2.73-4.59-4.24,1.59-1.42,3.06-3.7,4.83-4C364.21,422.66,366,425,368.65,427.14Z"/><path d="M406.94,420.46c2.12,3.11,4.23,4.85,4.2,6.56,0,1.47-2.49,2.89-3.88,4.33-1.53-1.48-3.92-2.76-4.32-4.5C402.63,425.53,404.84,423.62,406.94,420.46Z"/><path d="M110.57,103.49c3.13-2.08,4.9-4.17,6.61-4.12,1.46,0,2.85,2.54,4.27,4-1.51,1.51-2.82,3.87-4.57,4.25C115.55,107.87,113.68,105.63,110.57,103.49Z"/><path d="M94.65,431.62c2.13,3.1,4.24,4.85,4.21,6.56,0,1.46-2.49,2.89-3.88,4.33-1.54-1.48-3.92-2.77-4.33-4.51C90.34,436.68,92.56,434.77,94.65,431.62Z"/><path d="M145.88,438c-3.11,2.12-4.85,4.23-6.56,4.21-1.47,0-2.89-2.5-4.33-3.89,1.48-1.53,2.76-3.92,4.5-4.32C140.81,433.71,142.72,435.92,145.88,438Z"/><path d="M161.73,444.62c-2.1-3.11-4.19-4.87-4.15-6.58,0-1.47,2.51-2.87,3.91-4.3,1.53,1.49,3.9,2.8,4.29,4.54C166.08,439.6,163.85,441.49,161.73,444.62Z"/><path d="M179.28,438.61c-3.27,1.84-5.21,3.79-6.92,3.61-1.44-.15-4-3.21-3.62-4.22a6.78,6.78,0,0,1,4.62-4C174.72,433.86,176.41,436.26,179.28,438.61Z"/><path d="M212.76,438.39c-3.21,1.94-5.08,4-6.79,3.83-1.45-.1-4.06-3.06-3.77-4.07a6.78,6.78,0,0,1,4.48-4.13C208,433.79,209.77,436.13,212.76,438.39Z"/><path d="M235.08,438.19c-3.15,2-5,4.11-6.66,4-1.46-.06-4.17-2.93-3.91-3.94a6.79,6.79,0,0,1,4.33-4.27C230.16,433.75,232,436,235.08,438.19Z"/><path d="M239.48,444.6c-1.94-3.22-4-5.08-3.83-6.79.1-1.45,3.06-4.06,4.07-3.77a6.74,6.74,0,0,1,4.13,4.47C244.07,439.87,241.73,441.63,239.48,444.6Z"/><path d="M257.38,438.33c-3.2,2-5,4-6.76,3.9-1.45-.1-4.08-3-3.81-4a6.81,6.81,0,0,1,4.43-4.17C252.57,433.78,254.36,436.09,257.38,438.33Z"/><path d="M255.56,438.14c3.13-2.08,4.9-4.17,6.61-4.12,1.46,0,2.85,2.54,4.27,4-1.51,1.52-2.83,3.88-4.58,4.26C260.54,442.52,258.67,440.27,255.56,438.14Z"/><path d="M283.87,444.58c-1.83-3.28-3.78-5.21-3.6-6.92.15-1.44,3.21-4,4.21-3.63a6.73,6.73,0,0,1,4,4.63C288.63,440,286.22,441.7,283.87,444.58Z"/><path d="M302,438.11c-3.13,2.08-4.91,4.17-6.62,4.12-1.46-.05-2.84-2.54-4.26-4,1.5-1.51,2.82-3.87,4.57-4.25C297,433.73,298.9,436,302,438.11Z"/><path d="M324.27,438.61c-3.28,1.84-5.21,3.79-6.92,3.61-1.44-.15-4-3.21-3.62-4.22a6.78,6.78,0,0,1,4.62-4C319.71,433.86,321.39,436.26,324.27,438.61Z"/><path d="M340.33,431.64c2,3.2,4,5.05,3.89,6.76-.09,1.45-3,4.09-4,3.81a6.79,6.79,0,0,1-4.17-4.43C335.78,436.45,338.09,434.66,340.33,431.64Z"/><path d="M368.9,438.39c-3.21,1.94-5.08,4-6.79,3.83-1.44-.1-4.06-3.06-3.77-4.07a6.78,6.78,0,0,1,4.48-4.13C364.15,433.79,365.92,436.13,368.9,438.39Z"/><path d="M407.09,444.62c-2.09-3.11-4.19-4.87-4.15-6.58,0-1.47,2.52-2.87,3.92-4.3,1.52,1.49,3.89,2.8,4.29,4.54C411.45,439.6,409.21,441.49,407.09,444.62Z"/><path d="M105.9,97c2.08,3.13,4.16,4.9,4.11,6.62,0,1.45-2.54,2.84-4,4.26-1.51-1.5-3.87-2.82-4.25-4.57C101.52,102,103.76,100.09,105.9,97Z"/><path d="M123.55,449.39c-3.17,2-5,4.07-6.69,4-1.45-.07-4.14-2.95-3.88-4a6.79,6.79,0,0,1,4.36-4.24C118.66,444.91,120.49,447.2,123.55,449.39Z"/><path d="M127.73,455.73c-1.83-3.27-3.79-5.21-3.61-6.92.16-1.44,3.21-3.95,4.22-3.62a6.78,6.78,0,0,1,4,4.63C132.49,451.15,130.09,452.84,127.73,455.73Z"/><path d="M145.89,449.11c-3.1,2.16-4.82,4.28-6.53,4.27-1.47,0-2.92-2.46-4.37-3.84,1.46-1.55,2.73-4,4.46-4.37C140.82,444.87,142.75,447.07,145.89,449.11Z"/><path d="M161.62,442.79c2.17,3.08,4.43,4.93,4.16,6.25a6.77,6.77,0,0,1-4.28,4.32c-1,.26-3.89-2.47-3.92-3.91C157.53,447.71,159.59,445.91,161.62,442.79Z"/><path d="M179.05,449.45c-2.83,2-4.69,4.22-6,3.94-1.75-.38-3.08-2.73-4.59-4.24,1.59-1.42,3.06-3.7,4.83-4C174.61,445,176.35,447.33,179.05,449.45Z"/><path d="M183.72,455.75c-1.95-3.21-4-5.08-3.84-6.79.11-1.45,3.06-4.06,4.08-3.77a6.81,6.81,0,0,1,4.13,4.48C188.31,451,186,452.76,183.72,455.75Z"/><path d="M223.94,449.23c-3.12,2.09-4.88,4.19-6.59,4.15-1.46,0-2.86-2.52-4.29-3.92,1.49-1.52,2.79-3.89,4.54-4.29C218.92,444.87,220.81,447.11,223.94,449.23Z"/><path d="M239.48,455.75c-1.94-3.21-4-5.08-3.83-6.79.1-1.45,3.06-4.06,4.07-3.77a6.74,6.74,0,0,1,4.13,4.47C244.07,451,241.73,452.79,239.48,455.75Z"/><path d="M284.41,455.78c-2.1-3.12-4.19-4.88-4.15-6.59,0-1.46,2.52-2.87,3.92-4.3,1.52,1.5,3.89,2.8,4.29,4.55C288.76,450.76,286.53,452.65,284.41,455.78Z"/><path d="M324,449.45c-2.83,2-4.69,4.22-6,3.94-1.75-.38-3.08-2.73-4.6-4.24,1.6-1.42,3.06-3.7,4.84-4C319.6,445,321.34,447.33,324,449.45Z"/><path d="M368.65,449.48c-2.84,1.95-4.71,4.19-6,3.91-1.75-.39-3.07-2.75-4.57-4.26,1.6-1.41,3.07-3.68,4.85-3.95C364.23,445,366,447.35,368.65,449.48Z"/><path d="M373.1,455.73c-1.84-3.27-3.79-5.21-3.61-6.92.15-1.44,3.21-3.95,4.22-3.62a6.78,6.78,0,0,1,4,4.62C377.85,451.17,375.45,452.86,373.1,455.73Z"/><path d="M384.54,455.5c-2-2.84-4.2-4.71-3.91-6,.38-1.75,2.75-3.07,4.26-4.58,1.41,1.61,3.68,3.08,3.95,4.86C389,451.08,386.67,452.81,384.54,455.5Z"/><path d="M395.94,455.78c-2.1-3.12-4.19-4.88-4.15-6.59,0-1.46,2.52-2.87,3.92-4.3,1.52,1.5,3.89,2.8,4.28,4.55C400.29,450.76,398.06,452.65,395.94,455.78Z"/><path d="M413.5,449.77c-3.28,1.83-5.22,3.78-6.93,3.6-1.44-.15-3.94-3.21-3.62-4.22a6.78,6.78,0,0,1,4.63-4C408.93,445,410.62,447.42,413.5,449.77Z"/><path d="M101.23,103.74c-3.21,2-5.08,4-6.79,3.84-1.45-.11-4.06-3.07-3.77-4.08a6.81,6.81,0,0,1,4.48-4.13C96.47,99.14,98.24,101.48,101.23,103.74Z"/><path d="M94.93,467c-2.16-3.09-4.28-4.82-4.27-6.53,0-1.46,2.46-2.91,3.84-4.37,1.55,1.47,4,2.74,4.36,4.46C99.17,461.88,97,463.81,94.93,467Z"/><path d="M134.7,460.6c-3.19,2-5,4-6.73,3.94-1.45-.09-4.11-3-3.84-4a6.79,6.79,0,0,1,4.4-4.2C129.86,456.08,131.67,458.38,134.7,460.6Z"/><path d="M145.86,460.5c-3.15,2-5,4.11-6.66,4-1.46-.06-4.17-2.93-3.91-3.94a6.77,6.77,0,0,1,4.33-4.27C140.94,456.06,142.78,458.33,145.86,460.5Z"/><path d="M150.69,467c-2.15-3.09-4.28-4.82-4.27-6.53,0-1.46,2.47-2.91,3.84-4.37,1.55,1.47,4,2.73,4.37,4.47C155,461.83,152.76,463.77,150.69,467Z"/><path d="M161.61,466.93c-2-3.16-4.1-5-4-6.67.06-1.46,2.92-4.17,3.93-3.91a6.77,6.77,0,0,1,4.27,4.33C166.05,462,163.78,463.85,161.61,466.93Z"/><path d="M190.47,460.54c-3.17,2-5,4.08-6.69,4-1.46-.07-4.14-3-3.88-4a6.77,6.77,0,0,1,4.36-4.24C185.58,456.07,187.41,458.35,190.47,460.54Z"/><path d="M223.94,460.38c-3.12,2.1-4.88,4.2-6.59,4.16-1.46,0-2.86-2.52-4.29-3.92,1.49-1.53,2.79-3.9,4.54-4.29C218.92,456,220.81,458.26,223.94,460.38Z"/><path d="M235,461c-3.29,1.81-5.24,3.74-6.95,3.54-1.44-.16-3.92-3.24-3.59-4.25a6.81,6.81,0,0,1,4.67-3.93C230.51,456.17,232.17,458.59,235,461Z"/><path d="M284.53,467c-2.16-3.09-4.28-4.82-4.27-6.53,0-1.46,2.46-2.91,3.84-4.37,1.55,1.47,4,2.74,4.36,4.46C288.77,461.88,286.56,463.81,284.53,467Z"/><path d="M324,460.68c-2.86,1.93-4.75,4.16-6.07,3.86-1.75-.39-3-2.77-4.54-4.29,1.62-1.4,3.11-3.66,4.89-3.91C319.66,456.14,321.36,458.53,324,460.68Z"/><path d="M335.46,460.54c-3.17,2-5,4.08-6.7,4-1.45-.07-4.14-3-3.87-4a6.71,6.71,0,0,1,4.35-4.24C330.61,456.09,332.44,458.38,335.46,460.54Z"/><path d="M340,466.92c-2-3.19-4-5-3.94-6.73.08-1.45,3-4.11,4-3.84a6.79,6.79,0,0,1,4.2,4.4C344.48,462.08,342.18,463.88,340,466.92Z"/><path d="M357.75,460.7c-3.21,1.94-5.08,4-6.79,3.83-1.45-.1-4.06-3.06-3.77-4.07a6.77,6.77,0,0,1,4.47-4.13C353,456.1,354.76,458.44,357.75,460.7Z"/><path d="M368.88,461c-3.3,1.81-5.25,3.74-7,3.54-1.44-.16-3.92-3.25-3.58-4.25a6.81,6.81,0,0,1,4.66-3.93C364.34,456.17,366,458.59,368.88,461Z"/><path d="M380.09,460.33c-3.11,2.12-4.85,4.23-6.56,4.21-1.46,0-2.89-2.5-4.33-3.89,1.48-1.53,2.76-3.92,4.51-4.32C375,456,376.93,458.23,380.09,460.33Z"/><path d="M384.79,466.93c-2.1-3.11-4.19-4.87-4.16-6.59,0-1.46,2.52-2.86,3.92-4.29,1.53,1.49,3.9,2.8,4.29,4.54C389.14,461.91,386.91,463.8,384.79,466.93Z"/><path d="M402.34,461c-3.3,1.81-5.25,3.74-7,3.54-1.44-.16-3.92-3.24-3.58-4.25a6.81,6.81,0,0,1,4.66-3.93C397.8,456.17,399.47,458.59,402.34,461Z"/><path d="M106.46,465.14c1.8,3.29,3.74,5.25,3.54,7-.16,1.44-3.25,3.92-4.25,3.58a6.78,6.78,0,0,1-3.93-4.67C101.65,469.67,104.07,468,106.46,465.14Z"/><path d="M116.86,477.81c-1.94-2.84-4.19-4.71-3.9-6,.38-1.75,2.74-3.07,4.26-4.58,1.41,1.61,3.68,3.08,4,4.86C121.37,473.39,119,475.12,116.86,477.81Z"/><path d="M157,472.14c-3.29,1.8-5.25,3.74-6.95,3.54-1.44-.17-3.92-3.25-3.59-4.26a6.79,6.79,0,0,1,4.67-3.92C152.44,467.33,154.1,469.74,157,472.14Z"/><path d="M161.48,477.81c-1.95-2.84-4.2-4.71-3.91-6,.38-1.75,2.75-3.07,4.26-4.58,1.41,1.61,3.68,3.08,3.95,4.86C166,473.39,163.61,475.12,161.48,477.81Z"/><path d="M195,465.08c2.12,3.11,4.23,4.85,4.21,6.56,0,1.47-2.5,2.89-3.89,4.33-1.53-1.48-3.91-2.76-4.32-4.5C190.72,470.15,192.94,468.24,195,465.08Z"/><path d="M212.51,471.76c-2.83,2-4.69,4.22-6,3.94-1.75-.38-3.08-2.73-4.6-4.24,1.6-1.42,3.06-3.7,4.84-4C208.07,467.28,209.81,469.64,212.51,471.76Z"/><path d="M223.94,471.61c-3.15,2.06-4.93,4.14-6.64,4.08-1.46-.05-4.19-2.89-3.94-3.9a6.79,6.79,0,0,1,4.29-4.31C219,467.2,220.84,469.46,223.94,471.61Z"/><path d="M257.37,471.86c-3.21,1.94-5.08,3.95-6.79,3.83-1.44-.1-4.06-3.06-3.77-4.08a6.83,6.83,0,0,1,4.48-4.13C252.62,467.26,254.39,469.59,257.37,471.86Z"/><path d="M279.69,471.75c-3.19,2-5,4-6.73,3.94-1.45-.08-4.11-3-3.84-4a6.8,6.8,0,0,1,4.4-4.21C274.85,467.23,276.66,469.54,279.69,471.75Z"/><path d="M302,471.42c-3.1,2.16-4.82,4.28-6.53,4.27-1.47,0-2.92-2.46-4.37-3.84,1.47-1.55,2.74-4,4.46-4.37C297,467.18,298.89,469.38,302,471.42Z"/><path d="M329,478.09c-2.09-3.12-4.19-4.88-4.15-6.59,0-1.46,2.52-2.87,3.92-4.3,1.52,1.5,3.89,2.8,4.29,4.55C333.37,473.07,331.14,475,329,478.09Z"/><path d="M339.64,478c-1.84-3.27-3.79-5.21-3.61-6.92.15-1.44,3.21-3.95,4.22-3.62a6.78,6.78,0,0,1,4,4.62C344.39,473.48,342,475.17,339.64,478Z"/><path d="M351.26,465.09c2.08,3.13,4.17,4.91,4.12,6.62,0,1.46-2.54,2.84-3.95,4.26-1.51-1.5-3.88-2.82-4.26-4.57C346.88,470.08,349.13,468.2,351.26,465.09Z"/><path d="M380.1,471.42c-3.09,2.16-4.82,4.28-6.53,4.27-1.47,0-2.92-2.46-4.37-3.84,1.47-1.55,2.74-4,4.46-4.37C375,467.18,377,469.38,380.1,471.42Z"/><path d="M391.22,471.8c-3.2,2-5.05,4-6.76,3.89-1.45-.09-4.09-3-3.81-4a6.79,6.79,0,0,1,4.43-4.17C386.41,467.24,388.2,469.56,391.22,471.8Z"/><path d="M105.42,489.2c-1.83-3.28-3.78-5.21-3.6-6.92.15-1.44,3.21-3.95,4.22-3.63a6.8,6.8,0,0,1,4,4.63C110.19,484.62,107.79,486.3,105.42,489.2Z"/><path d="M123.56,482.81c-3.16,2-5,4.11-6.67,4-1.46-.06-4.17-2.93-3.91-3.94a6.79,6.79,0,0,1,4.33-4.27C118.63,478.37,120.48,480.64,123.56,482.81Z"/><path d="M128.16,476.25c2.17,3.08,4.44,4.93,4.16,6.25a6.79,6.79,0,0,1-4.27,4.33c-1,.25-3.89-2.47-3.93-3.91C124.07,481.17,126.14,479.37,128.16,476.25Z"/><path d="M139.17,489c-1.95-2.83-4.19-4.71-3.9-6,.38-1.75,2.74-3.07,4.25-4.57,1.41,1.6,3.68,3.08,3.95,4.86C143.67,484.55,141.3,486.27,139.17,489Z"/><path d="M157,483c-3.22,1.94-5.08,4-6.79,3.83-1.45-.1-4.06-3.06-3.77-4.07a6.77,6.77,0,0,1,4.47-4.13C152.24,478.41,154,480.74,157,483Z"/><path d="M167.9,482.92c-2.83,2-4.69,4.21-6,3.93-1.76-.37-3.09-2.73-4.6-4.23,1.6-1.42,3.06-3.7,4.84-4C163.46,478.43,165.19,480.8,167.9,482.92Z"/><path d="M179.33,482.69c-3.12,2.1-4.88,4.19-6.59,4.16-1.46,0-2.86-2.52-4.29-3.92,1.49-1.53,2.79-3.9,4.54-4.29C174.31,478.34,176.2,480.57,179.33,482.69Z"/><path d="M206.12,489.23c-2-3.19-4-5-3.93-6.73.08-1.45,3-4.11,4-3.84a6.77,6.77,0,0,1,4.2,4.4C210.64,484.39,208.34,486.19,206.12,489.23Z"/><path d="M217.55,476.26c2,3.17,4.07,5,4,6.69-.07,1.45-2.95,4.14-4,3.88a6.77,6.77,0,0,1-4.24-4.36C213.07,481.14,215.36,479.32,217.55,476.26Z"/><path d="M239.48,489.22c-1.94-3.22-4-5.08-3.83-6.79.1-1.45,3.06-4.06,4.07-3.77a6.74,6.74,0,0,1,4.13,4.47C244.07,484.48,241.73,486.25,239.48,489.22Z"/><path d="M257.12,482.92c-2.82,2-4.69,4.21-6,3.93-1.75-.37-3.08-2.73-4.59-4.23,1.59-1.42,3.06-3.7,4.83-4C252.68,478.43,254.42,480.8,257.12,482.92Z"/><path d="M268.27,483c-2.85,1.93-4.74,4.16-6.06,3.86-1.75-.39-3-2.77-4.54-4.29,1.62-1.4,3.11-3.66,4.89-3.91C263.89,478.45,265.6,480.84,268.27,483Z"/><path d="M273.19,476.25c2.08,3.13,4.17,4.9,4.12,6.61,0,1.46-2.54,2.85-3.95,4.27-1.52-1.51-3.88-2.82-4.26-4.58C268.81,481.23,271.06,479.36,273.19,476.25Z"/><path d="M302,482.85c-3.17,2-5,4.08-6.69,4-1.46-.07-4.15-3-3.88-4a6.71,6.71,0,0,1,4.35-4.24C297.15,478.4,299,480.69,302,482.85Z"/><path d="M313.14,483c-3.22,1.94-5.08,4-6.79,3.83-1.45-.1-4.06-3.06-3.77-4.07a6.77,6.77,0,0,1,4.47-4.13C308.38,478.41,310.15,480.74,313.14,483Z"/><path d="M328.81,489.23c-2-3.19-4-5-3.94-6.73.08-1.45,3-4.12,4-3.84a6.8,6.8,0,0,1,4.21,4.4C333.33,484.39,331,486.19,328.81,489.23Z"/><path d="M346.62,482.69c-3.11,2.1-4.87,4.19-6.58,4.16-1.47,0-2.87-2.52-4.3-3.92,1.49-1.53,2.8-3.9,4.54-4.29C341.6,478.34,343.49,480.57,346.62,482.69Z"/><path d="M380.07,482.68c-3.08,2.17-4.92,4.44-6.25,4.17a6.77,6.77,0,0,1-4.32-4.28c-.26-1,2.46-3.87,3.91-3.93C375.12,478.57,376.92,480.64,380.07,482.68Z"/><path d="M396.06,489.26c-2.16-3.09-4.28-4.82-4.27-6.53,0-1.47,2.46-2.91,3.84-4.37,1.55,1.47,4,2.74,4.36,4.46C400.3,484.19,398.09,486.12,396.06,489.26Z"/><path d="M106.08,500.42c-2.16-3.1-4.28-4.82-4.27-6.53,0-1.47,2.47-2.92,3.84-4.38,1.55,1.47,3.94,2.73,4.37,4.47C110.34,495.3,108.15,497.23,106.08,500.42Z"/><path d="M145.59,494.07c-2.82,2-4.69,4.22-6,3.94-1.75-.38-3.08-2.74-4.59-4.24,1.59-1.42,3.06-3.7,4.83-4C141.15,489.59,142.89,492,145.59,494.07Z"/><path d="M150.58,500.4c-2.1-3.12-4.2-4.88-4.16-6.59,0-1.46,2.52-2.87,3.92-4.3,1.52,1.5,3.9,2.8,4.29,4.55C154.93,495.38,152.69,497.27,150.58,500.4Z"/><path d="M167.9,494.1c-2.84,1.95-4.71,4.19-6,3.91-1.75-.39-3.07-2.75-4.58-4.26,1.61-1.41,3.08-3.69,4.86-3.95C163.48,489.59,165.2,492,167.9,494.1Z"/><path d="M179.32,493.92c-3.14,2.06-4.92,4.14-6.63,4.08-1.46-.05-4.19-2.89-3.94-3.9a6.79,6.79,0,0,1,4.29-4.31C174.36,489.51,176.22,491.77,179.32,493.92Z"/><path d="M184,487.4c2.08,3.13,4.16,4.91,4.11,6.62,0,1.46-2.54,2.84-4,4.26-1.51-1.5-3.87-2.82-4.25-4.57C179.59,492.39,181.83,490.51,184,487.4Z"/><path d="M224,493.73c-3.1,2.16-4.82,4.28-6.53,4.27-1.47,0-2.92-2.46-4.37-3.84,1.46-1.55,2.73-4,4.46-4.37C218.89,489.49,220.82,491.69,224,493.73Z"/><path d="M235,494.45c-3.29,1.8-5.24,3.74-6.95,3.54-1.44-.17-3.92-3.25-3.59-4.26a6.79,6.79,0,0,1,4.67-3.92C230.51,489.64,232.17,492.05,235,494.45Z"/><path d="M239.58,500.38c-2-3.18-4-5-3.93-6.73.08-1.45,3-4.11,4-3.84a6.79,6.79,0,0,1,4.2,4.4C244.1,495.54,241.8,497.35,239.58,500.38Z"/><path d="M268.55,493.92c-3.14,2.06-4.93,4.14-6.64,4.08-1.45-.05-4.19-2.89-3.94-3.9a6.79,6.79,0,0,1,4.29-4.31C263.58,489.51,265.45,491.77,268.55,493.92Z"/><path d="M295.57,500.4c-2.1-3.12-4.2-4.88-4.16-6.59,0-1.46,2.52-2.87,3.92-4.3,1.52,1.5,3.89,2.8,4.29,4.55C299.92,495.38,297.68,497.27,295.57,500.4Z"/><path d="M313.16,494c-3.16,2.05-5,4.11-6.67,4-1.45-.06-4.16-2.92-3.91-3.93a6.71,6.71,0,0,1,4.32-4.27C308.28,489.54,310.12,491.82,313.16,494Z"/><path d="M324.3,494.06c-3.19,2-5,4-6.73,3.94-1.45-.08-4.11-3-3.84-4a6.83,6.83,0,0,1,4.4-4.21C319.46,489.54,321.27,491.85,324.3,494.06Z"/><path d="M346.34,494.15c-2.85,1.92-4.74,4.15-6.06,3.86-1.75-.4-3-2.77-4.54-4.3,1.62-1.4,3.11-3.66,4.89-3.91C342,489.61,343.67,492,346.34,494.15Z"/><path d="M368.9,494.17c-3.21,1.94-5.08,3.95-6.79,3.83-1.44-.1-4.06-3.06-3.77-4.08a6.83,6.83,0,0,1,4.48-4.13C364.15,489.57,365.92,491.9,368.9,494.17Z"/><path d="M389.39,493.91c3.13-2.08,4.91-4.16,6.62-4.11,1.46,0,2.84,2.54,4.26,3.95-1.5,1.51-2.82,3.87-4.57,4.26C394.38,498.29,392.5,496.05,389.39,493.91Z"/><path d="M101,505.25c-2.84,1.95-4.71,4.2-6,3.91-1.75-.38-3.07-2.75-4.58-4.26,1.61-1.41,3.08-3.68,4.86-3.95C96.56,500.75,98.29,503.12,101,505.25Z"/><path d="M134.67,505.54c-3.28,1.84-5.21,3.79-6.92,3.61-1.44-.15-4-3.21-3.62-4.22a6.76,6.76,0,0,1,4.62-4C130.11,500.79,131.79,503.19,134.67,505.54Z"/><path d="M246,505.23c-2.83,2-4.69,4.21-6,3.93-1.76-.37-3.09-2.73-4.6-4.23,1.6-1.42,3.06-3.7,4.84-4C241.53,500.74,243.26,503.11,246,505.23Z"/><path d="M257.4,505c-3.12,2.1-4.88,4.19-6.59,4.16-1.46,0-2.86-2.52-4.29-3.92,1.49-1.53,2.79-3.9,4.54-4.29C252.38,500.65,254.27,502.88,257.4,505Z"/><path d="M313.14,505.32c-3.22,1.94-5.08,4-6.79,3.83-1.45-.1-4.06-3.06-3.77-4.07a6.77,6.77,0,0,1,4.47-4.13C308.38,500.72,310.15,503.05,313.14,505.32Z"/><path d="M317.76,498.56c2.17,3.08,4.44,4.93,4.16,6.25a6.79,6.79,0,0,1-4.27,4.33c-1,.25-3.87-2.46-3.93-3.92C313.65,503.51,315.71,501.72,317.76,498.56Z"/><path d="M357.76,505.26c-3.2,2-5.05,4-6.76,3.89-1.45-.09-4.09-3-3.81-4a6.79,6.79,0,0,1,4.43-4.17C353,500.71,354.74,503,357.76,505.26Z"/><path d="M402.4,505c-3.11,2.12-4.85,4.23-6.57,4.21-1.46,0-2.88-2.5-4.33-3.89,1.49-1.53,2.77-3.92,4.51-4.32C397.33,500.64,399.24,502.85,402.4,505Z"/><path d="M413.54,505c-3.13,2.08-4.91,4.17-6.62,4.12-1.46-.05-2.84-2.55-4.26-4,1.5-1.51,2.82-3.87,4.57-4.25C408.55,500.66,410.43,502.9,413.54,505Z"/><path class="cls-2" d="M390.25,137.48c0-6.8,1-14.34-7.34-16.06-6.05-1.26-12.64-.71-18.86.07-2.22.28-5.55,3.44-5.79,5.57a91.77,91.77,0,0,0,0,19.95c.22,2,3.35,5.05,5.41,5.28,6.41.72,13.18,1.41,19.38.09C390.91,150.71,390.41,143.45,390.25,137.48Z"/><path class="cls-2" d="M40.41,454.91c-7.25.06-15.09-1.25-16.94,7.37-1.29,6-.7,12.64.09,18.86.28,2.22,3.44,5.54,5.58,5.78a91.68,91.68,0,0,0,19.94-.05c2-.22,5-3.36,5.27-5.42.72-6.41,1.37-13.17.08-19.39C52.88,454.59,45.92,454.7,40.41,454.91Z"/><path d="M55.65,137.47c.17,6,.65,13.35-7.19,14.91-6.39,1.28-13.3.38-19.91-.28-1.77-.17-4.53-2.89-4.67-4.62a137.45,137.45,0,0,1,0-21c.13-1.74,2.86-4.49,4.62-4.67,6.6-.68,13.52-1.61,19.91-.36C56.65,123.09,55.7,130.73,55.65,137.47Z"/><path d="M390.25,137.48c.16,6,.66,13.23-7.16,14.9-6.2,1.32-13,.63-19.38-.09-2.06-.23-5.19-3.26-5.41-5.28a91.77,91.77,0,0,1,0-19.95c.24-2.13,3.57-5.29,5.79-5.57,6.22-.78,12.81-1.33,18.86-.07C391.22,123.14,390.27,130.68,390.25,137.48Z"/><path d="M40.41,454.91c5.51-.21,12.47-.32,14,7.15,1.29,6.22.64,13-.08,19.39-.23,2.06-3.26,5.2-5.27,5.42a91.68,91.68,0,0,1-19.94.05c-2.14-.24-5.3-3.56-5.58-5.78-.79-6.22-1.38-12.82-.09-18.86C25.32,453.66,33.16,455,40.41,454.91Z"/></g></g></svg>