<svg xmlns="http://www.w3.org/2000/svg" viewBox="0 0 427.06 513.88"><defs><style>.cls-1{font-size:92.62px;fill:#1e1e1e;font-family:HelveticaNeue-Medium, Helvetica Neue;font-weight:500;}</style></defs><g id="Layer_2" data-name="Layer 2"><g id="Layer_1-2" data-name="Layer 1"><text class="cls-1" transform="translate(0 79.38)">LINKEDIN</text><path d="M81.06,136.43c0,8.8,0,17.59,0,26.38,0,8.07-4.54,12.71-12.48,12.73q-26.92,0-53.86,0c-7.7,0-12.29-4.61-12.31-12.32q-.06-26.94,0-53.87c0-7.72,4.6-12.43,12.19-12.44q27.21-.08,54.42,0c7.24,0,12,4.79,12,12C81.11,118.11,81.06,127.27,81.06,136.43Zm-11.24-.32c0-5.42.07-10.84,0-16.26C69.7,112.92,65,108.19,58,108.14q-16.26-.12-32.52,0c-7,0-11.79,4.76-11.85,11.63q-.13,16.55,0,33.09a11.27,11.27,0,0,0,11.49,11.42q16.55.15,33.08,0c6.84-.06,11.49-4.92,11.58-11.91C69.88,147,69.82,141.53,69.82,136.11Z"/><path d="M418.21,136.21c0,9,0,18,0,26.94,0,7.71-4.61,12.36-12.25,12.38q-27.21.08-54.42,0c-7.23,0-11.95-4.82-12-12.1q-.07-27.21,0-54.43c0-7.28,4.74-12.08,12-12.1q27.5-.09,55,0c6.91,0,11.62,4.84,11.68,11.81C418.27,117.88,418.21,127.05,418.21,136.21Zm-11.24,0c0-5.42.06-10.84,0-16.26-.1-7-4.77-11.78-11.65-11.84q-16.55-.14-33.09,0a11.25,11.25,0,0,0-11.41,11.49q-.15,16.54,0,33.09a11.22,11.22,0,0,0,11.36,11.55c11.21.11,22.43.13,33.64,0a11.24,11.24,0,0,0,11.13-11.21C407.08,147.46,407,141.85,407,136.24Z"/><path d="M81.06,473.36c0,9,0,18,0,26.93,0,7.72-4.61,12.37-12.25,12.39q-27.21.08-54.42,0c-7.22,0-12-4.82-12-12.1q-.08-27.21,0-54.43c0-7.29,4.74-12.08,12-12.1q27.5-.09,55,0c6.91,0,11.62,4.85,11.68,11.82C81.12,455,81.06,464.2,81.06,473.36Zm-11.24.16c0-5.42.06-10.84,0-16.26-.08-7.21-4.82-11.94-12.08-12q-16-.09-32,0c-7.3,0-12.07,4.72-12.12,11.94q-.11,16.26,0,32.52c.05,6.92,4.83,11.64,11.79,11.7q16.26.12,32.52,0c7-.05,11.72-4.77,11.84-11.65C69.9,484.37,69.82,478.94,69.82,473.52Z"/><path d="M318.25,102.66c-3.45,2.11-5.46,4.31-7,4s-3.71-2.83-4-4.62c-.17-1.12,2.67-3.76,4.15-3.76C313.19,98.31,315,100.41,318.25,102.66Z"/><path d="M329.49,102.22c-3.29,2.32-5.14,4.64-6.7,4.46s-3.91-2.56-4.28-4.32c-.24-1.13,2.39-4,3.85-4.06C324.13,98.2,326,100.19,329.49,102.22Z"/><path d="M266.55,95.7c2.17,3.41,4.22,5.24,4.14,7-.06,1.49-2.78,4.2-3.91,4-1.77-.31-4.22-2.46-4.47-4.12S264.34,99.07,266.55,95.7Z"/><path d="M262.06,102.22c-3.29,2.32-5.14,4.64-6.7,4.46s-3.91-2.56-4.28-4.31c-.24-1.13,2.37-4,3.85-4.07C256.67,98.17,258.56,100.16,262.06,102.22Z"/><path d="M98,106.94c2.16,3.41,4.21,5.23,4.14,7-.06,1.49-2.79,4.2-3.91,4-1.78-.31-4.22-2.46-4.47-4.12S95.76,110.31,98,106.94Z"/><path d="M108.85,120.54c-2-3.51-4.2-5.57-3.87-7.11s2.93-3.64,4.73-3.86c1.12-.13,3.67,2.75,3.65,4.26C113.34,115.56,111.19,117.26,108.85,120.54Z"/><path d="M142.71,120.54c-2.11-3.46-4.31-5.47-4-7s2.84-3.7,4.63-4c1.12-.17,3.74,2.65,3.75,4.15C147.09,115.46,145,117.21,142.71,120.54Z"/><path d="M160.91,113.94c-3.47,2.09-5.49,4.28-7,4s-3.68-2.86-3.93-4.66c-.15-1.12,2.69-3.72,4.19-3.72C155.86,109.53,157.6,111.65,160.91,113.94Z"/><path d="M221.38,120.54c-2.11-3.46-4.31-5.47-4-7s2.84-3.7,4.63-4c1.12-.17,3.74,2.65,3.75,4.15C225.76,115.46,223.65,117.21,221.38,120.54Z"/><path d="M250.82,113.46c-3.29,2.32-5.13,4.64-6.7,4.46s-3.91-2.56-4.28-4.32c-.23-1.13,2.37-3.95,3.85-4.06C245.43,109.41,247.32,111.4,250.82,113.46Z"/><path d="M262.06,113.46c-3.29,2.32-5.14,4.64-6.7,4.46s-3.91-2.56-4.28-4.32c-.24-1.13,2.37-3.95,3.85-4.06C256.67,109.41,258.56,111.4,262.06,113.46Z"/><path d="M273.3,113.9c-3.46,2.11-5.47,4.31-7,4s-3.71-2.84-4-4.63c-.16-1.12,2.68-3.76,4.16-3.75C268.24,109.54,270,111.65,273.3,113.9Z"/><path d="M278,120.54c-2.32-3.29-4.64-5.14-4.46-6.7s2.56-3.91,4.32-4.28c1.13-.24,3.95,2.38,4.06,3.85C282.06,115.15,280.07,117,278,120.54Z"/><path d="M300.49,120.54c-2.33-3.29-4.64-5.14-4.46-6.7s2.56-3.91,4.31-4.28c1.13-.24,4,2.37,4.07,3.85C304.54,115.15,302.54,117,300.49,120.54Z"/><path d="M329.48,113.76c-3.39,2.18-5.35,4.41-6.9,4.16s-3.77-2.75-4.07-4.53c-.18-1.12,2.57-3.81,4.06-3.85C324.31,109.49,326.1,111.56,329.48,113.76Z"/><path d="M232.75,109.3c-2.17-3.4-4.4-5.36-4.15-6.91s2.75-3.77,4.53-4.06c1.12-.19,3.81,2.57,3.85,4.06C237,104.12,235,105.92,232.75,109.3Z"/><path d="M221.75,95.7c2.09,3.47,4.27,5.49,4,7s-2.86,3.68-4.66,3.93c-1.11.16-3.71-2.69-3.72-4.19C217.34,100.75,219.46,99,221.75,95.7Z"/><path d="M98.27,118.17c2,3.53,4.16,5.6,3.83,7.14s-2.95,3.62-4.75,3.83c-1.12.13-3.66-2.77-3.63-4.28C93.75,123.13,95.91,121.44,98.27,118.17Z"/><path d="M108.91,118.17c2.31,3.3,4.62,5.16,4.43,6.73s-2.58,3.89-4.34,4.25c-1.13.23-3.94-2.39-4-3.87C104.84,123.54,106.84,121.66,108.91,118.17Z"/><path d="M127.2,124.88c-3.36,2.24-5.27,4.5-6.83,4.28s-3.82-2.68-4.15-4.45c-.2-1.12,2.5-3.86,4-3.93C121.94,120.7,123.77,122.74,127.2,124.88Z"/><path d="M142.56,131.77c-2-3.51-4.19-5.57-3.87-7.1s2.93-3.64,4.73-3.86c1.12-.13,3.67,2.75,3.65,4.26C147.05,126.8,144.9,128.5,142.56,131.77Z"/><path d="M194.63,124.85c-3.35,2.25-5.25,4.52-6.81,4.31s-3.83-2.66-4.17-4.43c-.21-1.12,2.47-3.88,4-4C189.34,120.69,191.19,122.72,194.63,124.85Z"/><path d="M228.34,124.7c-3.29,2.32-5.13,4.63-6.7,4.46s-3.9-2.56-4.27-4.32c-.24-1.13,2.37-4,3.85-4.06C223,120.65,224.85,122.64,228.34,124.7Z"/><path d="M250.82,124.88c-3.36,2.24-5.27,4.5-6.83,4.28s-3.82-2.68-4.15-4.45c-.2-1.12,2.5-3.86,4-3.93C245.56,120.7,247.39,122.74,250.82,124.88Z"/><path d="M273.29,125c-3.4,2.18-5.35,4.41-6.9,4.16s-3.77-2.75-4.07-4.53c-.18-1.12,2.58-3.83,4.06-3.85C268.14,120.75,270,122.82,273.29,125Z"/><path d="M295.77,125c-3.4,2.18-5.36,4.41-6.91,4.16s-3.77-2.75-4.06-4.53c-.19-1.13,2.57-3.81,4.06-3.85C290.59,120.73,292.39,122.8,295.77,125Z"/><path d="M299.9,131.77c-2-3.51-4.2-5.57-3.87-7.1s2.93-3.64,4.73-3.86c1.12-.13,3.68,2.76,3.65,4.25C304.37,126.82,302.22,128.53,299.9,131.77Z"/><path d="M318.25,124.7c-3.29,2.32-5.14,4.63-6.7,4.46s-3.91-2.56-4.28-4.32c-.23-1.13,2.38-4,3.85-4.06C312.86,120.65,314.75,122.64,318.25,124.7Z"/><path d="M329.49,124.85c-3.35,2.25-5.25,4.52-6.81,4.31s-3.83-2.66-4.17-4.43c-.21-1.12,2.49-3.9,3.95-4C324.23,120.71,326.08,122.74,329.49,124.85Z"/><path d="M116,136.43c-3.47,2.08-5.5,4.26-7,4s-3.68-2.87-3.93-4.67c-.16-1.12,2.69-3.71,4.19-3.72C110.91,132,112.65,134.13,116,136.43Z"/><path d="M131.61,143c-2.18-3.4-4.41-5.36-4.16-6.91s2.75-3.76,4.54-4.06c1.12-.19,3.8,2.57,3.84,4.06C135.88,137.84,133.81,139.63,131.61,143Z"/><path d="M160.92,136.56c-3.53,2-5.61,4.17-7.15,3.84s-3.61-3-3.82-4.76c-.13-1.12,2.78-3.67,4.28-3.63C156,132.06,157.67,134.22,160.92,136.56Z"/><path d="M199,143c-2.18-3.4-4.41-5.36-4.16-6.91s2.75-3.76,4.54-4.06c1.12-.19,3.8,2.57,3.84,4.06C203.31,137.84,201.24,139.63,199,143Z"/><path d="M233.06,143c-2.33-3.29-4.64-5.14-4.46-6.7s2.56-3.91,4.31-4.28c1.13-.24,4,2.37,4.07,3.85C237.11,137.62,235.11,139.52,233.06,143Z"/><path d="M243.93,129.41c2.23,3.36,4.49,5.27,4.27,6.83s-2.67,3.82-4.45,4.15c-1.12.2-3.88-2.51-3.93-4C239.77,134.64,241.8,132.8,243.93,129.41Z"/><path d="M266.85,129.41c2,3.53,4.16,5.6,3.83,7.14s-3,3.62-4.76,3.83c-1.12.13-3.66-2.79-3.62-4.28C262.34,134.35,264.5,132.65,266.85,129.41Z"/><path d="M284.54,136.56c-3.53,2-5.6,4.17-7.14,3.84s-3.62-3-3.83-4.76c-.13-1.12,2.77-3.65,4.28-3.63C279.58,132.05,281.27,134.2,284.54,136.56Z"/><path d="M288.66,143c-2-3.51-4.19-5.57-3.87-7.11s2.93-3.63,4.73-3.85c1.12-.14,3.67,2.75,3.65,4.26C293.15,138,291,139.74,288.66,143Z"/><path d="M322.66,143c-2.17-3.4-4.41-5.35-4.15-6.9s2.74-3.77,4.52-4.07c1.12-.19,3.81,2.57,3.86,4.06C326.94,137.83,324.86,139.63,322.66,143Z"/><path d="M104.72,147.47c-3.4,2.18-5.35,4.42-6.91,4.16s-3.77-2.74-4.06-4.52c-.19-1.13,2.56-3.81,4.06-3.86C99.54,143.2,101.34,145.27,104.72,147.47Z"/><path d="M120.3,140.65c2.24,3.36,4.5,5.27,4.28,6.83s-2.68,3.82-4.45,4.15c-1.12.2-3.88-2.51-3.93-4C116.14,145.88,118.18,144,120.3,140.65Z"/><path d="M154.32,140.65c2.09,3.47,4.27,5.5,4,7s-2.86,3.68-4.66,3.93c-1.11.16-3.71-2.68-3.72-4.18C149.91,145.7,152,144,154.32,140.65Z"/><path d="M172.15,147.61c-3.45,2.11-5.46,4.31-7,4s-3.71-2.83-4-4.62c-.16-1.12,2.67-3.76,4.15-3.76C167.09,143.26,168.85,145.37,172.15,147.61Z"/><path d="M176.28,154.25c-2-3.51-4.2-5.57-3.87-7.11s2.93-3.63,4.73-3.85c1.12-.14,3.67,2.75,3.65,4.25C180.76,149.28,178.62,151,176.28,154.25Z"/><path d="M217.1,147.62c-3.45,2.11-5.46,4.3-7,4s-3.71-2.83-4-4.63c-.16-1.11,2.66-3.73,4.16-3.75C212,143.24,213.77,145.35,217.1,147.62Z"/><path d="M228.34,147.47c-3.4,2.18-5.35,4.42-6.9,4.16s-3.77-2.74-4.07-4.52c-.19-1.13,2.57-3.81,4.06-3.86C223.16,143.2,225,145.27,228.34,147.47Z"/><path d="M232.84,140.65c2.16,3.42,4.21,5.24,4.14,7-.06,1.48-2.79,4.2-3.91,4-1.78-.32-4.25-2.48-4.47-4.12S230.64,144,232.84,140.65Z"/><path d="M244.36,140.65c2,3.53,4.17,5.6,3.84,7.14s-2.95,3.61-4.76,3.82c-1.12.13-3.65-2.77-3.62-4.27C239.85,145.61,242,143.91,244.36,140.65Z"/><path d="M270.93,147.11c3.53-2,5.6-4.17,7.14-3.84s3.61,2.95,3.83,4.76c.13,1.12-2.78,3.65-4.28,3.62C275.89,151.62,274.19,149.46,270.93,147.11Z"/><path d="M295.77,147.21c-3.3,2.3-5.16,4.61-6.72,4.42s-3.89-2.58-4.25-4.34c-.24-1.12,2.4-3.95,3.86-4C290.43,143.16,292.32,145.15,295.77,147.21Z"/><path d="M300.42,140.65c2.09,3.48,4.27,5.5,4,7s-2.86,3.69-4.66,3.93c-1.12.16-3.72-2.69-3.72-4.19C296,145.7,298.13,144,300.42,140.65Z"/><path d="M329.48,147.47c-3.39,2.18-5.35,4.42-6.9,4.16s-3.77-2.74-4.07-4.52c-.18-1.13,2.58-3.83,4.06-3.86C324.34,143.23,326.14,145.3,329.48,147.47Z"/><path d="M116,158.56c-3.35,2.25-5.25,4.53-6.8,4.31s-3.84-2.65-4.18-4.42c-.21-1.13,2.48-3.88,4-4C110.68,154.4,112.52,156.44,116,158.56Z"/><path d="M138.43,158.71c-3.39,2.18-5.35,4.41-6.9,4.16s-3.77-2.74-4.07-4.53c-.18-1.12,2.57-3.8,4.06-3.85C133.26,154.44,135.05,156.51,138.43,158.71Z"/><path d="M160.91,158.42c-3.29,2.32-5.13,4.63-6.7,4.45s-3.9-2.56-4.27-4.32c-.24-1.13,2.37-4,3.85-4.06C155.52,154.37,157.42,156.36,160.91,158.42Z"/><path d="M165.63,165.49c-2.32-3.29-4.64-5.13-4.46-6.69s2.56-3.91,4.31-4.29c1.13-.23,4,2.38,4.07,3.85C169.68,160.1,167.69,162,165.63,165.49Z"/><path d="M194.63,158.41c-3.29,2.33-5.14,4.64-6.7,4.46s-3.91-2.56-4.28-4.31c-.24-1.13,2.39-4,3.85-4.07C189.26,154.39,191.16,156.37,194.63,158.41Z"/><path d="M254.94,165.49c-2-3.51-4.19-5.57-3.86-7.11s2.92-3.63,4.73-3.85c1.12-.14,3.67,2.75,3.65,4.25C259.43,160.51,257.28,162.22,254.94,165.49Z"/><path d="M266.55,151.89c2.17,3.42,4.22,5.24,4.14,7-.06,1.49-2.78,4.2-3.91,4-1.77-.31-4.22-2.46-4.47-4.12S264.34,155.26,266.55,151.89Z"/><path d="M295.77,158.9c-3.47,2.09-5.5,4.27-7,4s-3.68-2.86-3.93-4.66c-.15-1.12,2.69-3.72,4.19-3.72C290.72,154.49,292.46,156.61,295.77,158.9Z"/><path d="M300.12,151.89c2.23,3.36,4.49,5.27,4.27,6.83s-2.67,3.82-4.45,4.14c-1.12.21-3.86-2.49-3.93-4C295.93,157.15,298,155.32,300.12,151.89Z"/><path d="M329.49,158.6c-3.36,2.23-5.28,4.5-6.83,4.27s-3.82-2.68-4.15-4.45c-.2-1.12,2.51-3.88,4-3.93C324.26,154.44,326.1,156.48,329.49,158.6Z"/><path d="M98,163.13c2.16,3.41,4.21,5.24,4.14,7-.06,1.49-2.79,4.2-3.91,4-1.78-.31-4.22-2.46-4.47-4.12S95.76,166.5,98,163.13Z"/><path d="M120.08,176.73c-2-3.51-4.19-5.57-3.86-7.11s2.92-3.64,4.73-3.85c1.12-.14,3.67,2.75,3.65,4.25C124.57,171.75,122.42,173.45,120.08,176.73Z"/><path d="M149.68,170.14c-3.48,2.09-5.5,4.27-7,4s-3.69-2.86-3.94-4.66c-.15-1.12,2.69-3.72,4.19-3.72C144.62,165.73,146.36,167.85,149.68,170.14Z"/><path d="M165.19,176.73c-2.11-3.46-4.31-5.46-4-7s2.83-3.7,4.63-4c1.12-.17,3.74,2.66,3.75,4.16C169.56,171.65,167.46,173.4,165.19,176.73Z"/><path d="M194.63,169.65c-3.29,2.32-5.14,4.64-6.7,4.46s-3.91-2.56-4.28-4.32c-.24-1.13,2.38-3.95,3.85-4.06C189.24,165.61,191.13,167.6,194.63,169.65Z"/><path d="M210.21,163.13c2.24,3.36,4.5,5.27,4.27,6.83s-2.67,3.82-4.44,4.14c-1.13.21-3.89-2.5-3.93-4C206.05,168.36,208.09,166.52,210.21,163.13Z"/><path d="M233,163.13c2.09,3.47,4.27,5.5,4,7s-2.86,3.68-4.66,3.93c-1.12.15-3.72-2.69-3.72-4.19C228.58,168.18,230.7,166.44,233,163.13Z"/><path d="M255.32,163.13c2.16,3.41,4.21,5.24,4.14,7-.07,1.49-2.79,4.2-3.92,4-1.77-.31-4.22-2.46-4.46-4.12S253.1,166.5,255.32,163.13Z"/><path d="M277.57,176.73c-2.11-3.46-4.31-5.46-4-7s2.84-3.7,4.63-4c1.12-.17,3.74,2.66,3.75,4.16C282,171.65,279.84,173.4,277.57,176.73Z"/><path d="M299.9,176.73c-2-3.51-4.2-5.57-3.87-7.11s2.93-3.64,4.73-3.85c1.12-.14,3.67,2.75,3.65,4.25C304.39,171.75,302.24,173.45,299.9,176.73Z"/><path d="M322.89,163.13c2.09,3.47,4.28,5.49,4,7s-2.86,3.68-4.66,3.93c-1.12.16-3.72-2.69-3.72-4.19C318.48,168.18,320.6,166.44,322.89,163.13Z"/><path d="M116,181c-3.35,2.25-5.25,4.52-6.8,4.31s-3.84-2.65-4.18-4.42c-.21-1.13,2.48-3.89,4-4C110.68,176.88,112.52,178.91,116,181Z"/><path d="M154,174.37c2.24,3.36,4.5,5.27,4.27,6.83s-2.67,3.82-4.45,4.14c-1.12.21-3.86-2.49-3.93-4C149.84,179.63,151.88,177.79,154,174.37Z"/><path d="M199.27,174.37c2.09,3.47,4.28,5.49,4,7s-2.87,3.69-4.66,3.94c-1.12.15-3.72-2.69-3.72-4.19C194.86,179.42,197,177.68,199.27,174.37Z"/><path d="M217.11,181.08c-3.37,2.23-5.28,4.49-6.84,4.27s-3.82-2.68-4.14-4.45c-.21-1.13,2.49-3.86,4-3.93C211.85,176.89,213.68,178.93,217.11,181.08Z"/><path d="M255.23,188c-2.18-3.41-4.41-5.36-4.15-6.91s2.74-3.77,4.53-4.07c1.12-.18,3.8,2.57,3.85,4.07C259.51,182.79,257.43,184.58,255.23,188Z"/><path d="M300.56,174.36c2,3.53,4.17,5.61,3.83,7.15s-2.95,3.61-4.76,3.82c-1.12.13-3.66-2.78-3.62-4.28C296.06,179.3,298.22,177.6,300.56,174.36Z"/><path d="M311.14,188c-2-3.51-4.2-5.57-3.87-7.11s2.93-3.64,4.73-3.86c1.12-.13,3.67,2.75,3.65,4.26C315.62,183,313.48,184.69,311.14,188Z"/><path d="M322.37,188c-2-3.51-4.19-5.57-3.86-7.11s2.92-3.64,4.73-3.86c1.12-.13,3.67,2.75,3.65,4.26C326.86,183,324.71,184.69,322.37,188Z"/><path d="M1.21,192.06c3.53-2,5.6-4.17,7.14-3.84S12,191.17,12.18,193c.13,1.12-2.78,3.66-4.28,3.62C6.15,196.56,4.45,194.4,1.21,192.06Z"/><path d="M41.64,185.6c2.23,3.36,4.49,5.28,4.27,6.83s-2.67,3.82-4.45,4.15c-1.12.21-3.86-2.49-3.93-4C37.45,190.87,39.49,189,41.64,185.6Z"/><path d="M59.77,192.76c-3.53,2-5.6,4.16-7.14,3.83s-3.62-3-3.82-4.76c-.13-1.12,2.77-3.65,4.27-3.62C54.82,188.24,56.51,190.4,59.77,192.76Z"/><path d="M71,192.76c-3.53,2-5.6,4.16-7.14,3.83s-3.62-3-3.83-4.76c-.13-1.12,2.78-3.65,4.28-3.62C66.06,188.24,67.75,190.4,71,192.76Z"/><path d="M75.79,185.6c2,3.53,4.17,5.61,3.84,7.14s-3,3.62-4.76,3.83c-1.12.13-3.67-2.79-3.62-4.28C71.29,190.54,73.45,188.84,75.79,185.6Z"/><path d="M93.48,192.57c-3.45,2.11-5.46,4.3-7,4s-3.71-2.84-4-4.63c-.16-1.12,2.66-3.74,4.16-3.75C88.4,188.19,90.15,190.3,93.48,192.57Z"/><path d="M97.83,185.6c2.23,3.36,4.5,5.28,4.27,6.83s-2.67,3.82-4.44,4.15c-1.13.21-3.87-2.49-3.94-4C93.64,190.87,95.68,189,97.83,185.6Z"/><path d="M143.22,185.6c2,3.53,4.17,5.61,3.84,7.14s-3,3.62-4.76,3.83c-1.12.13-3.65-2.78-3.63-4.28C138.71,190.56,140.87,188.86,143.22,185.6Z"/><path d="M160.91,192.72c-3.51,2-5.57,4.19-7.11,3.87s-3.63-2.93-3.85-4.74c-.14-1.12,2.75-3.66,4.25-3.64C155.94,188.23,157.64,190.38,160.91,192.72Z"/><path d="M176.43,199.21c-2.12-3.46-4.31-5.47-4-7s2.83-3.71,4.63-4c1.12-.16,3.73,2.66,3.75,4.16C180.8,194.12,178.69,195.88,176.43,199.21Z"/><path d="M244.3,199.21c-2.33-3.29-4.64-5.14-4.46-6.7s2.55-3.91,4.31-4.28c1.13-.24,4,2.38,4.07,3.84C248.32,193.84,246.33,195.74,244.3,199.21Z"/><path d="M255.23,199.2c-2.17-3.4-4.41-5.35-4.15-6.9s2.74-3.77,4.52-4.07c1.13-.18,3.81,2.57,3.86,4.06C259.51,194,257.43,195.82,255.23,199.2Z"/><path d="M266.47,199.21c-2.18-3.41-4.41-5.36-4.16-6.92s2.75-3.76,4.54-4.06c1.12-.18,3.8,2.57,3.84,4.06C270.74,194,268.67,195.82,266.47,199.21Z"/><path d="M295.77,192.61c-3.47,2.09-5.49,4.28-7,4s-3.68-2.87-3.93-4.66c-.16-1.12,2.69-3.72,4.19-3.72C290.72,188.2,292.46,190.32,295.77,192.61Z"/><path d="M293.41,192.06c3.52-2,5.6-4.17,7.13-3.84s3.62,2.95,3.83,4.76c.13,1.12-2.77,3.65-4.27,3.62C298.36,196.57,296.67,194.42,293.41,192.06Z"/><path d="M322.52,199.21c-2.11-3.46-4.3-5.47-4-7s2.83-3.71,4.62-4c1.12-.16,3.74,2.66,3.76,4.16C326.9,194.12,324.79,195.88,322.52,199.21Z"/><path d="M333.9,199.21c-2.18-3.41-4.41-5.36-4.16-6.92s2.75-3.76,4.54-4.06c1.12-.18,3.8,2.57,3.84,4.06C338.17,194,336.1,195.82,333.9,199.21Z"/><path d="M367.85,185.6c2.09,3.48,4.27,5.5,4,7s-2.86,3.69-4.66,3.94c-1.12.15-3.73-2.7-3.72-4.19C363.46,190.63,365.58,188.89,367.85,185.6Z"/><path d="M396.92,192.13c-3.29,2.32-5.14,4.63-6.7,4.46s-3.91-2.56-4.28-4.32c-.24-1.13,2.37-4,3.85-4.06C391.53,188.08,393.42,190.07,396.92,192.13Z"/><path d="M401.71,185.6c2,3.53,4.16,5.61,3.83,7.14s-3,3.62-4.76,3.83c-1.12.13-3.65-2.78-3.62-4.28C397.19,190.56,399.35,188.86,401.71,185.6Z"/><path d="M419.39,192.72c-3.51,2-5.57,4.19-7.11,3.87s-3.63-2.93-3.85-4.74c-.14-1.12,2.76-3.68,4.25-3.64C414.44,188.25,416.14,190.4,419.39,192.72Z"/><path d="M8,210.44c-2.18-3.4-4.41-5.36-4.16-6.91s2.75-3.76,4.53-4.06c1.13-.19,3.81,2.57,3.85,4.06C12.26,205.27,10.19,207.06,8,210.44Z"/><path d="M19.23,210.44c-2.18-3.4-4.41-5.35-4.16-6.9s2.75-3.77,4.53-4.07c1.12-.19,3.81,2.57,3.85,4.06C23.5,205.26,21.43,207.06,19.23,210.44Z"/><path d="M64.41,196.84c2.09,3.47,4.28,5.5,4,7s-2.86,3.69-4.66,3.93c-1.12.16-3.72-2.68-3.72-4.18C60,201.89,62.12,200.16,64.41,196.84Z"/><path d="M86.59,196.84c2.24,3.36,4.5,5.28,4.27,6.83s-2.67,3.82-4.45,4.15c-1.12.2-3.86-2.5-3.93-4C82.41,202.1,84.45,200.27,86.59,196.84Z"/><path d="M98.2,210.45c-2.32-3.29-4.64-5.14-4.46-6.7s2.56-3.91,4.31-4.28c1.13-.24,4,2.38,4.07,3.84C102.23,205.08,100.24,207,98.2,210.45Z"/><path d="M108.85,210.44c-2-3.51-4.2-5.57-3.87-7.11s2.93-3.63,4.73-3.85c1.12-.14,3.67,2.75,3.65,4.26C113.34,205.47,111.19,207.17,108.85,210.44Z"/><path d="M127.2,203.81c-3.46,2.11-5.46,4.3-7,4s-3.7-2.83-4-4.62c-.17-1.12,2.65-3.74,4.15-3.76C122.12,199.43,123.87,201.54,127.2,203.81Z"/><path d="M131.47,210.44c-2.11-3.45-4.3-5.46-4-7s2.84-3.71,4.63-4c1.12-.16,3.74,2.66,3.75,4.16C135.85,205.36,133.74,207.11,131.47,210.44Z"/><path d="M172.15,203.8c-3.45,2.12-5.46,4.31-7,4s-3.71-2.83-4-4.62c-.16-1.12,2.67-3.76,4.15-3.75C167.09,199.45,168.85,201.56,172.15,203.8Z"/><path d="M187.66,210.44c-2.11-3.45-4.3-5.46-4-7s2.83-3.71,4.62-4c1.12-.16,3.74,2.66,3.76,4.16C192,205.36,189.93,207.11,187.66,210.44Z"/><path d="M205.87,203.67c-3.41,2.18-5.36,4.41-6.91,4.15s-3.77-2.74-4.07-4.53c-.18-1.12,2.57-3.8,4.06-3.84C200.69,199.4,202.48,201.47,205.87,203.67Z"/><path d="M210.22,196.84c2.23,3.36,4.49,5.28,4.26,6.83s-2.67,3.82-4.44,4.15c-1.13.2-3.87-2.5-3.93-4C206,202.1,208.07,200.27,210.22,196.84Z"/><path d="M243.93,196.84c2.23,3.36,4.49,5.27,4.27,6.83s-2.67,3.82-4.45,4.15c-1.12.2-3.86-2.49-3.93-4C239.74,202.1,241.78,200.27,243.93,196.84Z"/><path d="M284.54,203.4c-3.31,2.31-5.16,4.61-6.73,4.42s-3.89-2.57-4.25-4.33c-.23-1.13,2.39-3.94,3.87-4C279.17,199.33,281.05,201.33,284.54,203.4Z"/><path d="M300.42,196.84c2.09,3.48,4.27,5.5,4,7s-2.86,3.68-4.66,3.92c-1.12.16-3.72-2.68-3.72-4.19C296,201.89,298.13,200.16,300.42,196.84Z"/><path d="M374.44,203.81c-3.45,2.11-5.46,4.3-7,4s-3.7-2.83-4-4.62c-.16-1.12,2.66-3.74,4.16-3.76C369.36,199.43,371.11,201.54,374.44,203.81Z"/><path d="M401.33,210.44c-2.18-3.4-4.41-5.35-4.16-6.9s2.75-3.77,4.53-4.07c1.12-.19,3.81,2.57,3.85,4.06C405.6,205.26,403.53,207.06,401.33,210.44Z"/><path d="M26.06,214.64c-3.31,2.3-5.16,4.61-6.73,4.42s-3.89-2.58-4.25-4.34c-.24-1.12,2.39-3.94,3.87-4C20.69,210.57,22.57,212.56,26.06,214.64Z"/><path d="M48.53,214.61c-3.29,2.32-5.14,4.63-6.7,4.45s-3.91-2.56-4.28-4.32c-.23-1.12,2.39-4,3.85-4.05C43.17,210.58,45.06,212.57,48.53,214.61Z"/><path d="M59.77,215.09c-3.48,2.09-5.5,4.27-7,4S49,216.2,48.8,214.4c-.16-1.12,2.69-3.71,4.19-3.72C54.72,210.68,56.46,212.8,59.77,215.09Z"/><path d="M75.2,208.08c2.31,3.3,4.61,5.16,4.42,6.72s-2.57,3.89-4.33,4.26c-1.13.23-3.94-2.4-4-3.87C71.13,213.45,73.13,211.57,75.2,208.08Z"/><path d="M116,214.94c-3.42,2.16-5.24,4.21-7,4.14-1.49-.06-4.2-2.78-4-3.91.31-1.77,2.47-4.25,4.11-4.47S112.62,212.74,116,214.94Z"/><path d="M172.15,214.94c-3.41,2.16-5.24,4.21-7,4.14-1.49-.06-4.2-2.78-4-3.91.31-1.77,2.47-4.25,4.11-4.47S168.81,212.74,172.15,214.94Z"/><path d="M176.43,221.68c-2.12-3.45-4.31-5.46-4-7s2.83-3.7,4.63-4c1.12-.16,3.73,2.66,3.75,4.16C180.8,216.6,178.69,218.35,176.43,221.68Z"/><path d="M187.73,208.08c2.24,3.36,4.5,5.27,4.28,6.83s-2.68,3.82-4.45,4.15c-1.12.2-3.86-2.5-3.93-4C183.55,213.34,185.59,211.51,187.73,208.08Z"/><path d="M205.87,215.05c-3.46,2.11-5.47,4.3-7,4s-3.71-2.83-4-4.63c-.16-1.11,2.66-3.73,4.16-3.75C200.78,210.67,202.54,212.78,205.87,215.05Z"/><path d="M210.14,221.68c-2.11-3.45-4.31-5.46-4-7s2.84-3.7,4.63-4c1.12-.16,3.74,2.66,3.75,4.16C214.52,216.6,212.41,218.35,210.14,221.68Z"/><path d="M228.35,215.23c-3.53,2-5.61,4.17-7.15,3.83s-3.61-2.95-3.82-4.76c-.13-1.12,2.78-3.66,4.28-3.62C223.41,210.73,225.1,212.89,228.35,215.23Z"/><path d="M233.13,208.08c2,3.53,4.16,5.6,3.83,7.14s-3,3.61-4.75,3.82c-1.12.13-3.67-2.78-3.63-4.27C228.63,213,230.79,211.32,233.13,208.08Z"/><path d="M250.82,214.9c-3.4,2.18-5.36,4.42-6.91,4.16s-3.77-2.74-4.06-4.52c-.19-1.13,2.56-3.81,4.05-3.86C245.64,210.63,247.43,212.7,250.82,214.9Z"/><path d="M266.18,221.68c-2-3.51-4.19-5.57-3.87-7.11s2.93-3.63,4.74-3.85c1.12-.14,3.67,2.75,3.64,4.25C270.67,216.71,268.52,218.41,266.18,221.68Z"/><path d="M352,214.79c-3.36,2.23-5.28,4.5-6.83,4.27s-3.83-2.67-4.15-4.44c-.21-1.13,2.51-3.89,4-3.94C346.73,210.63,348.57,212.67,352,214.79Z"/><path d="M363.2,214.79c-3.36,2.23-5.27,4.5-6.83,4.27s-3.82-2.67-4.14-4.44c-.21-1.13,2.5-3.89,4-3.94C358,210.63,359.81,212.67,363.2,214.79Z"/><path d="M385.68,214.61c-3.29,2.32-5.14,4.63-6.7,4.45s-3.91-2.56-4.28-4.32c-.24-1.12,2.38-4,3.85-4.06C380.29,210.56,382.18,212.55,385.68,214.61Z"/><path d="M419.39,214.9c-3.4,2.18-5.35,4.42-6.9,4.16s-3.77-2.74-4.07-4.52c-.19-1.13,2.57-3.81,4.06-3.86C414.21,210.63,416,212.7,419.39,214.9Z"/><path d="M37.29,226c-3.34,2.25-5.24,4.53-6.8,4.31s-3.84-2.65-4.17-4.42c-.22-1.13,2.47-3.88,3.95-4C32,221.83,33.85,223.87,37.29,226Z"/><path d="M42.08,219.32c2,3.53,4.16,5.6,3.83,7.14s-2.95,3.61-4.76,3.82c-1.12.13-3.66-2.78-3.62-4.27C37.58,224.25,39.74,222.56,42.08,219.32Z"/><path d="M59.77,225.85c-3.29,2.32-5.14,4.63-6.7,4.45s-3.91-2.56-4.28-4.32c-.24-1.13,2.39-4,3.85-4.06C54.41,221.82,56.3,223.81,59.77,225.85Z"/><path d="M71,226.18c-3.42,2.16-5.24,4.21-7,4.14-1.48-.06-4.2-2.79-4-3.91.32-1.78,2.48-4.25,4.12-4.47S67.67,224,71,226.18Z"/><path d="M104.72,225.85c-3.29,2.32-5.14,4.63-6.7,4.45s-3.9-2.56-4.27-4.32c-.24-1.13,2.38-4,3.84-4.06C99.36,221.82,101.26,223.81,104.72,225.85Z"/><path d="M116,226.33c-3.47,2.09-5.5,4.27-7,4s-3.68-2.86-3.93-4.66c-.16-1.12,2.68-3.72,4.19-3.72C110.91,221.92,112.65,224,116,226.33Z"/><path d="M154.09,232.92c-2.18-3.4-4.41-5.36-4.16-6.91s2.75-3.77,4.53-4.06c1.12-.19,3.81,2.57,3.85,4.06C158.36,227.74,156.29,229.54,154.09,232.92Z"/><path d="M194.63,226.33c-3.48,2.09-5.5,4.27-7,4s-3.69-2.86-3.93-4.66c-.16-1.12,2.69-3.72,4.19-3.72C189.58,221.92,191.32,224,194.63,226.33Z"/><path d="M198.75,232.92c-2-3.51-4.19-5.57-3.87-7.11s2.93-3.63,4.74-3.85c1.12-.14,3.67,2.75,3.64,4.25C203.24,227.94,201.09,229.65,198.75,232.92Z"/><path d="M210.58,232.92c-2.32-3.29-4.63-5.13-4.46-6.7s2.56-3.91,4.32-4.28c1.13-.23,3.95,2.38,4.06,3.85C214.63,227.53,212.64,229.42,210.58,232.92Z"/><path d="M228.34,226c-3.36,2.23-5.27,4.5-6.83,4.27s-3.82-2.68-4.14-4.45c-.21-1.12,2.49-3.86,4-3.93C223.08,221.84,224.92,223.88,228.34,226Z"/><path d="M233.13,219.32c2,3.52,4.16,5.6,3.83,7.13s-3,3.62-4.75,3.83c-1.12.13-3.67-2.78-3.63-4.27C228.63,224.26,230.79,222.56,233.13,219.32Z"/><path d="M266.85,219.32c2,3.53,4.16,5.6,3.83,7.14s-3,3.61-4.76,3.82c-1.12.13-3.65-2.77-3.62-4.28C262.33,224.27,264.49,222.58,266.85,219.32Z"/><path d="M284.53,226.14c-3.4,2.18-5.35,4.41-6.9,4.16s-3.77-2.74-4.07-4.53c-.19-1.12,2.57-3.8,4.06-3.85C279.35,221.87,281.15,223.94,284.53,226.14Z"/><path d="M293.41,225.77c3.52-2,5.6-4.16,7.13-3.83s3.62,2.95,3.83,4.75c.13,1.12-2.78,3.67-4.27,3.63C298.35,230.27,296.65,228.11,293.41,225.77Z"/><path d="M311.73,232.92c-2.33-3.29-4.64-5.13-4.46-6.7s2.55-3.91,4.31-4.28c1.13-.23,4,2.39,4.07,3.85C315.75,227.56,313.76,229.45,311.73,232.92Z"/><path d="M356.75,219.32c2,3.52,4.17,5.6,3.83,7.13s-2.95,3.62-4.75,3.83c-1.12.13-3.66-2.77-3.63-4.27C352.23,224.27,354.39,222.58,356.75,219.32Z"/><path d="M383.31,225.77c3.53-2,5.6-4.16,7.14-3.83s3.62,2.95,3.83,4.75c.13,1.12-2.78,3.67-4.28,3.63C388.25,230.27,386.56,228.11,383.31,225.77Z"/><path d="M401.48,232.92c-2.25-3.34-4.52-5.25-4.31-6.8s2.66-3.84,4.43-4.17c1.12-.22,3.88,2.47,3.95,4C405.64,227.64,403.61,229.48,401.48,232.92Z"/><path d="M412.57,232.92c-2.18-3.4-4.41-5.36-4.16-6.91s2.75-3.77,4.53-4.06c1.12-.19,3.83,2.58,3.85,4.05C416.82,227.77,414.75,229.57,412.57,232.92Z"/><path d="M8.29,244.16C6,240.87,3.66,239,3.83,237.46s2.56-3.91,4.32-4.28c1.13-.23,4,2.38,4.06,3.85C12.34,238.77,10.35,240.66,8.29,244.16Z"/><path d="M26.05,237.7c-3.52,2-5.59,4.17-7.13,3.84s-3.62-2.95-3.83-4.76c-.13-1.12,2.77-3.65,4.28-3.62C21.1,233.19,22.79,235.35,26.05,237.7Z"/><path d="M37.29,237.38c-3.4,2.18-5.35,4.41-6.91,4.16s-3.77-2.75-4.06-4.53c-.19-1.12,2.58-3.83,4.05-3.85C32.14,233.13,33.94,235.2,37.29,237.38Z"/><path d="M41.94,230.56c2.09,3.47,4.27,5.5,4,7s-2.86,3.68-4.66,3.93c-1.12.15-3.72-2.69-3.72-4.19C37.53,235.61,39.65,233.87,41.94,230.56Z"/><path d="M59.77,237.23c-3.35,2.25-5.25,4.52-6.81,4.31s-3.83-2.65-4.17-4.42c-.21-1.13,2.47-3.88,4-4C54.48,233.07,56.33,235.1,59.77,237.23Z"/><path d="M75.28,244.16c-2.11-3.46-4.3-5.46-4-7s2.84-3.7,4.63-4c1.12-.17,3.76,2.67,3.75,4.15C79.64,239.1,77.53,240.86,75.28,244.16Z"/><path d="M93.49,237.57c-3.48,2.09-5.51,4.27-7,4s-3.68-2.87-3.93-4.66c-.15-1.12,2.69-3.72,4.19-3.72C88.43,233.16,90.17,235.28,93.49,237.57Z"/><path d="M98,230.56c2.16,3.41,4.21,5.24,4.14,7-.06,1.49-2.79,4.2-3.91,4-1.78-.31-4.22-2.46-4.47-4.12S95.76,233.93,98,230.56Z"/><path d="M109.07,230.56c2.23,3.36,4.49,5.27,4.27,6.83s-2.67,3.82-4.45,4.14c-1.12.21-3.86-2.49-3.93-4C104.88,235.82,106.92,234,109.07,230.56Z"/><path d="M149.67,237.52c-3.45,2.11-5.45,4.31-7,4s-3.71-2.83-4-4.62c-.16-1.12,2.67-3.76,4.15-3.76C144.62,233.16,146.37,235.27,149.67,237.52Z"/><path d="M183.39,237.7c-3.52,2-5.6,4.17-7.14,3.84s-3.61-2.95-3.82-4.76c-.13-1.12,2.78-3.66,4.27-3.62C178.45,233.21,180.15,235.36,183.39,237.7Z"/><path d="M194.63,237.11c-3.3,2.31-5.16,4.61-6.72,4.43s-3.9-2.58-4.26-4.34c-.23-1.13,2.39-3.94,3.87-4C189.26,233,191.14,235,194.63,237.11Z"/><path d="M239.58,237.71c-3.53,2-5.6,4.16-7.14,3.83s-3.61-2.95-3.82-4.76c-.13-1.12,2.78-3.66,4.28-3.62C234.65,233.21,236.34,235.37,239.58,237.71Z"/><path d="M273.3,237.27c-3.36,2.23-5.28,4.49-6.84,4.27s-3.82-2.68-4.14-4.45c-.2-1.12,2.5-3.86,4-3.93C268,233.08,269.87,235.12,273.3,237.27Z"/><path d="M278.08,230.56c2,3.52,4.17,5.59,3.84,7.13s-2.95,3.62-4.76,3.83c-1.12.13-3.65-2.77-3.63-4.28C273.57,235.51,275.72,233.82,278.08,230.56Z"/><path d="M329.49,237.57c-3.48,2.09-5.5,4.27-7,4s-3.69-2.87-3.93-4.66c-.16-1.12,2.68-3.72,4.19-3.72C324.44,233.16,326.17,235.28,329.49,237.57Z"/><path d="M352,237.08c-3.28,2.32-5.13,4.64-6.7,4.46s-3.9-2.56-4.27-4.32c-.24-1.13,2.37-3.95,3.85-4.06C346.58,233,348.47,235,352,237.08Z"/><path d="M412.65,230.56c2.16,3.41,4.21,5.24,4.14,7-.06,1.49-2.78,4.2-3.91,4-1.77-.31-4.22-2.46-4.47-4.12S410.43,233.93,412.65,230.56Z"/><path d="M30.18,255.4c-2-3.51-4.19-5.57-3.87-7.11s2.93-3.64,4.73-3.86c1.12-.13,3.67,2.75,3.65,4.26C34.67,250.42,32.52,252.12,30.18,255.4Z"/><path d="M48.53,248.66c-3.42,2.16-5.24,4.21-7,4.14-1.49-.07-4.2-2.79-4-3.92.31-1.77,2.47-4.24,4.11-4.46S45.19,246.46,48.53,248.66Z"/><path d="M64.12,241.79c2.23,3.37,4.49,5.28,4.27,6.84s-2.68,3.82-4.45,4.14c-1.13.21-3.87-2.49-3.93-4C59.93,247.06,62,245.22,64.12,241.79Z"/><path d="M93.48,248.62c-3.4,2.18-5.35,4.41-6.9,4.16s-3.77-2.75-4.07-4.53c-.19-1.12,2.58-3.83,4-3.85C88.33,244.37,90.13,246.44,93.48,248.62Z"/><path d="M104.72,248.62c-3.4,2.18-5.35,4.41-6.91,4.16S94,250,93.75,248.25c-.19-1.12,2.58-3.83,4-3.85C99.57,244.37,101.37,246.44,104.72,248.62Z"/><path d="M120.46,241.8c2.16,3.41,4.21,5.23,4.14,7-.07,1.49-2.79,4.2-3.91,4-1.78-.31-4.25-2.48-4.47-4.12S118.26,245.13,120.46,241.8Z"/><path d="M273.29,248.62c-3.4,2.18-5.35,4.41-6.9,4.16s-3.77-2.75-4.07-4.53c-.18-1.12,2.57-3.81,4.06-3.85C268.11,244.35,269.91,246.42,273.29,248.62Z"/><path d="M295.77,248.51c-3.36,2.23-5.27,4.49-6.83,4.27s-3.82-2.68-4.14-4.45c-.21-1.13,2.49-3.86,4-3.93C290.51,244.32,292.35,246.36,295.77,248.51Z"/><path d="M307,248.47c-3.34,2.25-5.25,4.52-6.8,4.31s-3.84-2.66-4.17-4.43c-.22-1.12,2.47-3.88,3.95-3.95C301.73,244.31,303.57,246.34,307,248.47Z"/><path d="M318.25,248.5c-3.36,2.24-5.27,4.5-6.83,4.28s-3.82-2.68-4.15-4.45c-.2-1.12,2.51-3.88,4-3.93C313,244.34,314.86,246.38,318.25,248.5Z"/><path d="M329.49,248.66c-3.42,2.16-5.24,4.21-7,4.14-1.48-.07-4.2-2.79-4-3.92.32-1.77,2.47-4.22,4.13-4.46S326.12,246.44,329.49,248.66Z"/><path d="M340.73,248.5c-3.36,2.24-5.28,4.5-6.83,4.28s-3.82-2.68-4.15-4.45c-.21-1.12,2.51-3.88,4-3.93C335.5,244.34,337.33,246.38,340.73,248.5Z"/><path d="M374.44,248.51c-3.36,2.23-5.27,4.49-6.83,4.27s-3.82-2.68-4.14-4.45c-.21-1.13,2.49-3.86,4-3.93C369.18,244.32,371,246.36,374.44,248.51Z"/><path d="M385.68,248.47c-3.35,2.25-5.25,4.52-6.8,4.31s-3.84-2.66-4.18-4.43c-.21-1.12,2.47-3.88,4-3.95C380.39,244.31,382.24,246.34,385.68,248.47Z"/><path d="M401.11,241.79c2.31,3.31,4.61,5.16,4.42,6.73s-2.57,3.89-4.33,4.25c-1.13.23-3.94-2.39-4-3.87C397,247.16,399,245.28,401.11,241.79Z"/><path d="M7.7,266.63c-2-3.51-4.19-5.57-3.87-7.11s2.93-3.63,4.74-3.85c1.12-.13,3.66,2.75,3.64,4.26C12.19,261.66,10,263.36,7.7,266.63Z"/><path d="M71,259.86C67.6,262,65.65,264.27,64.1,264s-3.77-2.75-4.07-4.53c-.18-1.13,2.57-3.81,4.06-3.85C65.83,255.59,67.62,257.66,71,259.86Z"/><path d="M75.2,253c2.31,3.3,4.61,5.16,4.42,6.72s-2.57,3.9-4.33,4.26c-1.13.23-3.94-2.39-4-3.87C71.13,258.4,73.13,256.52,75.2,253Z"/><path d="M93.48,259.75c-3.36,2.23-5.27,4.49-6.83,4.27s-3.82-2.68-4.14-4.45c-.21-1.13,2.49-3.87,4-3.93C88.22,255.56,90.06,257.6,93.48,259.75Z"/><path d="M108.91,253c2.31,3.3,4.62,5.16,4.43,6.72s-2.58,3.9-4.34,4.26c-1.13.23-3.94-2.39-4-3.87C104.84,258.4,106.84,256.52,108.91,253Z"/><path d="M127.2,259.75c-3.36,2.23-5.28,4.49-6.83,4.27s-3.82-2.68-4.15-4.45c-.2-1.13,2.5-3.87,4-3.93C121.94,255.56,123.77,257.6,127.2,259.75Z"/><path d="M131.84,253c2.09,3.48,4.28,5.5,4,7s-2.86,3.69-4.66,3.94c-1.12.15-3.72-2.69-3.72-4.19C127.43,258.09,129.55,256.35,131.84,253Z"/><path d="M187.8,109.3c-2.18-3.4-4.41-5.36-4.15-6.91s2.74-3.77,4.53-4.06c1.12-.19,3.8,2.57,3.85,4.06C192.08,104.12,190,105.92,187.8,109.3Z"/><path d="M282.17,259.49c3.53-2,5.6-4.17,7.14-3.84s3.61,3,3.82,4.76c.13,1.12-2.78,3.66-4.27,3.62C287.11,264,285.41,261.83,282.17,259.49Z"/><path d="M311.65,253c2.1,3.48,4.28,5.5,4,7s-2.86,3.69-4.66,3.94c-1.12.15-3.72-2.69-3.72-4.19C307.25,258.09,309.37,256.35,311.65,253Z"/><path d="M340.73,260.18c-3.53,2-5.6,4.17-7.14,3.84s-3.62-2.95-3.83-4.76c-.13-1.12,2.78-3.66,4.28-3.62C335.79,255.68,337.49,257.84,340.73,260.18Z"/><path d="M374.44,259.86c-3.4,2.18-5.36,4.41-6.91,4.16s-3.77-2.75-4.06-4.53c-.19-1.12,2.56-3.81,4.06-3.85C369.26,255.59,371.05,257.66,374.44,259.86Z"/><path d="M385.68,259.56c-3.29,2.32-5.14,4.63-6.7,4.45s-3.91-2.55-4.28-4.31c-.23-1.13,2.38-4,3.85-4.06C380.29,255.51,382.18,257.5,385.68,259.56Z"/><path d="M396.91,260c-3.45,2.12-5.45,4.31-7,4s-3.7-2.84-4-4.63c-.16-1.12,2.66-3.74,4.16-3.75C391.83,255.62,393.58,257.73,396.91,260Z"/><path d="M419.39,259.71c-3.34,2.25-5.24,4.52-6.8,4.31s-3.84-2.66-4.17-4.43c-.21-1.12,2.47-3.88,3.95-3.95C414.11,255.55,416,257.58,419.39,259.71Z"/><path d="M53.25,277.88c-2.33-3.29-4.64-5.14-4.46-6.7s2.55-3.91,4.31-4.28c1.13-.24,4,2.38,4.06,3.84C57.27,272.51,55.28,274.41,53.25,277.88Z"/><path d="M93.48,271.1c-3.4,2.17-5.35,4.41-6.9,4.15s-3.77-2.74-4.07-4.52c-.19-1.12,2.58-3.83,4-3.85C88.33,266.85,90.13,268.92,93.48,271.1Z"/><path d="M109.14,277.87c-2.18-3.4-4.41-5.35-4.16-6.9s2.74-3.77,4.53-4.07c1.12-.19,3.8,2.57,3.85,4.06C113.41,272.69,111.34,274.49,109.14,277.87Z"/><path d="M131.91,277.88c-2.32-3.29-4.63-5.14-4.45-6.7s2.55-3.91,4.31-4.28c1.13-.24,4,2.37,4.06,3.85C136,272.48,134,274.38,131.91,277.88Z"/><path d="M149.67,271.23c-3.45,2.11-5.45,4.31-7,4s-3.71-2.83-4-4.62c-.16-1.12,2.67-3.76,4.15-3.75C144.62,266.88,146.37,269,149.67,271.23Z"/><path d="M273.29,271.1c-3.4,2.17-5.35,4.41-6.9,4.15s-3.77-2.74-4.07-4.52c-.18-1.12,2.57-3.81,4.06-3.86C268.11,266.82,269.91,268.9,273.29,271.1Z"/><path d="M323,277.87c-2.32-3.28-4.63-5.13-4.45-6.7s2.56-3.9,4.31-4.27c1.13-.24,4,2.38,4.06,3.85C327,272.51,325,274.41,323,277.87Z"/><path d="M340.73,271.13c-3.42,2.16-5.24,4.21-7,4.14-1.48-.06-4.2-2.78-4-3.91.32-1.77,2.47-4.22,4.12-4.47S337.35,268.91,340.73,271.13Z"/><path d="M363.2,270.83c-3.3,2.31-5.16,4.61-6.72,4.42s-3.89-2.57-4.25-4.33c-.24-1.13,2.39-3.94,3.87-4C357.83,266.76,359.72,268.76,363.2,270.83Z"/><path d="M379.16,277.88c-2.33-3.29-4.64-5.14-4.46-6.7s2.55-3.91,4.31-4.28c1.13-.24,4,2.38,4.06,3.84C383.18,272.51,381.19,274.41,379.16,277.88Z"/><path d="M390.39,277.88c-2.32-3.29-4.63-5.14-4.45-6.7s2.55-3.91,4.31-4.28c1.13-.24,4,2.38,4.06,3.84C394.42,272.51,392.43,274.41,390.39,277.88Z"/><path d="M412.94,264.27c2,3.53,4.17,5.6,3.84,7.14s-3,3.62-4.76,3.83c-1.12.13-3.66-2.78-3.63-4.28C408.43,269.22,410.59,267.53,412.94,264.27Z"/><path d="M14.81,282.34c-3.4,2.17-5.36,4.41-6.91,4.15S4.14,283.74,3.84,282c-.18-1.12,2.57-3.8,4.06-3.85C9.64,278.06,11.43,280.14,14.81,282.34Z"/><path d="M48.53,282.07c-3.3,2.3-5.16,4.61-6.72,4.42s-3.89-2.58-4.26-4.34c-.23-1.12,2.41-3.95,3.87-4C43.19,278,45.07,280,48.53,282.07Z"/><path d="M53.25,289.11c-2.33-3.28-4.64-5.13-4.46-6.69s2.55-3.91,4.31-4.28c1.13-.24,4,2.38,4.06,3.84C57.27,283.75,55.28,285.65,53.25,289.11Z"/><path d="M64.11,275.51c2.24,3.36,4.5,5.27,4.28,6.83s-2.68,3.82-4.45,4.15c-1.12.2-3.88-2.51-3.93-4C60,280.74,62,278.9,64.11,275.51Z"/><path d="M75.13,289.11c-2-3.51-4.19-5.57-3.87-7.11s2.93-3.63,4.73-3.85c1.12-.14,3.67,2.75,3.65,4.25C79.62,284.13,77.47,285.84,75.13,289.11Z"/><path d="M93.48,282.48c-3.45,2.11-5.46,4.3-7,4s-3.71-2.83-4-4.63c-.16-1.11,2.66-3.73,4.16-3.75C88.4,278.1,90.15,280.21,93.48,282.48Z"/><path d="M97.76,289.11c-2.11-3.45-4.31-5.46-4-7s2.83-3.7,4.63-4c1.12-.16,3.75,2.67,3.75,4.16C102.11,284.06,100,285.81,97.76,289.11Z"/><path d="M127.2,282.34c-3.41,2.17-5.36,4.41-6.91,4.15s-3.77-2.75-4.07-4.53c-.18-1.12,2.57-3.8,4.07-3.85C122,278.06,123.81,280.14,127.2,282.34Z"/><path d="M149.68,282.37c-3.42,2.16-5.24,4.21-7,4.14-1.49-.06-4.2-2.78-4-3.91.31-1.77,2.48-4.25,4.12-4.47S146.34,280.17,149.68,282.37Z"/><path d="M154.24,289.11c-2.25-3.34-4.52-5.24-4.31-6.8s2.65-3.84,4.42-4.17c1.13-.21,3.89,2.47,4,3.95C158.4,283.83,156.37,285.67,154.24,289.11Z"/><path d="M284.54,282.07c-3.31,2.3-5.16,4.61-6.73,4.42s-3.89-2.58-4.25-4.34c-.23-1.12,2.39-3.94,3.87-4C279.17,278,281.05,280,284.54,282.07Z"/><path d="M307,282c-3.29,2.32-5.14,4.63-6.7,4.45s-3.91-2.56-4.28-4.32c-.23-1.12,2.38-3.95,3.86-4.06C301.62,278,303.51,280,307,282Z"/><path d="M322.75,275.51c2.16,3.42,4.21,5.24,4.14,7-.07,1.49-2.79,4.21-3.92,4-1.77-.32-4.22-2.47-4.46-4.13S320.53,278.88,322.75,275.51Z"/><path d="M333.76,289.11c-2.11-3.45-4.3-5.46-4-7s2.84-3.7,4.63-4c1.12-.16,3.76,2.67,3.75,4.16C338.12,284.06,336,285.81,333.76,289.11Z"/><path d="M352,282.34c-3.4,2.17-5.36,4.41-6.91,4.15s-3.76-2.75-4.06-4.53c-.19-1.12,2.57-3.8,4.06-3.85C346.79,278.06,348.58,280.14,352,282.34Z"/><path d="M363.2,282.33c-3.4,2.18-5.35,4.41-6.9,4.16s-3.78-2.74-4.07-4.52c-.19-1.13,2.57-3.81,4.06-3.86C358,278.06,359.82,280.13,363.2,282.33Z"/><path d="M396.91,282.19c-3.34,2.24-5.24,4.52-6.8,4.3s-3.83-2.65-4.17-4.42c-.21-1.13,2.47-3.88,4-4C391.63,278,393.48,280.06,396.91,282.19Z"/><path d="M419.39,282.33c-3.4,2.18-5.35,4.41-6.9,4.16s-3.77-2.74-4.07-4.52c-.19-1.13,2.57-3.81,4.06-3.86C414.21,278.06,416,280.13,419.39,282.33Z"/><path d="M19.23,300.35c-2.18-3.4-4.41-5.36-4.16-6.91s2.75-3.77,4.53-4.06c1.12-.19,3.81,2.57,3.85,4.06C23.5,295.17,21.43,297,19.23,300.35Z"/><path d="M37.29,293.71c-3.45,2.11-5.46,4.31-7,4s-3.7-2.83-4-4.63c-.16-1.12,2.66-3.74,4.16-3.75C32.21,289.34,34,291.45,37.29,293.71Z"/><path d="M59.76,293.57c-3.39,2.18-5.35,4.41-6.9,4.16s-3.77-2.74-4.07-4.53c-.18-1.12,2.59-3.82,4.06-3.85C54.62,289.32,56.42,291.4,59.76,293.57Z"/><path d="M87,300.35c-2.32-3.29-4.64-5.14-4.46-6.7s2.56-3.91,4.32-4.28c1.13-.23,4,2.38,4.06,3.86C91,295,89,296.85,87,300.35Z"/><path d="M104.72,293.27c-3.28,2.33-5.13,4.64-6.69,4.46s-3.91-2.56-4.28-4.31c-.24-1.13,2.37-4,3.84-4.07C99.33,289.22,101.22,291.22,104.72,293.27Z"/><path d="M109.13,300.35C107,297,104.72,295,105,293.44s2.75-3.77,4.53-4.06c1.12-.19,3.8,2.57,3.85,4.06C113.41,295.17,111.34,297,109.13,300.35Z"/><path d="M127.2,293.46c-3.36,2.23-5.28,4.5-6.83,4.27s-3.82-2.68-4.15-4.45c-.2-1.12,2.5-3.86,4-3.93C121.94,289.27,123.77,291.31,127.2,293.46Z"/><path d="M142.79,286.75c2.23,3.36,4.49,5.27,4.26,6.83s-2.67,3.82-4.44,4.14c-1.13.21-3.87-2.49-3.93-4C138.6,292,140.64,290.18,142.79,286.75Z"/><path d="M273.3,293.76c-3.48,2.09-5.5,4.27-7,4s-3.69-2.86-3.94-4.66c-.15-1.12,2.69-3.72,4.19-3.72C268.24,289.35,270,291.47,273.3,293.76Z"/><path d="M307,293.76c-3.47,2.09-5.5,4.27-7,4s-3.68-2.86-3.93-4.66c-.16-1.12,2.69-3.72,4.19-3.72C302,289.35,303.7,291.47,307,293.76Z"/><path d="M329.49,293.46c-3.36,2.23-5.27,4.49-6.83,4.27s-3.82-2.67-4.15-4.45c-.2-1.12,2.51-3.88,4-3.93C324.26,289.3,326.1,291.33,329.49,293.46Z"/><path d="M334.2,300.35c-2.32-3.29-4.63-5.13-4.46-6.7s2.56-3.91,4.32-4.28c1.13-.23,4,2.39,4.06,3.85C338.23,295,336.24,296.88,334.2,300.35Z"/><path d="M352,293.71c-3.45,2.11-5.46,4.31-7,4s-3.71-2.83-4-4.62c-.16-1.12,2.66-3.75,4.16-3.76C346.88,289.33,348.63,291.44,352,293.71Z"/><path d="M379.16,300.35c-2.33-3.29-4.64-5.13-4.46-6.7s2.55-3.91,4.31-4.28c1.13-.23,4,2.39,4.06,3.85C383.18,295,381.19,296.88,379.16,300.35Z"/><path d="M396.92,293.27c-3.29,2.33-5.14,4.64-6.7,4.46s-3.91-2.56-4.28-4.31c-.24-1.13,2.37-4,3.85-4.07C391.53,289.22,393.42,291.22,396.92,293.27Z"/><path d="M30.84,298c2,3.52,4.16,5.59,3.83,7.13s-3,3.62-4.75,3.83c-1.12.13-3.66-2.77-3.63-4.28C26.32,302.94,28.48,301.25,30.84,298Z"/><path d="M41.64,298c2.23,3.36,4.49,5.27,4.27,6.82s-2.67,3.83-4.45,4.15c-1.12.21-3.88-2.5-3.93-4C37.48,303.22,39.51,301.38,41.64,298Z"/><path d="M64.26,298c2.17,3.41,4.22,5.24,4.14,7-.06,1.49-2.78,4.2-3.91,4-1.77-.31-4.22-2.46-4.46-4.12S62.05,301.36,64.26,298Z"/><path d="M75.72,311.59c-2.32-3.29-4.63-5.13-4.46-6.7s2.56-3.91,4.32-4.28c1.13-.24,4,2.39,4.06,3.85C79.75,306.23,77.76,308.12,75.72,311.59Z"/><path d="M109,311.59c-2.12-3.46-4.31-5.46-4-7s2.83-3.7,4.63-4c1.12-.17,3.74,2.66,3.75,4.15C113.37,306.51,111.26,308.26,109,311.59Z"/><path d="M120.23,311.59c-2.11-3.46-4.3-5.46-4-7s2.83-3.7,4.62-4c1.12-.17,3.74,2.66,3.76,4.15C124.61,306.51,122.5,308.26,120.23,311.59Z"/><path d="M149.68,304.51c-3.29,2.32-5.14,4.64-6.7,4.46s-3.91-2.56-4.28-4.32c-.24-1.12,2.37-3.95,3.85-4.06C144.28,300.46,146.18,302.45,149.68,304.51Z"/><path d="M278.08,298c2,3.52,4.17,5.59,3.84,7.13s-2.95,3.62-4.76,3.83c-1.12.13-3.65-2.77-3.63-4.28C273.57,302.94,275.72,301.25,278.08,298Z"/><path d="M288.66,311.59c-2-3.51-4.19-5.57-3.87-7.11s2.93-3.64,4.73-3.86c1.12-.13,3.67,2.76,3.65,4.26C293.15,306.61,291,308.31,288.66,311.59Z"/><path d="M318.25,304.51c-3.29,2.32-5.13,4.64-6.7,4.46s-3.91-2.56-4.28-4.32c-.24-1.12,2.37-3.95,3.85-4.06C312.86,300.46,314.75,302.45,318.25,304.51Z"/><path d="M352,304.66c-3.34,2.25-5.24,4.52-6.8,4.31s-3.84-2.65-4.17-4.42c-.21-1.13,2.47-3.88,3.95-4C346.68,300.5,348.52,302.53,352,304.66Z"/><path d="M356.16,298c2.3,3.3,4.61,5.16,4.42,6.72S358,308.6,356.24,309c-1.12.24-3.94-2.39-4-3.87C352.09,303.36,354.08,301.47,356.16,298Z"/><path d="M412.94,298c2,3.53,4.17,5.61,3.83,7.15s-2.95,3.61-4.75,3.82c-1.12.13-3.66-2.77-3.63-4.28C408.43,302.94,410.59,301.25,412.94,298Z"/><path d="M7.93,309.22c2.23,3.37,4.49,5.28,4.27,6.84s-2.68,3.82-4.45,4.14c-1.13.21-3.87-2.49-3.93-4C3.74,314.48,5.78,312.65,7.93,309.22Z"/><path d="M41.57,322.83c-2.11-3.46-4.31-5.47-4-7s2.83-3.71,4.63-4c1.12-.16,3.75,2.68,3.75,4.16C45.92,317.77,43.81,319.53,41.57,322.83Z"/><path d="M71,316.34c-3.5,2-5.56,4.19-7.1,3.87s-3.64-2.93-3.86-4.73c-.13-1.12,2.75-3.67,4.26-3.65C66,311.85,67.73,314,71,316.34Z"/><path d="M93.49,315.75c-3.29,2.32-5.14,4.63-6.7,4.46s-3.91-2.56-4.28-4.32c-.24-1.13,2.37-3.95,3.85-4.06C88.09,311.7,90,313.69,93.49,315.75Z"/><path d="M120.67,322.82c-2.32-3.28-4.63-5.13-4.45-6.69s2.56-3.91,4.32-4.28c1.12-.24,3.95,2.38,4.06,3.85C124.72,317.44,122.73,319.33,120.67,322.82Z"/><path d="M142.56,322.83c-2-3.51-4.19-5.57-3.87-7.11s2.93-3.64,4.73-3.86c1.12-.13,3.67,2.75,3.65,4.26C147.05,317.85,144.9,319.55,142.56,322.83Z"/><path d="M273.29,316.05c-3.4,2.18-5.35,4.41-6.9,4.16s-3.77-2.75-4.07-4.53c-.18-1.12,2.57-3.81,4.06-3.85C268.11,311.78,269.91,313.85,273.29,316.05Z"/><path d="M295.77,315.75c-3.28,2.32-5.13,4.63-6.69,4.46s-3.91-2.56-4.28-4.32c-.24-1.13,2.37-3.95,3.84-4.06C290.38,311.7,292.27,313.69,295.77,315.75Z"/><path d="M307,315.9c-3.34,2.25-5.25,4.52-6.8,4.31s-3.84-2.66-4.17-4.43c-.22-1.12,2.47-3.88,3.95-3.95C301.73,311.74,303.57,313.77,307,315.9Z"/><path d="M333.61,322.83c-2-3.51-4.19-5.57-3.87-7.11s2.93-3.64,4.74-3.86c1.12-.13,3.66,2.75,3.64,4.26C338.1,317.85,336,319.55,333.61,322.83Z"/><path d="M356.24,322.83c-2.11-3.46-4.31-5.47-4-7s2.84-3.71,4.63-4c1.12-.16,3.75,2.68,3.75,4.16C360.59,317.77,358.49,319.53,356.24,322.83Z"/><path d="M374.44,315.78c-3.3,2.31-5.16,4.61-6.72,4.43s-3.89-2.58-4.26-4.34c-.23-1.13,2.4-3.94,3.87-4C369.07,311.71,371,313.71,374.44,315.78Z"/><path d="M412.43,322.83c-2.11-3.46-4.31-5.47-4-7s2.84-3.71,4.63-4c1.12-.16,3.76,2.68,3.75,4.16C416.79,317.77,414.68,319.53,412.43,322.83Z"/><path d="M59.77,327.14c-3.35,2.25-5.25,4.52-6.81,4.31s-3.83-2.66-4.17-4.43c-.21-1.12,2.47-3.88,4-3.95C54.48,323,56.33,325,59.77,327.14Z"/><path d="M75.65,320.46c2.09,3.48,4.27,5.5,4,7s-2.87,3.69-4.66,3.94c-1.12.15-3.72-2.69-3.72-4.19C71.24,325.52,73.36,323.78,75.65,320.46Z"/><path d="M86.59,320.46c2.24,3.36,4.5,5.28,4.27,6.84s-2.67,3.82-4.45,4.14c-1.12.2-3.86-2.5-3.93-4C82.41,325.72,84.45,323.89,86.59,320.46Z"/><path d="M120.37,334.06c-2.18-3.4-4.41-5.35-4.15-6.91s2.75-3.76,4.53-4.06c1.12-.18,3.8,2.57,3.85,4.06C124.65,328.89,122.57,330.68,120.37,334.06Z"/><path d="M143.15,334.07c-2.32-3.29-4.63-5.14-4.46-6.7s2.56-3.91,4.32-4.28c1.13-.24,4,2.37,4.06,3.85C147.2,328.67,145.21,330.57,143.15,334.07Z"/><path d="M154.39,334.07c-2.32-3.29-4.64-5.14-4.46-6.7s2.56-3.91,4.32-4.28c1.13-.24,3.95,2.37,4.06,3.85C158.44,328.67,156.45,330.57,154.39,334.07Z"/><path d="M273.3,327.32c-3.42,2.17-5.24,4.21-7,4.14-1.48-.06-4.2-2.78-4-3.91.32-1.77,2.47-4.22,4.12-4.47S269.92,325.11,273.3,327.32Z"/><path d="M284.53,327.29c-3.4,2.18-5.35,4.41-6.9,4.16s-3.77-2.75-4.07-4.53c-.19-1.12,2.57-3.81,4.06-3.85C279.35,323,281.15,325.09,284.53,327.29Z"/><path d="M307,327.61c-3.52,2-5.6,4.17-7.13,3.84s-3.62-2.95-3.83-4.76c-.13-1.12,2.78-3.66,4.27-3.62C302.08,323.11,303.77,325.27,307,327.61Z"/><path d="M311.57,334.06c-2.24-3.34-4.52-5.24-4.3-6.8s2.65-3.84,4.42-4.17c1.13-.21,3.88,2.47,4,4C315.73,328.78,313.7,330.62,311.57,334.06Z"/><path d="M329.48,327.29c-3.39,2.18-5.35,4.41-6.9,4.16s-3.77-2.75-4.07-4.53c-.18-1.12,2.57-3.81,4.06-3.85C324.31,323,326.1,325.09,329.48,327.29Z"/><path d="M340.72,327.14c-3.34,2.25-5.24,4.52-6.8,4.31s-3.84-2.66-4.17-4.43c-.21-1.12,2.47-3.88,4-3.95C335.44,323,337.28,325,340.72,327.14Z"/><path d="M352,327c-3.28,2.32-5.13,4.63-6.7,4.45s-3.9-2.55-4.27-4.31c-.24-1.13,2.37-4,3.85-4.06C346.58,322.94,348.47,324.93,352,327Z"/><path d="M363.2,327.42c-3.45,2.12-5.46,4.31-7,4s-3.71-2.84-4-4.63c-.16-1.12,2.66-3.74,4.16-3.75C358.12,323.05,359.87,325.16,363.2,327.42Z"/><path d="M367.33,334.06c-2-3.51-4.2-5.57-3.87-7.11s2.93-3.63,4.73-3.85c1.12-.14,3.67,2.75,3.65,4.26C371.82,329.09,369.67,330.79,367.33,334.06Z"/><path d="M14.82,338.85c-3.53,2-5.61,4.17-7.14,3.83s-3.62-2.95-3.83-4.75c-.13-1.12,2.78-3.66,4.28-3.63C9.86,334.34,11.56,336.49,14.82,338.85Z"/><path d="M19.6,331.7c2,3.53,4.17,5.6,3.83,7.14s-2.95,3.62-4.75,3.83c-1.12.12-3.66-2.78-3.63-4.28C15.09,336.65,17.24,335,19.6,331.7Z"/><path d="M37.29,338.82c-3.51,2-5.57,4.19-7.11,3.86s-3.63-2.92-3.85-4.73c-.14-1.12,2.76-3.68,4.25-3.65C32.33,334.34,34,336.49,37.29,338.82Z"/><path d="M71,338.71c-3.48,2.09-5.5,4.27-7.05,4S60.28,339.82,60,338c-.15-1.12,2.69-3.71,4.2-3.72C66,334.3,67.69,336.42,71,338.71Z"/><path d="M98.2,345.3c-2.33-3.29-4.64-5.13-4.46-6.7s2.56-3.9,4.32-4.27c1.13-.24,4,2.38,4.06,3.85C102.22,339.94,100.23,341.84,98.2,345.3Z"/><path d="M127.2,338.85c-3.53,2-5.6,4.17-7.14,3.83s-3.62-2.95-3.82-4.75c-.13-1.12,2.78-3.67,4.27-3.63C122.27,334.35,124,336.51,127.2,338.85Z"/><path d="M143.22,331.7c2,3.53,4.17,5.6,3.84,7.14s-3,3.62-4.76,3.83c-1.12.12-3.67-2.79-3.62-4.28C138.72,336.64,140.88,334.94,143.22,331.7Z"/><path d="M154,331.7c2.24,3.36,4.5,5.28,4.27,6.83s-2.67,3.82-4.45,4.15c-1.12.2-3.86-2.5-3.93-4C149.84,337,151.88,335.13,154,331.7Z"/><path d="M266.77,345.31c-2.32-3.29-4.63-5.14-4.45-6.7s2.55-3.91,4.31-4.28c1.13-.24,3.95,2.37,4.06,3.85C270.82,339.91,268.83,341.81,266.77,345.31Z"/><path d="M295.77,338.22c-3.28,2.33-5.13,4.64-6.69,4.46s-3.91-2.55-4.28-4.31c-.24-1.13,2.37-4,3.84-4.06C290.38,334.18,292.27,336.17,295.77,338.22Z"/><path d="M307,338.71c-3.47,2.09-5.49,4.27-7,4s-3.68-2.86-3.93-4.65c-.16-1.12,2.69-3.72,4.19-3.73C302,334.3,303.7,336.42,307,338.71Z"/><path d="M311.14,345.3c-2-3.51-4.2-5.57-3.87-7.11s2.93-3.63,4.73-3.85c1.12-.14,3.67,2.75,3.65,4.25C315.62,340.33,313.48,342,311.14,345.3Z"/><path d="M340.73,338.41c-3.36,2.23-5.28,4.5-6.83,4.27s-3.82-2.67-4.15-4.44c-.21-1.13,2.49-3.87,4-3.94C335.46,334.23,337.3,336.26,340.73,338.41Z"/><path d="M368,331.7c2,3.53,4.16,5.6,3.83,7.14s-2.95,3.61-4.75,3.83c-1.12.13-3.66-2.78-3.63-4.28C363.47,336.66,365.63,335,368,331.7Z"/><path d="M390,331.7c2.24,3.36,4.5,5.27,4.28,6.83s-2.68,3.82-4.45,4.15c-1.12.2-3.86-2.5-3.93-4C385.84,337,387.88,335.13,390,331.7Z"/><path d="M408.15,338.23c-3.28,2.32-5.13,4.63-6.69,4.45s-3.91-2.56-4.28-4.31c-.24-1.13,2.39-4,3.85-4.06C402.79,334.2,404.69,336.19,408.15,338.23Z"/><path d="M149.67,102.52c-3.4,2.18-5.36,4.41-6.91,4.16s-3.76-2.75-4.06-4.53c-.19-1.12,2.57-3.81,4.06-3.85C144.5,98.25,146.29,100.32,149.67,102.52Z"/><path d="M19.16,342.94c2.23,3.36,4.5,5.27,4.27,6.83s-2.67,3.82-4.44,4.15c-1.13.2-3.87-2.5-3.94-4C15,348.2,17,346.37,19.16,342.94Z"/><path d="M41.71,356.54c-2.18-3.4-4.41-5.35-4.16-6.9s2.74-3.78,4.53-4.07c1.12-.19,3.82,2.58,3.85,4.05C46,351.39,43.88,353.19,41.71,356.54Z"/><path d="M71,349.76c-3.39,2.18-5.35,4.41-6.9,4.16s-3.77-2.74-4.07-4.52c-.18-1.13,2.57-3.81,4.06-3.86C65.83,345.49,67.62,347.56,71,349.76Z"/><path d="M82.25,349.8c-3.42,2.16-5.24,4.21-7,4.14-1.49-.06-4.2-2.79-4-3.91.32-1.78,2.46-4.22,4.12-4.47S78.87,347.58,82.25,349.8Z"/><path d="M91.12,349.4c3.52-2,5.6-4.17,7.14-3.84s3.61,2.95,3.82,4.76c.13,1.12-2.77,3.65-4.27,3.62C96.07,353.91,94.38,351.75,91.12,349.4Z"/><path d="M131.32,356.54c-2-3.51-4.19-5.57-3.87-7.11s2.93-3.63,4.74-3.85c1.12-.14,3.68,2.76,3.64,4.25C135.79,351.58,133.65,353.29,131.32,356.54Z"/><path d="M154.46,342.94c2,3.53,4.17,5.6,3.83,7.14s-2.95,3.61-4.76,3.82c-1.12.13-3.65-2.77-3.62-4.28C150,347.89,152.1,346.2,154.46,342.94Z"/><path d="M266.33,356.54c-2.11-3.45-4.3-5.46-4-7s2.84-3.7,4.63-4c1.12-.16,3.74,2.66,3.75,4.16C270.71,351.46,268.6,353.21,266.33,356.54Z"/><path d="M289.32,342.94c2,3.52,4.17,5.6,3.83,7.14s-2.95,3.61-4.75,3.82c-1.12.13-3.66-2.77-3.63-4.27C284.8,347.89,287,346.2,289.32,342.94Z"/><path d="M311.65,342.94c2.1,3.47,4.28,5.5,4,7s-2.86,3.68-4.66,3.93c-1.12.16-3.72-2.68-3.72-4.19C307.25,348,309.37,346.26,311.65,342.94Z"/><path d="M356.53,356.54c-2.25-3.34-4.52-5.24-4.31-6.8s2.65-3.84,4.42-4.17c1.13-.21,3.88,2.47,4,3.95C360.69,351.26,358.66,353.1,356.53,356.54Z"/><path d="M379,356.54c-2.25-3.34-4.52-5.24-4.3-6.8s2.65-3.84,4.42-4.17c1.13-.21,3.88,2.47,4,3.95C383.16,351.26,381.13,353.1,379,356.54Z"/><path d="M401.7,342.94c2,3.52,4.17,5.6,3.84,7.14s-3,3.61-4.76,3.82c-1.12.13-3.65-2.77-3.62-4.27C397.19,347.89,399.34,346.2,401.7,342.94Z"/><path d="M419.39,349.47c-3.29,2.32-5.13,4.63-6.7,4.45s-3.9-2.56-4.27-4.32c-.24-1.12,2.38-4,3.85-4.06C414,345.44,415.93,347.43,419.39,349.47Z"/><path d="M19.38,367.78c-2.25-3.34-4.52-5.25-4.31-6.8s2.65-3.84,4.42-4.17c1.13-.22,3.91,2.48,4,3.95C23.52,362.53,21.49,364.38,19.38,367.78Z"/><path d="M59.77,360.89c-3.36,2.23-5.28,4.5-6.83,4.27s-3.82-2.68-4.15-4.45c-.2-1.12,2.5-3.86,4-3.93C54.51,356.7,56.34,358.74,59.77,360.89Z"/><path d="M57.4,360.63c3.53-2,5.6-4.16,7.14-3.83s3.62,2.95,3.83,4.75c.13,1.12-2.77,3.66-4.28,3.63C62.36,365.15,60.67,363,57.4,360.63Z"/><path d="M131.39,354.18c2.31,3.3,4.61,5.16,4.43,6.72s-2.58,3.89-4.34,4.26c-1.13.23-3.94-2.4-4-3.88C127.32,359.55,129.32,357.67,131.39,354.18Z"/><path d="M160.91,361c-3.4,2.18-5.35,4.41-6.9,4.16s-3.77-2.74-4.07-4.53c-.19-1.12,2.57-3.81,4.06-3.85C155.73,356.73,157.53,358.8,160.91,361Z"/><path d="M277.42,367.78c-2-3.51-4.19-5.57-3.87-7.11s2.93-3.63,4.73-3.85c1.12-.14,3.67,2.75,3.65,4.25C281.91,362.8,279.76,364.51,277.42,367.78Z"/><path d="M289.18,354.18c2.09,3.47,4.27,5.5,4,7s-2.86,3.68-4.66,3.93c-1.12.16-3.73-2.7-3.72-4.19C284.79,359.2,286.91,357.46,289.18,354.18Z"/><path d="M334.28,354.18c2,3.53,4.16,5.6,3.83,7.14s-3,3.61-4.76,3.82c-1.12.13-3.65-2.77-3.62-4.28C329.76,359.13,331.92,357.44,334.28,354.18Z"/><path d="M363.2,361c-3.41,2.16-5.24,4.21-7,4.14-1.49-.06-4.2-2.79-4-3.91.31-1.78,2.46-4.22,4.12-4.47S359.83,358.82,363.2,361Z"/><path d="M367.48,367.78c-2.11-3.46-4.31-5.46-4-7s2.83-3.7,4.63-4c1.12-.16,3.74,2.66,3.75,4.16C371.85,362.7,369.74,364.45,367.48,367.78Z"/><path d="M378.78,354.18c2.24,3.36,4.5,5.27,4.28,6.83s-2.67,3.82-4.45,4.14c-1.12.21-3.86-2.49-3.93-4C374.6,359.44,376.64,357.61,378.78,354.18Z"/><path d="M396.92,361c-3.41,2.17-5.36,4.4-6.91,4.15s-3.77-2.75-4.07-4.53c-.18-1.12,2.57-3.81,4.06-3.85C391.74,356.73,393.53,358.8,396.92,361Z"/><path d="M401.63,367.78c-2.32-3.29-4.63-5.14-4.46-6.7s2.56-3.91,4.32-4.28c1.13-.23,4,2.39,4.06,3.85C405.66,362.42,403.67,364.31,401.63,367.78Z"/><path d="M14.82,372.13c-3.36,2.23-5.28,4.49-6.84,4.27S4.16,373.72,3.84,372c-.2-1.13,2.5-3.86,4-3.93C9.56,367.94,11.39,370,14.82,372.13Z"/><path d="M26.05,372.53c-3.51,2-5.57,4.19-7.11,3.87s-3.63-2.93-3.85-4.73C15,370.55,17.84,368,19.34,368,21.08,368,22.78,370.19,26.05,372.53Z"/><path d="M30.4,365.42c2.23,3.35,4.5,5.27,4.27,6.82s-2.67,3.83-4.44,4.15c-1.13.21-3.87-2.49-3.94-4C26.21,370.68,28.25,368.85,30.4,365.42Z"/><path d="M48.53,372.09c-3.34,2.25-5.25,4.52-6.8,4.31s-3.84-2.65-4.17-4.42c-.22-1.13,2.48-3.91,3.95-4C43.28,368,45.13,370,48.53,372.09Z"/><path d="M59.77,372.42c-3.47,2.1-5.5,4.28-7,4s-3.68-2.86-3.93-4.66C48.64,370.62,51.48,368,53,368,54.72,368,56.45,370.14,59.77,372.42Z"/><path d="M82.25,371.94c-3.29,2.32-5.14,4.64-6.7,4.46s-3.91-2.56-4.28-4.32C71,371,73.64,368.13,75.12,368,76.85,367.89,78.75,369.88,82.25,371.94Z"/><path d="M93.48,372.28c-3.41,2.16-5.24,4.21-7,4.14-1.49-.06-4.2-2.79-4-3.91.31-1.78,2.46-4.23,4.12-4.47S90.11,370.06,93.48,372.28Z"/><path d="M127.2,372.28c-3.42,2.16-5.24,4.21-7,4.14-1.48-.06-4.2-2.79-4-3.91.32-1.78,2.47-4.23,4.13-4.47S123.83,370.06,127.2,372.28Z"/><path d="M165.63,379c-2.32-3.29-4.64-5.13-4.46-6.7s2.56-3.91,4.31-4.28c1.13-.24,4,2.37,4.07,3.85C169.68,373.63,167.69,375.52,165.63,379Z"/><path d="M205.87,371.94c-3.29,2.32-5.14,4.64-6.7,4.46s-3.91-2.56-4.28-4.32c-.24-1.12,2.38-4,3.84-4.06C200.5,367.91,202.4,369.9,205.87,371.94Z"/><path d="M221.38,379c-2.11-3.46-4.31-5.46-4-7s2.84-3.7,4.63-4c1.12-.17,3.74,2.66,3.75,4.15C225.76,373.94,223.65,375.69,221.38,379Z"/><path d="M233.13,365.41c2,3.53,4.17,5.61,3.83,7.15s-3,3.61-4.76,3.82c-1.12.13-3.65-2.77-3.62-4.28C228.61,370.37,230.77,368.68,233.13,365.41Z"/><path d="M250.82,371.94c-3.29,2.32-5.14,4.64-6.7,4.46s-3.91-2.56-4.28-4.32c-.23-1.13,2.39-4,3.85-4.06C245.46,367.91,247.35,369.9,250.82,371.94Z"/><path d="M255.38,379c-2.25-3.35-4.52-5.25-4.3-6.8s2.65-3.84,4.42-4.18c1.12-.21,3.88,2.47,4,4C259.54,373.73,257.51,375.58,255.38,379Z"/><path d="M273.29,372.53c-3.51,2-5.57,4.19-7.11,3.87s-3.63-2.93-3.85-4.73c-.13-1.12,2.75-3.67,4.26-3.65C268.32,368,270,370.19,273.29,372.53Z"/><path d="M282.17,371.87c3.53-2,5.6-4.17,7.14-3.83s3.61,2.95,3.82,4.75c.13,1.12-2.77,3.66-4.27,3.63C287.13,376.39,285.43,374.23,282.17,371.87Z"/><path d="M329.49,372.57c-3.53,2-5.6,4.16-7.14,3.83s-3.62-2.95-3.83-4.76c-.13-1.12,2.78-3.65,4.28-3.62C324.54,368.05,326.23,370.21,329.49,372.57Z"/><path d="M356.61,365.42c2.09,3.47,4.27,5.5,4,7s-2.86,3.68-4.66,3.93c-1.12.15-3.73-2.7-3.72-4.19C352.22,370.44,354.34,368.7,356.61,365.42Z"/><path d="M401.57,365.42c2.08,3.47,4.27,5.5,4,7s-2.87,3.68-4.67,3.93c-1.11.15-3.73-2.7-3.71-4.19C397.17,370.44,399.29,368.7,401.57,365.42Z"/><path d="M419.4,372c-3.31,2.31-5.16,4.61-6.73,4.43s-3.89-2.58-4.25-4.34c-.23-1.13,2.39-3.94,3.87-4C414,367.9,415.91,369.9,419.4,372Z"/><path d="M7.77,376.65c2.31,3.31,4.61,5.16,4.42,6.73s-2.57,3.89-4.33,4.25c-1.13.23-3.94-2.39-4-3.87C3.7,382,5.7,380.14,7.77,376.65Z"/><path d="M37.29,383.21c-3.3,2.31-5.16,4.61-6.72,4.43s-3.89-2.58-4.25-4.34c-.24-1.13,2.39-3.94,3.87-4C31.92,379.14,33.81,381.14,37.29,383.21Z"/><path d="M71,383.62c-3.45,2.11-5.45,4.3-7,4s-3.7-2.83-4-4.63c-.16-1.12,2.66-3.74,4.16-3.75C65.92,379.24,67.67,381.35,71,383.62Z"/><path d="M97.76,390.26c-2.11-3.46-4.31-5.47-4-7s2.83-3.71,4.63-4c1.12-.16,3.75,2.68,3.75,4.16C102.11,385.2,100,387,97.76,390.26Z"/><path d="M131.69,376.65c2.17,3.42,4.22,5.24,4.14,7-.06,1.49-2.78,4.2-3.91,4-1.77-.31-4.24-2.48-4.46-4.12S129.5,380,131.69,376.65Z"/><path d="M154.24,390.25c-2.25-3.34-4.52-5.24-4.31-6.8s2.65-3.83,4.42-4.17c1.13-.21,3.89,2.47,4,4C158.4,385,156.37,386.82,154.24,390.25Z"/><path d="M217.11,383.51c-3.42,2.17-5.24,4.22-7,4.14-1.49-.06-4.2-2.78-4-3.91.31-1.77,2.46-4.22,4.12-4.46S213.73,381.3,217.11,383.51Z"/><path d="M221.89,376.65c2,3.53,4.17,5.6,3.83,7.14s-2.95,3.62-4.75,3.83c-1.12.13-3.67-2.78-3.63-4.28C217.39,381.59,219.55,379.9,221.89,376.65Z"/><path d="M243.86,390.26c-2.12-3.46-4.31-5.47-4-7s2.83-3.71,4.63-4c1.11-.16,3.73,2.66,3.75,4.16C248.23,385.18,246.12,386.93,243.86,390.26Z"/><path d="M262.06,383.66c-3.47,2.09-5.5,4.28-7,4s-3.68-2.86-3.93-4.66c-.16-1.12,2.68-3.72,4.18-3.72C257,379.25,258.74,381.37,262.06,383.66Z"/><path d="M284.54,383.67c-3.48,2.09-5.5,4.27-7.05,4s-3.68-2.87-3.93-4.66c-.15-1.12,2.7-3.74,4.19-3.72C279.51,379.27,281.25,381.4,284.54,383.67Z"/><path d="M307,383.37c-3.36,2.23-5.27,4.49-6.83,4.27s-3.82-2.68-4.14-4.45c-.21-1.13,2.51-3.89,4-3.93C301.78,379.2,303.62,381.24,307,383.37Z"/><path d="M323,376.65c2,3.53,4.16,5.61,3.83,7.14s-2.95,3.62-4.76,3.83c-1.12.13-3.65-2.78-3.62-4.28C318.52,381.61,320.68,379.92,323,376.65Z"/><path d="M344.92,376.65c2.31,3.31,4.61,5.16,4.42,6.73s-2.57,3.89-4.33,4.25c-1.13.23-3.94-2.39-4-3.87C340.85,382,342.85,380.14,344.92,376.65Z"/><path d="M367.61,390.26c-2.17-3.41-4.4-5.36-4.15-6.91s2.75-3.77,4.53-4.07c1.12-.18,3.81,2.57,3.85,4.06C371.89,385.08,369.82,386.87,367.61,390.26Z"/><path d="M14.82,394.45c-3.3,2.31-5.16,4.61-6.73,4.42s-3.89-2.57-4.25-4.33c-.23-1.13,2.39-3.94,3.87-4C9.45,390.38,11.33,392.38,14.82,394.45Z"/><path d="M26.06,394.42c-3.29,2.32-5.14,4.63-6.7,4.45s-3.91-2.55-4.28-4.31c-.24-1.13,2.37-3.95,3.85-4.06C20.66,390.37,22.56,392.36,26.06,394.42Z"/><path d="M37.29,395c-3.51,2-5.57,4.19-7.11,3.87s-3.63-2.93-3.85-4.74c-.14-1.12,2.76-3.68,4.25-3.64C32.33,390.54,34,392.68,37.29,395Z"/><path d="M42,401.5c-2.33-3.29-4.64-5.14-4.46-6.7s2.56-3.91,4.31-4.28c1.13-.24,4,2.37,4.07,3.85C46.05,396.1,44.06,398,42,401.5Z"/><path d="M53.25,401.5c-2.33-3.29-4.64-5.14-4.46-6.7s2.55-3.91,4.31-4.28c1.13-.24,4,2.37,4.07,3.85C57.29,396.1,55.3,398,53.25,401.5Z"/><path d="M82.24,394.85c-3.45,2.12-5.45,4.31-7,4s-3.71-2.84-4-4.63c-.16-1.12,2.66-3.74,4.16-3.75C77.16,390.48,78.91,392.59,82.24,394.85Z"/><path d="M116,394.57c-3.35,2.25-5.25,4.52-6.8,4.3s-3.84-2.65-4.18-4.42c-.21-1.12,2.48-3.88,4-3.95C110.68,390.41,112.52,392.44,116,394.57Z"/><path d="M124.83,394.35c3.53-2,5.6-4.17,7.14-3.84s3.62,2.95,3.83,4.76c.13,1.12-2.77,3.65-4.28,3.62C129.79,398.86,128.1,396.7,124.83,394.35Z"/><path d="M160.91,394.75c-3.41,2.17-5.24,4.21-7,4.14-1.49-.06-4.2-2.78-4-3.91.31-1.77,2.46-4.22,4.12-4.47S157.54,392.53,160.91,394.75Z"/><path d="M165.19,401.49c-2.11-3.45-4.31-5.46-4-7s2.83-3.71,4.63-4c1.12-.16,3.74,2.66,3.75,4.16C169.56,396.41,167.46,398.16,165.19,401.49Z"/><path d="M176.72,401.49c-2.25-3.34-4.53-5.24-4.31-6.8s2.65-3.84,4.42-4.17c1.13-.21,3.88,2.47,4,4C180.88,396.21,178.84,398.05,176.72,401.49Z"/><path d="M198.9,401.49c-2.11-3.45-4.3-5.46-4-7s2.84-3.71,4.63-4c1.12-.16,3.74,2.66,3.75,4.16C203.28,396.41,201.17,398.16,198.9,401.49Z"/><path d="M210.65,387.89c2,3.53,4.17,5.6,3.84,7.14s-3,3.62-4.76,3.83c-1.12.13-3.67-2.78-3.62-4.28C206.15,392.83,208.31,391.13,210.65,387.89Z"/><path d="M282.17,394.35c3.53-2,5.6-4.17,7.14-3.84s3.61,2.95,3.82,4.76c.13,1.12-2.77,3.65-4.27,3.62C287.13,398.86,285.43,396.7,282.17,394.35Z"/><path d="M329.49,395c-3.53,2-5.6,4.17-7.14,3.84s-3.61-2.95-3.83-4.76c-.13-1.12,2.78-3.65,4.28-3.62C324.53,390.53,326.23,392.68,329.49,395Z"/><path d="M333.76,401.49c-2.11-3.45-4.3-5.46-4-7s2.84-3.71,4.63-4c1.12-.16,3.74,2.66,3.75,4.16C338.14,396.41,336,398.16,333.76,401.49Z"/><path d="M345,401.49c-2.11-3.45-4.31-5.46-4-7s2.84-3.71,4.63-4c1.12-.16,3.74,2.66,3.75,4.16C349.38,396.41,347.27,398.16,345,401.49Z"/><path d="M408.16,394.75c-3.42,2.17-5.24,4.21-7,4.14-1.49-.06-4.2-2.78-4-3.91.32-1.77,2.47-4.22,4.12-4.47S404.78,392.53,408.16,394.75Z"/><path d="M412.43,401.49c-2.11-3.45-4.31-5.46-4-7s2.84-3.71,4.63-4c1.12-.16,3.74,2.66,3.75,4.16C416.81,396.41,414.7,398.16,412.43,401.49Z"/><path d="M14.82,405.65c-3.29,2.33-5.14,4.64-6.7,4.46s-3.91-2.55-4.28-4.31c-.24-1.13,2.37-4,3.85-4.06C9.42,401.61,11.32,403.6,14.82,405.65Z"/><path d="M41.48,399.13c2.31,3.3,4.62,5.16,4.43,6.72s-2.58,3.9-4.34,4.26c-1.13.23-4-2.41-4-3.87C37.43,404.47,39.43,402.59,41.48,399.13Z"/><path d="M86.66,412.73c-2.18-3.4-4.41-5.35-4.16-6.9s2.75-3.77,4.53-4.07c1.12-.19,3.83,2.58,3.85,4.05C90.91,407.58,88.84,409.38,86.66,412.73Z"/><path d="M138.44,406.28c-3.53,2-5.6,4.17-7.14,3.83s-3.62-2.95-3.83-4.75c-.13-1.12,2.78-3.65,4.28-3.63C133.48,401.77,135.17,403.92,138.44,406.28Z"/><path d="M165.56,399.13c2.09,3.48,4.27,5.5,4,7s-2.86,3.69-4.66,3.93c-1.12.16-3.72-2.69-3.72-4.19C161.15,404.18,163.27,402.44,165.56,399.13Z"/><path d="M194.63,405.81c-3.35,2.25-5.25,4.52-6.81,4.3s-3.83-2.65-4.17-4.42c-.21-1.12,2.47-3.88,4-4C189.34,401.65,191.19,403.68,194.63,405.81Z"/><path d="M210.36,399.13c2.16,3.42,4.21,5.24,4.14,7-.06,1.48-2.78,4.2-3.91,4-1.77-.32-4.25-2.48-4.46-4.12S208.17,402.47,210.36,399.13Z"/><path d="M228.34,405.65c-3.28,2.33-5.13,4.64-6.69,4.46s-3.91-2.55-4.28-4.31c-.24-1.13,2.38-4,3.84-4.06C223,401.63,224.88,403.62,228.34,405.65Z"/><path d="M277.42,412.73c-2-3.51-4.19-5.57-3.87-7.11s2.93-3.63,4.73-3.85c1.12-.14,3.67,2.75,3.65,4.25C281.91,407.76,279.76,409.46,277.42,412.73Z"/><path d="M318.25,405.66c-3.29,2.32-5.14,4.63-6.7,4.45s-3.91-2.56-4.28-4.31c-.23-1.13,2.39-4,3.85-4.06C312.89,401.63,314.78,403.62,318.25,405.66Z"/><path d="M340.73,406.28c-3.53,2-5.61,4.17-7.14,3.83s-3.62-2.95-3.83-4.75c-.13-1.12,2.78-3.66,4.28-3.63C335.77,401.77,337.47,403.92,340.73,406.28Z"/><path d="M367.33,412.73c-2-3.51-4.2-5.57-3.87-7.11s2.93-3.63,4.73-3.85c1.12-.14,3.67,2.75,3.65,4.25C371.82,407.76,369.67,409.46,367.33,412.73Z"/><path d="M378.71,412.73c-2.11-3.45-4.3-5.46-4-7s2.83-3.71,4.63-4c1.11-.16,3.73,2.66,3.75,4.16C383.09,407.65,381,409.4,378.71,412.73Z"/><path d="M390.47,399.13c2,3.53,4.16,5.6,3.83,7.14s-2.95,3.62-4.76,3.82c-1.12.13-3.65-2.77-3.62-4.27C386,404.08,388.11,402.39,390.47,399.13Z"/><path d="M419.39,406.14c-3.47,2.09-5.49,4.27-7,4s-3.69-2.86-3.94-4.66c-.15-1.11,2.69-3.71,4.19-3.72C414.34,401.73,416.08,403.85,419.39,406.14Z"/><path d="M14.81,417c-3.34,2.25-5.24,4.53-6.8,4.31s-3.84-2.65-4.17-4.42c-.21-1.13,2.49-3.9,4-4C9.56,412.91,11.41,414.94,14.81,417Z"/><path d="M30.62,424c-2.25-3.34-4.52-5.24-4.31-6.8S29,413.33,30.73,413c1.13-.22,3.88,2.47,4,3.95C34.78,418.69,32.75,420.53,30.62,424Z"/><path d="M48.53,417.08c-3.36,2.24-5.28,4.5-6.83,4.27s-3.82-2.67-4.14-4.45c-.21-1.12,2.49-3.86,4-3.93C43.27,412.89,45.1,414.94,48.53,417.08Z"/><path d="M64.18,424c-2.17-3.4-4.41-5.35-4.15-6.91s2.74-3.77,4.52-4.06c1.12-.19,3.83,2.58,3.85,4.05C68.43,418.82,66.36,420.62,64.18,424Z"/><path d="M68.64,416.83c3.53-2,5.6-4.17,7.14-3.84s3.62,2.95,3.83,4.76c.13,1.11-2.78,3.65-4.28,3.62C73.6,421.34,71.91,419.18,68.64,416.83Z"/><path d="M79.88,416.83c3.53-2,5.6-4.17,7.14-3.84s3.61,2.95,3.82,4.76c.14,1.11-2.77,3.65-4.27,3.62C84.84,421.34,83.14,419.18,79.88,416.83Z"/><path d="M104.72,417c-3.34,2.25-5.24,4.53-6.8,4.31s-3.84-2.65-4.17-4.42c-.22-1.13,2.48-3.9,4-4C99.47,412.91,101.32,414.94,104.72,417Z"/><path d="M127.2,416.89c-3.29,2.33-5.14,4.64-6.7,4.46s-3.91-2.55-4.28-4.31c-.24-1.13,2.39-4,3.85-4.07C121.83,412.87,123.73,414.86,127.2,416.89Z"/><path d="M160.91,417.38c-3.47,2.09-5.49,4.27-7,4s-3.68-2.86-3.93-4.66c-.15-1.11,2.69-3.71,4.19-3.72C155.86,413,157.6,415.09,160.91,417.38Z"/><path d="M176.87,424c-2.33-3.28-4.64-5.13-4.46-6.69s2.55-3.91,4.31-4.28c1.13-.24,4,2.37,4.07,3.84C180.91,418.58,178.92,420.47,176.87,424Z"/><path d="M221.75,410.37c2.09,3.47,4.27,5.5,4,7s-2.86,3.68-4.66,3.93c-1.12.16-3.71-2.69-3.72-4.19C217.34,415.42,219.46,413.68,221.75,410.37Z"/><path d="M255.09,424c-2.11-3.45-4.3-5.46-4-7s2.83-3.7,4.62-4c1.12-.16,3.74,2.66,3.76,4.16C259.47,418.89,257.36,420.64,255.09,424Z"/><path d="M266.33,424c-2.11-3.45-4.3-5.46-4-7s2.84-3.7,4.63-4c1.12-.16,3.74,2.66,3.75,4.16C270.71,418.89,268.6,420.64,266.33,424Z"/><path d="M277.57,424c-2.11-3.45-4.31-5.46-4-7s2.84-3.7,4.63-4c1.12-.16,3.74,2.66,3.75,4.16C282,418.89,279.84,420.64,277.57,424Z"/><path d="M295.77,417c-3.34,2.25-5.24,4.53-6.8,4.31s-3.84-2.65-4.17-4.42c-.21-1.13,2.47-3.88,3.95-4C290.49,412.88,292.33,414.92,295.77,417Z"/><path d="M322.66,424c-2.18-3.4-4.41-5.36-4.15-6.91s2.74-3.77,4.53-4.06c1.12-.19,3.8,2.57,3.85,4.06C326.94,418.79,324.86,420.59,322.66,424Z"/><path d="M334,410.37c2.17,3.42,4.21,5.24,4.14,7-.06,1.49-2.78,4.2-3.91,4-1.77-.31-4.22-2.46-4.47-4.12S331.77,413.74,334,410.37Z"/><path d="M352,417.33c-3.45,2.11-5.46,4.31-7,4s-3.71-2.83-4-4.62c-.16-1.12,2.66-3.74,4.16-3.76C346.88,413,348.63,415.07,352,417.33Z"/><path d="M363.2,416.9c-3.29,2.32-5.13,4.63-6.7,4.45s-3.9-2.56-4.27-4.32c-.24-1.12,2.38-4,3.84-4.06C357.84,412.87,359.74,414.86,363.2,416.9Z"/><path d="M374.44,417.38c-3.47,2.09-5.5,4.27-7,4s-3.68-2.86-3.93-4.66c-.16-1.12,2.7-3.73,4.19-3.72C369.42,413,371.16,415.11,374.44,417.38Z"/><path d="M385.68,417.23c-3.42,2.16-5.24,4.21-7,4.14-1.49-.06-4.21-2.79-4-3.91.32-1.78,2.47-4.22,4.13-4.47S382.31,415,385.68,417.23Z"/><path d="M383.31,416.83c3.53-2,5.6-4.17,7.14-3.84s3.62,2.95,3.83,4.76c.13,1.11-2.77,3.65-4.28,3.62C388.27,421.34,386.58,419.18,383.31,416.83Z"/><path d="M412.72,424c-2.25-3.34-4.52-5.24-4.31-6.8s2.65-3.84,4.42-4.17c1.13-.22,3.89,2.47,4,3.95C416.88,418.69,414.85,420.53,412.72,424Z"/><path d="M97.83,421.61c2.23,3.36,4.5,5.27,4.27,6.83s-2.67,3.82-4.44,4.14c-1.13.21-3.89-2.5-3.94-4C93.67,426.84,95.71,425,97.83,421.61Z"/><path d="M116,428.13c-3.29,2.32-5.13,4.64-6.7,4.46s-3.91-2.56-4.28-4.31c-.23-1.13,2.39-4,3.85-4.07C110.6,424.1,112.49,426.09,116,428.13Z"/><path d="M138.44,428.32c-3.36,2.23-5.28,4.49-6.83,4.27s-3.82-2.68-4.15-4.45c-.2-1.12,2.5-3.86,4-3.93C133.18,424.13,135,426.17,138.44,428.32Z"/><path d="M142.85,435.21c-2.18-3.4-4.41-5.36-4.16-6.91s2.75-3.77,4.53-4.06c1.13-.19,3.81,2.57,3.85,4.06C147.12,430,145.05,431.83,142.85,435.21Z"/><path d="M172.15,428.75c-3.52,2-5.6,4.17-7.13,3.84s-3.62-2.95-3.83-4.75c-.13-1.12,2.77-3.66,4.28-3.63C167.2,424.24,168.89,426.4,172.15,428.75Z"/><path d="M183.39,428.57c-3.45,2.11-5.46,4.31-7,4s-3.71-2.83-4-4.62c-.17-1.12,2.65-3.75,4.15-3.76C178.3,424.19,180.06,426.3,183.39,428.57Z"/><path d="M205.87,428.62c-3.48,2.09-5.5,4.27-7.05,4s-3.68-2.86-3.93-4.66c-.15-1.12,2.69-3.72,4.19-3.72C200.82,424.21,202.55,426.33,205.87,428.62Z"/><path d="M221.52,435.21c-2.18-3.4-4.41-5.36-4.16-6.91s2.75-3.77,4.53-4.06c1.12-.19,3.81,2.56,3.85,4.05C225.79,430,223.72,431.82,221.52,435.21Z"/><path d="M233.06,435.21c-2.33-3.29-4.64-5.14-4.46-6.7s2.56-3.91,4.32-4.28c1.13-.23,4,2.38,4.06,3.85C237.1,429.82,235.11,431.71,233.06,435.21Z"/><path d="M250.82,428.43c-3.4,2.18-5.36,4.41-6.91,4.16s-3.77-2.75-4.06-4.53c-.19-1.12,2.57-3.81,4.06-3.85C245.64,424.16,247.44,426.23,250.82,428.43Z"/><path d="M255.61,421.61c2,3.52,4.16,5.6,3.83,7.14s-2.95,3.61-4.76,3.82c-1.12.13-3.65-2.77-3.62-4.28C251.09,426.56,253.25,424.87,255.61,421.61Z"/><path d="M329.49,428.47c-3.42,2.16-5.24,4.21-7,4.14-1.48-.06-4.2-2.79-4-3.91.32-1.78,2.47-4.22,4.13-4.47S326.12,426.25,329.49,428.47Z"/><path d="M368,421.61c2,3.52,4.17,5.6,3.83,7.14s-2.95,3.61-4.76,3.82c-1.12.13-3.65-2.77-3.62-4.28C363.47,426.56,365.63,424.87,368,421.61Z"/><path d="M396.92,428.13c-3.29,2.32-5.14,4.64-6.7,4.46s-3.91-2.56-4.28-4.31c-.24-1.13,2.37-4,3.85-4.07C391.53,424.08,393.42,426.07,396.92,428.13Z"/><path d="M120.46,95.7c2.16,3.41,4.21,5.24,4.14,7-.07,1.49-2.79,4.2-3.91,4-1.78-.31-4.23-2.46-4.47-4.12S118.24,99.07,120.46,95.7Z"/><path d="M104.72,439.81c-3.45,2.11-5.46,4.31-7,4s-3.7-2.84-4-4.63c-.16-1.12,2.66-3.74,4.16-3.75C99.64,435.43,101.39,437.54,104.72,439.81Z"/><path d="M116,439.86c-3.47,2.09-5.5,4.27-7,4s-3.68-2.87-3.93-4.66c-.16-1.12,2.69-3.72,4.19-3.72C110.91,435.45,112.65,437.57,116,439.86Z"/><path d="M160.91,440c-3.52,2-5.59,4.17-7.13,3.84s-3.62-2.95-3.83-4.76c-.13-1.12,2.77-3.65,4.28-3.62C156,435.48,157.65,437.64,160.91,440Z"/><path d="M165.26,432.85c2.23,3.35,4.5,5.27,4.27,6.82s-2.67,3.83-4.45,4.15c-1.12.21-3.88-2.51-3.93-4C161.1,438.08,163.14,436.24,165.26,432.85Z"/><path d="M183.39,439.52c-3.35,2.25-5.25,4.52-6.8,4.31s-3.84-2.65-4.18-4.42c-.21-1.13,2.48-3.88,4-4C178.1,435.36,180,437.39,183.39,439.52Z"/><path d="M205.86,439.52c-3.34,2.25-5.24,4.52-6.8,4.31s-3.84-2.65-4.17-4.42c-.21-1.13,2.47-3.88,4-4C200.58,435.36,202.42,437.39,205.86,439.52Z"/><path d="M217.1,440c-3.51,2-5.57,4.19-7.11,3.87s-3.63-2.93-3.85-4.73c-.14-1.12,2.75-3.67,4.26-3.65C212.13,435.47,213.83,437.62,217.1,440Z"/><path d="M221.3,432.85c2.3,3.3,4.61,5.16,4.42,6.72s-2.57,3.89-4.34,4.25c-1.12.24-3.93-2.39-4-3.87C217.23,438.22,219.22,436.33,221.3,432.85Z"/><path d="M273.3,439.55c-3.36,2.24-5.28,4.5-6.83,4.28s-3.82-2.68-4.15-4.45c-.21-1.12,2.49-3.86,4-3.93C268,435.37,269.87,437.41,273.3,439.55Z"/><path d="M284.54,439.37c-3.29,2.32-5.14,4.64-6.7,4.46s-3.91-2.56-4.28-4.32c-.24-1.13,2.37-3.95,3.85-4.06C279.14,435.32,281,437.31,284.54,439.37Z"/><path d="M289.18,432.85c2.09,3.47,4.27,5.49,4,7s-2.86,3.68-4.66,3.93c-1.11.15-3.71-2.69-3.72-4.19C284.77,437.9,286.89,436.16,289.18,432.85Z"/><path d="M307,439.86c-3.47,2.09-5.5,4.27-7,4s-3.68-2.87-3.93-4.66c-.16-1.12,2.7-3.73,4.19-3.72C302,435.47,303.73,437.59,307,439.86Z"/><path d="M329.49,439.81c-3.46,2.11-5.47,4.31-7,4s-3.7-2.84-4-4.63c-.16-1.12,2.66-3.74,4.16-3.75C324.41,435.43,326.16,437.54,329.49,439.81Z"/><path d="M344.85,446.45c-2-3.51-4.19-5.57-3.87-7.11s2.93-3.64,4.73-3.86c1.12-.13,3.67,2.76,3.65,4.26C349.34,441.47,347.19,443.17,344.85,446.45Z"/><path d="M367.85,432.85c2.09,3.47,4.27,5.49,4,7s-2.86,3.68-4.66,3.93c-1.12.15-3.72-2.69-3.72-4.19C363.44,437.9,365.56,436.16,367.85,432.85Z"/><path d="M408.16,439.85c-3.48,2.09-5.5,4.28-7,4s-3.69-2.86-3.94-4.66c-.15-1.12,2.69-3.72,4.19-3.72C403.1,435.44,404.84,437.57,408.16,439.85Z"/><path d="M419.39,439.52c-3.34,2.25-5.24,4.52-6.8,4.31s-3.84-2.65-4.17-4.42c-.21-1.13,2.47-3.88,3.95-4C414.11,435.36,416,437.39,419.39,439.52Z"/><path d="M108.91,95.7c2.31,3.3,4.62,5.16,4.43,6.72s-2.58,3.89-4.34,4.25c-1.13.24-3.94-2.39-4-3.87C104.84,101.07,106.84,99.18,108.91,95.7Z"/><path d="M104.72,450.79c-3.36,2.24-5.27,4.5-6.83,4.28s-3.82-2.68-4.14-4.45c-.21-1.12,2.49-3.86,4-3.93C99.46,446.61,101.29,448.65,104.72,450.79Z"/><path d="M131.61,457.68c-2.17-3.39-4.41-5.35-4.16-6.9s2.75-3.77,4.53-4.07c1.12-.18,3.81,2.57,3.85,4.06C135.89,452.51,133.81,454.3,131.61,457.68Z"/><path d="M194.63,450.91c-3.41,2.18-5.36,4.41-6.91,4.16s-3.77-2.75-4.07-4.53c-.18-1.13,2.59-3.83,4.06-3.85C189.48,446.66,191.28,448.73,194.63,450.91Z"/><path d="M228.34,451.05c-3.45,2.11-5.46,4.3-7,4s-3.71-2.83-4-4.63c-.16-1.12,2.66-3.74,4.16-3.75C223.26,446.67,225,448.78,228.34,451.05Z"/><path d="M250.82,450.8c-3.36,2.23-5.28,4.49-6.83,4.27s-3.82-2.68-4.15-4.45c-.2-1.13,2.5-3.87,4-3.93C245.56,446.61,247.39,448.65,250.82,450.8Z"/><path d="M273.3,450.64c-3.3,2.31-5.16,4.61-6.72,4.43s-3.9-2.58-4.26-4.34c-.23-1.13,2.39-3.94,3.87-4C267.93,446.57,269.81,448.57,273.3,450.64Z"/><path d="M295.77,451.1c-3.47,2.09-5.5,4.27-7,4s-3.68-2.87-3.93-4.66c-.15-1.12,2.7-3.74,4.19-3.72C290.75,446.7,292.49,448.83,295.77,451.1Z"/><path d="M318.25,450.94c-3.42,2.17-5.24,4.22-7,4.14-1.49-.06-4.21-2.78-4-3.91.32-1.77,2.47-4.22,4.13-4.46S314.88,448.73,318.25,450.94Z"/><path d="M322.52,457.69c-2.11-3.46-4.3-5.47-4-7s2.83-3.71,4.62-4c1.12-.16,3.74,2.66,3.76,4.16C326.9,452.61,324.79,454.36,322.52,457.69Z"/><path d="M374.44,450.61c-3.29,2.32-5.14,4.63-6.7,4.46s-3.91-2.56-4.28-4.32c-.23-1.13,2.39-4,3.85-4.06C369.08,446.58,371,448.57,374.44,450.61Z"/><path d="M408.16,450.61c-3.29,2.32-5.14,4.63-6.7,4.46s-3.91-2.56-4.28-4.32c-.24-1.13,2.37-3.95,3.85-4.06C402.76,446.56,404.66,448.55,408.16,450.61Z"/><path d="M412.87,457.69c-2.32-3.29-4.64-5.14-4.46-6.7s2.56-3.91,4.32-4.28c1.13-.24,3.95,2.37,4.06,3.85C416.92,452.3,414.93,454.19,412.87,457.69Z"/><path d="M104.72,102.22c-3.28,2.32-5.13,4.64-6.69,4.46s-3.91-2.56-4.28-4.31c-.24-1.13,2.38-4,3.84-4.07C99.36,98.19,101.25,100.18,104.72,102.22Z"/><path d="M104.72,462.29c-3.45,2.11-5.46,4.3-7,4s-3.7-2.84-4-4.63c-.16-1.12,2.66-3.74,4.16-3.75C99.64,457.91,101.39,460,104.72,462.29Z"/><path d="M108.85,468.92c-2-3.51-4.2-5.57-3.87-7.11s2.93-3.63,4.73-3.85c1.12-.14,3.68,2.76,3.65,4.25C113.32,464,111.17,465.67,108.85,468.92Z"/><path d="M143.22,455.32c2,3.53,4.17,5.6,3.84,7.14s-2.95,3.62-4.76,3.83c-1.12.13-3.66-2.78-3.62-4.28C138.72,460.26,140.88,458.56,143.22,455.32Z"/><path d="M160.91,462.18c-3.41,2.16-5.24,4.21-7,4.14-1.49-.06-4.2-2.78-4-3.91.31-1.77,2.46-4.22,4.12-4.47S157.54,460,160.91,462.18Z"/><path d="M183.39,462c-3.35,2.25-5.25,4.52-6.8,4.3s-3.84-2.65-4.18-4.42c-.21-1.12,2.48-3.88,4-3.95C178.1,457.84,180,459.87,183.39,462Z"/><path d="M188.11,468.93c-2.33-3.29-4.64-5.14-4.46-6.7s2.55-3.91,4.31-4.28c1.13-.24,4,2.37,4.06,3.85C192.15,463.53,190.16,465.43,188.11,468.93Z"/><path d="M210.51,455.32c2.09,3.48,4.27,5.5,4,7s-2.87,3.69-4.66,3.94c-1.12.15-3.72-2.69-3.73-4.19C206.1,460.38,208.22,458.64,210.51,455.32Z"/><path d="M228.34,462.47c-3.52,2-5.59,4.17-7.13,3.84s-3.62-2.95-3.83-4.76c-.13-1.12,2.77-3.65,4.28-3.62C223.39,458,225.08,460.11,228.34,462.47Z"/><path d="M232.75,468.92c-2.17-3.4-4.4-5.36-4.15-6.91s2.75-3.76,4.53-4.06c1.12-.18,3.81,2.57,3.85,4.06C237,463.75,235,465.54,232.75,468.92Z"/><path d="M244.23,455.32c2.09,3.48,4.27,5.5,4,7s-2.86,3.69-4.66,3.94c-1.12.15-3.72-2.69-3.72-4.19C239.82,460.38,241.94,458.64,244.23,455.32Z"/><path d="M273.3,462.33c-3.48,2.09-5.5,4.27-7,4s-3.69-2.87-3.94-4.66c-.15-1.12,2.69-3.72,4.19-3.72C268.24,457.92,270,460,273.3,462.33Z"/><path d="M284.53,461.85c-3.28,2.32-5.13,4.63-6.7,4.45s-3.9-2.55-4.27-4.31c-.24-1.13,2.38-4,3.85-4.06C279.17,457.82,281.07,459.81,284.53,461.85Z"/><path d="M288.88,455.32c2.24,3.36,4.5,5.28,4.27,6.83s-2.67,3.82-4.45,4.15c-1.12.2-3.88-2.51-3.93-4C284.72,460.55,286.76,458.71,288.88,455.32Z"/><path d="M311.43,468.92c-2.18-3.4-4.41-5.35-4.16-6.9s2.74-3.77,4.52-4.07c1.13-.19,3.81,2.57,3.86,4.06C315.7,463.74,313.63,465.54,311.43,468.92Z"/><path d="M329.49,462.34c-3.48,2.08-5.5,4.27-7,4s-3.69-2.87-3.93-4.67c-.16-1.12,2.7-3.73,4.18-3.71C324.46,457.94,326.2,460.06,329.49,462.34Z"/><path d="M334.2,468.93c-2.32-3.29-4.63-5.14-4.46-6.7s2.56-3.91,4.32-4.28c1.13-.24,3.95,2.37,4.06,3.85C338.25,463.53,336.26,465.43,334.2,468.93Z"/><path d="M338.36,461.78c3.53-2,5.6-4.17,7.14-3.84s3.61,2.95,3.83,4.76c.13,1.12-2.78,3.65-4.28,3.62C343.32,466.29,341.62,464.13,338.36,461.78Z"/><path d="M356.53,468.92c-2.25-3.34-4.52-5.24-4.31-6.8s2.65-3.84,4.42-4.17c1.13-.21,3.88,2.47,4,3.95C360.69,463.64,358.66,465.48,356.53,468.92Z"/><path d="M374.44,462.15c-3.4,2.18-5.36,4.41-6.91,4.16s-3.77-2.75-4.06-4.54c-.19-1.12,2.57-3.8,4.06-3.84C369.26,457.88,371.06,460,374.44,462.15Z"/><path d="M408.16,462.18c-3.42,2.16-5.24,4.21-7,4.14-1.49-.06-4.2-2.78-4-3.91.32-1.77,2.47-4.22,4.12-4.47S404.78,460,408.16,462.18Z"/><path d="M97.9,480.16c-2.18-3.4-4.41-5.35-4.16-6.9s2.75-3.77,4.53-4.07c1.12-.19,3.81,2.57,3.85,4.06C102.17,475,100.1,476.78,97.9,480.16Z"/><path d="M232.75,480.16c-2.17-3.4-4.4-5.36-4.15-6.91s2.75-3.77,4.53-4.06c1.12-.19,3.81,2.57,3.85,4.06C237,475,235,476.78,232.75,480.16Z"/><path d="M237.22,473c3.52-2,5.59-4.17,7.13-3.84s3.62,2.95,3.83,4.76c.13,1.12-2.77,3.65-4.28,3.62C242.17,477.53,240.48,475.37,237.22,473Z"/><path d="M255.32,466.56c2.16,3.42,4.21,5.24,4.14,7-.07,1.48-2.79,4.2-3.92,4-1.77-.32-4.22-2.47-4.46-4.13S253.1,469.93,255.32,466.56Z"/><path d="M289.32,466.56c2,3.53,4.17,5.6,3.83,7.14s-2.95,3.61-4.75,3.82c-1.12.14-3.66-2.77-3.63-4.27C284.8,471.52,287,469.82,289.32,466.56Z"/><path d="M352,473.38c-3.4,2.18-5.35,4.42-6.9,4.16S341.29,474.8,341,473c-.19-1.13,2.57-3.81,4.06-3.86C346.78,469.11,348.58,471.18,352,473.38Z"/><path d="M396.92,473.08c-3.29,2.33-5.14,4.64-6.7,4.46s-3.91-2.55-4.28-4.31c-.24-1.13,2.37-4,3.85-4.07C391.53,469,393.42,471,396.92,473.08Z"/><path d="M408.16,473.27c-3.36,2.24-5.28,4.5-6.84,4.27s-3.82-2.67-4.14-4.45c-.2-1.12,2.51-3.88,4-3.92C402.93,469.11,404.76,471.15,408.16,473.27Z"/><path d="M120.31,477.8c2.23,3.36,4.49,5.28,4.27,6.83s-2.68,3.82-4.45,4.14c-1.13.21-3.86-2.49-3.93-4C116.12,483.06,118.16,481.23,120.31,477.8Z"/><path d="M149.68,484.66c-3.42,2.16-5.24,4.21-7,4.14-1.49-.06-4.2-2.79-4-3.91.31-1.78,2.46-4.22,4.12-4.47S146.3,482.44,149.68,484.66Z"/><path d="M160.91,484.91c-3.51,2-5.57,4.2-7.11,3.87s-3.63-2.93-3.85-4.73c-.14-1.12,2.75-3.67,4.25-3.65C155.94,480.42,157.64,482.57,160.91,484.91Z"/><path d="M165.7,477.8c2,3.52,4.16,5.6,3.83,7.14s-2.95,3.61-4.75,3.82c-1.12.13-3.67-2.78-3.63-4.27C161.2,482.74,163.36,481,165.7,477.8Z"/><path d="M210.28,491.4c-2.18-3.4-4.41-5.36-4.16-6.91s2.75-3.77,4.53-4.06c1.13-.19,3.81,2.57,3.85,4.06C214.55,486.22,212.48,488,210.28,491.4Z"/><path d="M277.71,491.4c-2.18-3.4-4.41-5.36-4.16-6.91s2.75-3.77,4.53-4.06c1.12-.19,3.81,2.57,3.85,4.06C282,486.22,279.91,488,277.71,491.4Z"/><path d="M295.77,484.33c-3.29,2.32-5.13,4.63-6.7,4.45s-3.9-2.56-4.27-4.32c-.24-1.12,2.38-4,3.84-4.06C290.41,480.3,292.31,482.29,295.77,484.33Z"/><path d="M329.49,484.81c-3.47,2.09-5.5,4.27-7,4s-3.68-2.86-3.93-4.66c-.16-1.11,2.68-3.71,4.18-3.72C324.44,480.4,326.17,482.52,329.49,484.81Z"/><path d="M327.12,484.26c3.53-2,5.6-4.17,7.14-3.84s3.62,2.95,3.83,4.76c.13,1.11-2.77,3.65-4.28,3.62C332.08,488.77,330.39,486.61,327.12,484.26Z"/><path d="M374.44,484.62c-3.4,2.18-5.36,4.41-6.91,4.16s-3.77-2.74-4.06-4.53c-.19-1.12,2.56-3.8,4.06-3.85C369.26,480.35,371.05,482.42,374.44,484.62Z"/><path d="M408.15,484.47c-3.34,2.25-5.24,4.53-6.8,4.31s-3.84-2.65-4.17-4.42c-.21-1.13,2.47-3.88,4-4C402.87,480.31,404.71,482.35,408.15,484.47Z"/><path d="M419.39,484.33c-3.29,2.32-5.13,4.63-6.7,4.45s-3.9-2.56-4.27-4.32c-.24-1.13,2.38-4,3.85-4.06C414,480.3,415.93,482.29,419.39,484.33Z"/><path d="M120.23,502.64c-2.11-3.46-4.3-5.46-4-7s2.83-3.7,4.62-4c1.12-.17,3.74,2.66,3.76,4.16C124.61,497.56,122.5,499.31,120.23,502.64Z"/><path d="M138.44,496.19c-3.53,2-5.6,4.16-7.14,3.83s-3.62-2.95-3.83-4.76c-.13-1.12,2.78-3.65,4.28-3.62C133.49,491.67,135.18,493.83,138.44,496.19Z"/><path d="M154.46,489c2,3.52,4.17,5.6,3.83,7.14s-2.95,3.61-4.76,3.82c-1.12.13-3.65-2.77-3.62-4.28C150,494,152.1,492.3,154.46,489Z"/><path d="M183.39,495.75c-3.36,2.23-5.28,4.49-6.83,4.27s-3.82-2.68-4.15-4.45c-.2-1.12,2.5-3.86,4-3.93C178.13,491.56,180,493.6,183.39,495.75Z"/><path d="M199.12,489c2.17,3.41,4.22,5.24,4.14,7-.06,1.49-2.78,4.2-3.91,4-1.77-.31-4.25-2.47-4.46-4.12S196.93,492.38,199.12,489Z"/><path d="M210.28,502.64c-2.18-3.4-4.41-5.36-4.16-6.91s2.75-3.77,4.53-4.06c1.13-.19,3.81,2.57,3.85,4.06C214.55,497.46,212.48,499.26,210.28,502.64Z"/><path d="M318.25,496c-3.45,2.11-5.46,4.31-7,4s-3.71-2.83-4-4.62c-.17-1.12,2.65-3.75,4.15-3.76C313.16,491.62,314.92,493.73,318.25,496Z"/><path d="M329.49,495.75c-3.36,2.23-5.28,4.49-6.83,4.27s-3.82-2.68-4.15-4.45c-.2-1.12,2.51-3.88,4-3.93C324.26,491.59,326.1,493.63,329.49,495.75Z"/><path d="M340.72,496c-3.45,2.11-5.45,4.31-7,4s-3.71-2.83-4-4.62c-.16-1.12,2.66-3.75,4.16-3.76C335.64,491.62,337.39,493.73,340.72,496Z"/><path d="M345.14,502.64c-2.18-3.4-4.41-5.36-4.16-6.91s2.75-3.77,4.53-4.06c1.12-.19,3.81,2.56,3.85,4.05C349.41,497.46,347.34,499.25,345.14,502.64Z"/><path d="M374.44,496.15c-3.51,2-5.57,4.19-7.11,3.87s-3.63-2.93-3.85-4.73c-.14-1.12,2.75-3.67,4.25-3.65C369.46,491.66,371.17,493.81,374.44,496.15Z"/><path d="M396.92,496.05c-3.47,2.09-5.5,4.27-7,4s-3.68-2.86-3.93-4.66c-.16-1.12,2.68-3.72,4.18-3.72C391.87,491.64,393.6,493.76,396.92,496.05Z"/><path d="M401,502.64c-2-3.51-4.19-5.57-3.87-7.11s2.93-3.64,4.74-3.85c1.12-.14,3.66,2.75,3.64,4.25C405.53,497.66,403.38,499.37,401,502.64Z"/><path d="M412.5,489c2.24,3.36,4.5,5.27,4.27,6.83s-2.67,3.82-4.45,4.14c-1.12.21-3.88-2.51-3.92-4C408.34,494.27,410.38,492.43,412.5,489Z"/><path d="M104.72,507.24c-3.45,2.11-5.46,4.31-7,4s-3.71-2.83-4-4.63c-.16-1.12,2.66-3.74,4.15-3.75C99.64,502.86,101.39,505,104.72,507.24Z"/><path d="M108.85,513.88c-2-3.51-4.2-5.57-3.87-7.11s2.93-3.64,4.73-3.86c1.12-.13,3.68,2.76,3.65,4.26C113.32,508.92,111.17,510.63,108.85,513.88Z"/><path d="M131.39,500.27c2.31,3.31,4.61,5.16,4.43,6.73s-2.58,3.89-4.34,4.25c-1.13.24-3.94-2.39-4-3.87C127.32,505.65,129.32,503.76,131.39,500.27Z"/><path d="M149.67,507.1c-3.4,2.18-5.35,4.41-6.9,4.16s-3.77-2.75-4.07-4.53c-.19-1.12,2.57-3.81,4.06-3.85C144.49,502.83,146.29,504.9,149.67,507.1Z"/><path d="M188,500.27c2.09,3.48,4.27,5.51,4,7.05s-2.87,3.68-4.66,3.93c-1.12.15-3.72-2.69-3.72-4.19C183.63,505.33,185.75,503.59,188,500.27Z"/><path d="M221.89,500.27c2,3.53,4.17,5.61,3.83,7.15s-2.95,3.61-4.76,3.82c-1.12.13-3.65-2.77-3.62-4.28C217.38,505.23,219.53,503.54,221.89,500.27Z"/><path d="M232.75,513.88c-2.17-3.41-4.4-5.36-4.15-6.91s2.75-3.77,4.53-4.07c1.12-.18,3.81,2.57,3.85,4.07C237,508.7,235,510.49,232.75,513.88Z"/><path d="M284.53,507c-3.34,2.25-5.24,4.52-6.8,4.31s-3.84-2.65-4.17-4.42c-.21-1.13,2.47-3.89,3.95-4C279.25,502.79,281.09,504.82,284.53,507Z"/><path d="M299.9,513.88c-2-3.51-4.2-5.57-3.87-7.11s2.93-3.64,4.73-3.86c1.12-.13,3.67,2.75,3.65,4.26C304.39,508.9,302.24,510.6,299.9,513.88Z"/><path d="M318.25,506.8c-3.29,2.32-5.13,4.64-6.7,4.46s-3.91-2.56-4.28-4.32c-.24-1.13,2.37-3.95,3.85-4.06C312.86,502.75,314.75,504.74,318.25,506.8Z"/><path d="M322.9,500.27c2.09,3.48,4.27,5.51,4,7.05s-2.87,3.68-4.66,3.93c-1.12.15-3.74-2.7-3.72-4.19C318.5,505.3,320.63,503.56,322.9,500.27Z"/><path d="M345.14,513.88c-2.18-3.41-4.41-5.36-4.16-6.91s2.75-3.77,4.53-4.07c1.12-.18,3.81,2.57,3.85,4.07C349.41,508.7,347.34,510.49,345.14,513.88Z"/><path d="M363.2,507.1c-3.4,2.18-5.35,4.41-6.9,4.16s-3.78-2.75-4.07-4.53c-.19-1.12,2.57-3.81,4.06-3.85C358,502.83,359.82,504.9,363.2,507.1Z"/><path d="M405.79,506.73c3.53-2,5.6-4.17,7.14-3.83s3.61,3,3.82,4.75c.14,1.12-2.77,3.65-4.27,3.63C410.75,511.24,409.05,509.09,405.79,506.73Z"/><path d="M58.58,136.27c.09,6.54.82,14.19-7.56,15.64-6.62,1.15-13.7,0-20.52-.7-1.49-.15-3.83-2.51-3.93-4a168.34,168.34,0,0,1-.14-21.66c.12-1.72,2.9-4.48,4.67-4.66,6.65-.69,13.6-1.61,20-.34S58.59,125.34,58.58,136.27Z"/><path d="M395.73,136.15c0,6.49.93,14.15-7.44,15.73-6.45,1.23-13.4.32-20-.37-1.77-.18-4.51-2.91-4.67-4.67a110,110,0,0,1-.2-20.61c.21-2.13,3.57-5.32,5.8-5.61,6.26-.81,12.88-1.35,19-.14C396.53,122.13,395.82,129.62,395.73,136.15Z"/><path d="M41.13,456.51c6.89,0,14.52-1,16.24,7.33,1.3,6.26.61,13.07-.12,19.52-.24,2.08-3.3,5.25-5.3,5.44a109.27,109.27,0,0,1-20.62-.06c-1.89-.17-4.81-3.12-5-5-.68-6.65-1.5-13.64-.15-20C27.81,455.82,35.19,456.36,41.13,456.51Z"/></g></g></svg>